STARTFONT 2.1
COMMENT
COMMENT Converted from OpenType font "montserrat_regular.ttf" by "otf2bdf 3.0".
COMMENT
FONT -FreeType-Montserrat Thin-Medium-R-Normal--44-320-100-100-P-221-ISO10646-1
SIZE 32 100 100
FONTBOUNDINGBOX 75 57 -7 -12
STARTPROPERTIES 19
FOUNDRY "FreeType"
FAMILY_NAME "Montserrat Thin"
WEIGHT_NAME "Medium"
SLANT "R"
SETWIDTH_NAME "Normal"
ADD_STYLE_NAME ""
PIXEL_SIZE 44
POINT_SIZE 320
RESOLUTION_X 100
RESOLUTION_Y 100
SPACING "P"
AVERAGE_WIDTH 221
CHARSET_REGISTRY "ISO10646"
CHARSET_ENCODING "1"
FONT_ASCENT 42
FONT_DESCENT 11
COPYRIGHT "Copyright 2011 The Montserrat Project Authors (https://github.com/JulietaUla/Montserrat)"
_OTF_FONTFILE "montserrat_regular.ttf"
_OTF_PSNAME "Montserrat-Thin"
ENDPROPERTIES
CHARS 969
STARTCHAR 0000
ENCODING 0
SWIDTH 0 0
DWIDTH 0 0
BBX 0 0 0 0
BITMAP
ENDCHAR
STARTCHAR 000D
ENCODING 13
SWIDTH 247 0
DWIDTH 11 0
BBX 0 0 0 0
BITMAP
ENDCHAR
STARTCHAR 0020
ENCODING 32
SWIDTH 247 0
DWIDTH 11 0
BBX 0 0 0 0
BITMAP
ENDCHAR
STARTCHAR 0021
ENCODING 33
SWIDTH 225 0
DWIDTH 10 0
BBX 2 31 4 0
BITMAP
40
40
40
40
40
40
40
40
40
40
40
40
40
40
40
40
40
40
40
40
40
40
40
00
00
00
00
00
00
C0
C0
ENDCHAR
STARTCHAR 0022
ENCODING 34
SWIDTH 315 0
DWIDTH 14 0
BBX 7 11 4 20
BITMAP
82
82
82
82
82
82
82
82
82
82
82
ENDCHAR
STARTCHAR 0023
ENCODING 35
SWIDTH 675 0
DWIDTH 30 0
BBX 27 31 2 0
BITMAP
00400800
00400800
00800800
00800800
00800800
00800800
00801000
00801000
00801000
7FFFFFE0
01001000
01001000
01001000
01001000
01001000
01002000
01002000
01002000
02002000
02002000
02002000
FFFFFF80
02002000
02004000
02004000
02004000
04004000
04004000
04004000
04004000
04004000
ENDCHAR
STARTCHAR 0024
ENCODING 36
SWIDTH 585 0
DWIDTH 26 0
BBX 21 41 3 -5
BITMAP
002000
002000
002000
002000
002000
03FF00
0C20C0
102030
202000
402000
402000
802000
802000
802000
402000
402000
602000
302000
0C2000
03A000
007000
002F00
0020C0
002020
002010
002008
002008
002008
002008
002008
002008
802010
C02010
202020
1C20C0
03FF00
002000
002000
002000
002000
002000
ENDCHAR
STARTCHAR 0025
ENCODING 37
SWIDTH 787 0
DWIDTH 35 0
BBX 31 31 2 0
BITMAP
0FC00040
10200040
20100080
40080100
40080100
80080200
80080400
80080400
80080800
80081000
80081000
40082000
40084000
20104000
30208080
0CC10730
03010808
00021004
00041002
00042002
00082002
00102002
00202002
00202002
00402002
00802002
00801002
01001004
02000804
02000C08
040003E0
ENDCHAR
STARTCHAR 0026
ENCODING 38
SWIDTH 630 0
DWIDTH 28 0
BBX 26 31 2 0
BITMAP
00FE0000
03010000
06008000
04008000
04004000
04004000
04008000
04008000
04008000
02010000
02020000
010C0000
00900000
00600000
01A00000
02100000
04080000
180C0000
30060100
20020200
40010200
40008200
80004400
80002400
80001800
40000800
40001400
20002200
10004300
0C018180
03FC00C0
ENDCHAR
STARTCHAR 0027
ENCODING 39
SWIDTH 180 0
DWIDTH 8 0
BBX 1 11 4 20
BITMAP
80
80
80
80
80
80
80
80
80
80
80
ENDCHAR
STARTCHAR 0028
ENCODING 40
SWIDTH 292 0
DWIDTH 13 0
BBX 6 42 5 -9
BITMAP
04
08
08
10
10
10
20
20
20
20
40
40
40
40
40
40
40
80
80
80
80
80
80
80
80
40
40
40
40
40
40
40
20
20
20
20
10
10
08
08
04
04
ENDCHAR
STARTCHAR 0029
ENCODING 41
SWIDTH 292 0
DWIDTH 13 0
BBX 5 42 3 -9
BITMAP
80
80
40
40
20
20
20
10
10
10
10
08
08
08
08
08
08
08
08
08
08
08
08
08
08
08
08
08
08
08
10
10
10
10
20
20
20
40
40
40
80
80
ENDCHAR
STARTCHAR 002A
ENCODING 42
SWIDTH 337 0
DWIDTH 15 0
BBX 13 14 1 19
BITMAP
0200
0200
0200
4218
3220
0EC0
0300
0680
1A60
6218
8200
0200
0200
0200
ENDCHAR
STARTCHAR 002B
ENCODING 43
SWIDTH 540 0
DWIDTH 24 0
BBX 19 17 3 7
BITMAP
004000
004000
004000
004000
004000
004000
004000
004000
FFFFE0
004000
004000
004000
004000
004000
004000
004000
004000
ENDCHAR
STARTCHAR 002C
ENCODING 44
SWIDTH 180 0
DWIDTH 8 0
BBX 2 8 3 -6
BITMAP
C0
C0
40
40
80
80
80
80
ENDCHAR
STARTCHAR 002D
ENCODING 45
SWIDTH 360 0
DWIDTH 16 0
BBX 11 1 3 11
BITMAP
FFE0
ENDCHAR
STARTCHAR 002E
ENCODING 46
SWIDTH 180 0
DWIDTH 8 0
BBX 2 2 3 0
BITMAP
C0
C0
ENDCHAR
STARTCHAR 002F
ENCODING 47
SWIDTH 292 0
DWIDTH 13 0
BBX 15 41 -1 -4
BITMAP
0002
0002
0002
0004
0004
0004
0008
0008
0008
0010
0010
0010
0020
0020
0040
0040
0040
0080
0080
0080
0100
0100
0100
0200
0200
0200
0400
0400
0400
0800
0800
1000
1000
1000
2000
2000
2000
4000
4000
4000
8000
ENDCHAR
STARTCHAR 0030
ENCODING 48
SWIDTH 630 0
DWIDTH 28 0
BBX 23 31 3 0
BITMAP
01FF00
020080
0C0060
180030
100010
200008
400004
400004
400004
800002
800002
800002
800002
800002
800002
800002
800002
800002
800002
800002
800002
800002
400004
400004
400004
200008
100010
180030
0C0060
030180
00FE00
ENDCHAR
STARTCHAR 0031
ENCODING 49
SWIDTH 337 0
DWIDTH 15 0
BBX 9 31 0 0
BITMAP
FF80
0080
0080
0080
0080
0080
0080
0080
0080
0080
0080
0080
0080
0080
0080
0080
0080
0080
0080
0080
0080
0080
0080
0080
0080
0080
0080
0080
0080
0080
0080
ENDCHAR
STARTCHAR 0032
ENCODING 50
SWIDTH 540 0
DWIDTH 24 0
BBX 22 31 1 0
BITMAP
07FE00
180180
200040
C00020
000020
000010
000010
000010
000010
000010
000010
000020
000020
000040
000080
000080
000100
000200
000400
000800
001000
002000
004000
008000
010000
020000
040000
080000
100000
200000
7FFFFC
ENDCHAR
STARTCHAR 0033
ENCODING 51
SWIDTH 540 0
DWIDTH 24 0
BBX 21 31 1 0
BITMAP
7FFFF0
000020
000040
000080
000080
000100
000200
000400
000C00
000800
001000
002000
006000
004000
00FE00
000180
000040
000020
000010
000010
000008
000008
000008
000008
000008
000010
800010
C00020
200040
180180
07FE00
ENDCHAR
STARTCHAR 0034
ENCODING 52
SWIDTH 630 0
DWIDTH 28 0
BBX 26 31 2 0
BITMAP
00004000
00008000
00010000
00010000
00020000
00040000
00080000
00100000
00300000
00200000
00400000
00800000
01000000
02002000
06002000
04002000
08002000
10002000
20002000
40002000
40002000
FFFFFFC0
00002000
00002000
00002000
00002000
00002000
00002000
00002000
00002000
00002000
ENDCHAR
STARTCHAR 0035
ENCODING 53
SWIDTH 540 0
DWIDTH 24 0
BBX 20 31 2 0
BITMAP
1FFFE0
100000
100000
200000
200000
200000
200000
200000
200000
200000
200000
200000
400000
7FC000
003E00
000180
000040
000020
000010
000010
000010
000010
000010
000010
000010
000010
000020
800020
600040
180180
07FC00
ENDCHAR
STARTCHAR 0036
ENCODING 54
SWIDTH 585 0
DWIDTH 26 0
BBX 22 31 3 0
BITMAP
00FFC0
030020
040000
180000
100000
200000
400000
400000
800000
800000
800000
800000
800000
80FE00
8701C0
880020
900010
A00008
A00008
C00008
C00004
C00004
400004
400004
400008
200008
200008
100010
080020
0600C0
01FF00
ENDCHAR
STARTCHAR 0037
ENCODING 55
SWIDTH 562 0
DWIDTH 25 0
BBX 21 31 2 0
BITMAP
FFFFF8
800008
800010
800010
800020
800020
800060
000040
000040
000080
000080
000100
000100
000200
000200
000400
000400
000800
000800
000800
001000
001000
002000
002000
004000
004000
008000
008000
010000
010000
030000
ENDCHAR
STARTCHAR 0038
ENCODING 56
SWIDTH 607 0
DWIDTH 27 0
BBX 23 31 2 0
BITMAP
01FF80
060060
080010
100008
200004
200004
200004
400004
400004
200004
200004
100008
080010
060060
01FF80
0301C0
0C0030
300008
200004
400002
400002
800002
800002
800002
400002
400002
400004
20000C
100018
0E0060
01FF80
ENDCHAR
STARTCHAR 0039
ENCODING 57
SWIDTH 585 0
DWIDTH 26 0
BBX 22 31 2 0
BITMAP
07FC00
180300
200080
400040
400020
800010
800010
800010
800018
800018
800018
800018
800024
400024
600044
300084
0C0304
03FC04
000004
000008
000008
000008
000008
000010
000010
000020
000060
0000C0
000180
200600
1FF800
ENDCHAR
STARTCHAR 003A
ENCODING 58
SWIDTH 180 0
DWIDTH 8 0
BBX 2 23 3 0
BITMAP
C0
C0
00
00
00
00
00
00
00
00
00
00
00
00
00
00
00
00
00
00
00
C0
C0
ENDCHAR
STARTCHAR 003B
ENCODING 59
SWIDTH 180 0
DWIDTH 8 0
BBX 2 29 3 -6
BITMAP
C0
C0
00
00
00
00
00
00
00
00
00
00
00
00
00
00
00
00
00
00
00
C0
C0
40
40
80
80
80
80
ENDCHAR
STARTCHAR 003C
ENCODING 60
SWIDTH 540 0
DWIDTH 24 0
BBX 19 17 3 7
BITMAP
000020
0000C0
000700
001800
006000
038000
0C0000
700000
800000
700000
0C0000
038000
006000
001C00
000300
0000C0
000020
ENDCHAR
STARTCHAR 003D
ENCODING 61
SWIDTH 540 0
DWIDTH 24 0
BBX 19 11 3 10
BITMAP
FFFFE0
000000
000000
000000
000000
000000
000000
000000
000000
000000
FFFFE0
ENDCHAR
STARTCHAR 003E
ENCODING 62
SWIDTH 540 0
DWIDTH 24 0
BBX 19 16 3 7
BITMAP
800000
600000
180000
070000
00C000
003800
000600
000180
000060
000180
000600
003800
00C000
070000
180000
E00000
ENDCHAR
STARTCHAR 003F
ENCODING 63
SWIDTH 540 0
DWIDTH 24 0
BBX 20 31 1 0
BITMAP
07FE00
180180
600040
800020
000020
000020
000010
000010
000010
000020
000020
000020
000040
000080
000100
000200
000400
000800
001000
001000
002000
002000
002000
000000
000000
000000
000000
000000
000000
007000
003000
ENDCHAR
STARTCHAR 0040
ENCODING 64
SWIDTH 1012 0
DWIDTH 45 0
BBX 40 40 3 -9
BITMAP
0003FFC000
001C003800
0060000600
0180000180
03000000C0
0400000020
0800000010
1000000018
1000FE0208
200301C204
200C002204
4018001202
4010000A02
8020000A02
8060000601
8040000601
8040000201
8040000201
8080000201
8080000201
8080000201
8040000201
8040000201
8040000601
8040000601
8020000A01
4010000A02
4018001202
400C002204
200300C108
2000FE00F0
1000000000
0800000000
0400000000
0200000000
0100000000
00C0000000
0030001000
000F01E000
00007C0000
ENDCHAR
STARTCHAR 0041
ENCODING 65
SWIDTH 675 0
DWIDTH 30 0
BBX 29 31 1 0
BITMAP
00020000
00060000
00050000
00090000
00088000
00108000
00104000
00204000
00202000
00402000
00401000
00801000
00800800
00800800
01000400
01000400
02000400
02000200
04000200
04000100
08000100
0FFFFF80
10000080
10000040
20000040
20000020
40000020
40000010
40000010
80000010
80000008
ENDCHAR
STARTCHAR 0042
ENCODING 66
SWIDTH 742 0
DWIDTH 33 0
BBX 24 31 6 0
BITMAP
FFFF80
800060
800018
800008
800004
800004
800002
800002
800002
800004
800004
800004
800008
800030
8001C0
FFFFE0
800018
800004
800002
800001
800001
800001
800001
800001
800001
800001
800001
800002
800004
800038
FFFFC0
ENDCHAR
STARTCHAR 0043
ENCODING 67
SWIDTH 697 0
DWIDTH 31 0
BBX 26 31 3 0
BITMAP
003FF800
00C00600
03000180
04000040
08000000
10000000
20000000
20000000
40000000
40000000
80000000
80000000
80000000
80000000
80000000
80000000
80000000
80000000
80000000
80000000
80000000
40000000
40000000
20000000
20000000
10000000
08000000
060000C0
03000180
00E00600
001FF800
ENDCHAR
STARTCHAR 0044
ENCODING 68
SWIDTH 810 0
DWIDTH 36 0
BBX 28 31 6 0
BITMAP
FFFF8000
80006000
80001800
80000600
80000300
80000080
80000080
80000040
80000020
80000020
80000020
80000010
80000010
80000010
80000010
80000010
80000010
80000010
80000010
80000010
80000020
80000020
80000020
80000040
80000080
80000180
80000300
80000600
80001800
80006000
FFFF8000
ENDCHAR
STARTCHAR 0045
ENCODING 69
SWIDTH 652 0
DWIDTH 29 0
BBX 21 31 6 0
BITMAP
FFFFF0
800000
800000
800000
800000
800000
800000
800000
800000
800000
800000
800000
800000
800000
800000
FFFFC0
800000
800000
800000
800000
800000
800000
800000
800000
800000
800000
800000
800000
800000
800000
FFFFF8
ENDCHAR
STARTCHAR 0046
ENCODING 70
SWIDTH 607 0
DWIDTH 27 0
BBX 20 31 6 0
BITMAP
FFFFF0
800000
800000
800000
800000
800000
800000
800000
800000
800000
800000
800000
800000
800000
800000
800000
FFFFC0
800000
800000
800000
800000
800000
800000
800000
800000
800000
800000
800000
800000
800000
800000
ENDCHAR
STARTCHAR 0047
ENCODING 71
SWIDTH 765 0
DWIDTH 34 0
BBX 26 31 3 0
BITMAP
001FF800
00E00600
03000180
04000040
08000000
10000000
20000000
20000000
40000000
40000000
80000000
80000000
80000000
80000000
80000000
80000000
80000040
80000040
80000040
80000040
80000040
40000040
40000040
20000040
30000040
10000040
08000040
06000040
03000180
00E00600
001FF800
ENDCHAR
STARTCHAR 0048
ENCODING 72
SWIDTH 810 0
DWIDTH 36 0
BBX 24 31 6 0
BITMAP
800001
800001
800001
800001
800001
800001
800001
800001
800001
800001
800001
800001
800001
800001
800001
FFFFFF
800001
800001
800001
800001
800001
800001
800001
800001
800001
800001
800001
800001
800001
800001
800001
ENDCHAR
STARTCHAR 0049
ENCODING 73
SWIDTH 270 0
DWIDTH 12 0
BBX 1 31 6 0
BITMAP
80
80
80
80
80
80
80
80
80
80
80
80
80
80
80
80
80
80
80
80
80
80
80
80
80
80
80
80
80
80
80
ENDCHAR
STARTCHAR 004A
ENCODING 74
SWIDTH 472 0
DWIDTH 21 0
BBX 16 31 0 0
BITMAP
1FFF
0001
0001
0001
0001
0001
0001
0001
0001
0001
0001
0001
0001
0001
0001
0001
0001
0001
0001
0001
0001
0001
0001
0001
0002
0002
8002
4002
2004
1818
07F0
ENDCHAR
STARTCHAR 004B
ENCODING 75
SWIDTH 675 0
DWIDTH 30 0
BBX 24 31 6 0
BITMAP
800006
80000C
800018
800030
800060
8000C0
800180
800300
800600
800400
800800
801000
802000
804000
808000
814000
822000
841000
880800
900400
A00200
C00100
800180
800080
800040
800020
800010
800008
800004
800002
800003
ENDCHAR
STARTCHAR 004C
ENCODING 76
SWIDTH 562 0
DWIDTH 25 0
BBX 19 31 6 0
BITMAP
800000
800000
800000
800000
800000
800000
800000
800000
800000
800000
800000
800000
800000
800000
800000
800000
800000
800000
800000
800000
800000
800000
800000
800000
800000
800000
800000
800000
800000
800000
FFFFE0
ENDCHAR
STARTCHAR 004D
ENCODING 77
SWIDTH 945 0
DWIDTH 42 0
BBX 31 31 6 0
BITMAP
80000006
C0000006
C000000A
A000000A
A0000012
90000012
90000022
88000042
84000042
84000082
82000082
82000102
81000102
81000202
80800402
80400402
80400802
80200802
80201002
80101002
80102002
80084002
80044002
80048002
80028002
80030002
80010002
80000002
80000002
80000002
80000002
ENDCHAR
STARTCHAR 004E
ENCODING 78
SWIDTH 810 0
DWIDTH 36 0
BBX 24 31 6 0
BITMAP
800001
C00001
A00001
A00001
900001
880001
840001
860001
820001
810001
808001
80C001
804001
802001
801001
800801
800C01
800401
800201
800101
800181
800081
800041
800021
800011
800011
800009
800005
800003
800003
800001
ENDCHAR
STARTCHAR 004F
ENCODING 79
SWIDTH 832 0
DWIDTH 37 0
BBX 32 31 3 0
BITMAP
003FF800
00C00600
03000180
04000040
08000020
10000010
20000008
20000008
40000004
40000004
80000002
80000002
80000002
80000002
80000002
80000001
80000002
80000002
80000002
80000002
80000002
40000004
40000004
20000008
20000008
10000010
08000020
06000040
03000180
00E00600
001FF800
ENDCHAR
STARTCHAR 0050
ENCODING 80
SWIDTH 697 0
DWIDTH 31 0
BBX 23 31 6 0
BITMAP
FFFE00
8001C0
800020
800010
800008
800004
800004
800004
800002
800002
800002
800002
800004
800004
800004
800008
800018
800030
8000C0
FFFF00
800000
800000
800000
800000
800000
800000
800000
800000
800000
800000
800000
ENDCHAR
STARTCHAR 0051
ENCODING 81
SWIDTH 832 0
DWIDTH 37 0
BBX 33 37 3 -6
BITMAP
003FF80000
00C0060000
0300018000
0400004000
0800002000
1000001000
2000000800
2000000800
4000000400
4000000400
8000000200
8000000200
8000000200
8000000200
8000000200
8000000100
8000000200
8000000200
8000000200
8000000200
8000000200
4000000400
4000000400
2000000800
2000000800
1000001000
0800002000
0600004000
0300018000
00E0060000
001FF80000
0000C00000
0000200000
0000100180
00000C0300
0000031C00
000000A000
ENDCHAR
STARTCHAR 0052
ENCODING 82
SWIDTH 697 0
DWIDTH 31 0
BBX 23 31 6 0
BITMAP
FFFE00
8001C0
800020
800010
800008
800004
800004
800004
800002
800002
800002
800002
800004
800004
800004
800008
800018
800030
8000C0
FFFF00
800300
800100
800080
800040
800040
800020
800010
800018
800008
800004
800002
ENDCHAR
STARTCHAR 0053
ENCODING 83
SWIDTH 585 0
DWIDTH 26 0
BBX 21 31 3 0
BITMAP
03FF00
0C00C0
100030
200000
400000
400000
800000
800000
800000
400000
400000
600000
300000
0C0000
038000
007000
000F00
0000C0
000020
000010
000008
000008
000008
000008
000008
000008
800010
C00010
200020
1C00C0
03FF00
ENDCHAR
STARTCHAR 0054
ENCODING 84
SWIDTH 540 0
DWIDTH 24 0
BBX 24 31 0 0
BITMAP
FFFFFF
000800
000800
000800
000800
000800
000800
000800
000800
000800
000800
000800
000800
000800
000800
000800
000800
000800
000800
000800
000800
000800
000800
000800
000800
000800
000800
000800
000800
000800
000800
ENDCHAR
STARTCHAR 0055
ENCODING 85
SWIDTH 787 0
DWIDTH 35 0
BBX 24 31 6 0
BITMAP
800001
800001
800001
800001
800001
800001
800001
800001
800001
800001
800001
800001
800001
800001
800001
800001
800001
800001
800001
800001
800001
800002
800002
800002
400002
400004
20000C
300008
080030
0600C0
01FF00
ENDCHAR
STARTCHAR 0056
ENCODING 86
SWIDTH 652 0
DWIDTH 29 0
BBX 28 31 1 0
BITMAP
80000010
80000010
40000020
40000020
20000040
20000040
20000080
10000080
10000100
08000100
08000100
04000200
04000200
02000400
02000400
02000800
01000800
01001000
00801000
00803000
00402000
00402000
00204000
00204000
00108000
00108000
00110000
00090000
000A0000
00060000
00060000
ENDCHAR
STARTCHAR 0057
ENCODING 87
SWIDTH 1080 0
DWIDTH 48 0
BBX 44 31 2 0
BITMAP
800006000010
400006000020
400006000020
400009000020
200009000040
200011000040
200010800040
100010800080
100020800080
100020400080
080020400100
080040200100
080040200100
040040200200
040080100200
040080100200
020080100400
020100080400
020100080400
010100080800
010200040800
010200040800
008200041000
008400021000
008400021000
004800022000
004800012000
004800012000
003000014000
00300000C000
00300000C000
ENDCHAR
STARTCHAR 0058
ENCODING 88
SWIDTH 607 0
DWIDTH 27 0
BBX 25 31 1 0
BITMAP
60000100
20000200
10000200
08000400
0C000800
04001000
02001000
01002000
01804000
00808000
00408000
00210000
00320000
00140000
000C0000
000C0000
00160000
00220000
00210000
00408000
0080C000
01004000
01002000
02001000
04001800
08000800
18000400
10000200
20000300
40000100
C0000080
ENDCHAR
STARTCHAR 0059
ENCODING 89
SWIDTH 607 0
DWIDTH 27 0
BBX 25 31 1 0
BITMAP
80000080
80000080
40000100
20000200
20000200
10000400
08000400
08000800
04001000
04001000
02002000
01006000
01004000
00808000
00C08000
00410000
00220000
00220000
00140000
000C0000
00080000
00080000
00080000
00080000
00080000
00080000
00080000
00080000
00080000
00080000
00080000
ENDCHAR
STARTCHAR 005A
ENCODING 90
SWIDTH 630 0
DWIDTH 28 0
BBX 25 31 2 0
BITMAP
FFFFFF00
00000300
00000200
00000400
00000800
00001000
00001000
00002000
00004000
00008000
00018000
00010000
00020000
00040000
000C0000
00080000
00100000
00200000
00400000
00400000
00800000
01000000
02000000
06000000
04000000
08000000
10000000
30000000
20000000
40000000
FFFFFF80
ENDCHAR
STARTCHAR 005B
ENCODING 91
SWIDTH 270 0
DWIDTH 12 0
BBX 6 42 6 -9
BITMAP
FC
80
80
80
80
80
80
80
80
80
80
80
80
80
80
80
80
80
80
80
80
80
80
80
80
80
80
80
80
80
80
80
80
80
80
80
80
80
80
80
80
FC
ENDCHAR
STARTCHAR 005C
ENCODING 92
SWIDTH 292 0
DWIDTH 13 0
BBX 15 41 -1 -4
BITMAP
8000
8000
4000
4000
4000
2000
2000
2000
1000
1000
1000
0800
0800
0800
0400
0400
0400
0200
0200
0100
0100
0100
0080
0080
0080
0040
0040
0040
0020
0020
0020
0010
0010
0010
0008
0008
0008
0004
0004
0002
0002
ENDCHAR
STARTCHAR 005D
ENCODING 93
SWIDTH 270 0
DWIDTH 12 0
BBX 6 42 1 -9
BITMAP
FC
04
04
04
04
04
04
04
04
04
04
04
04
04
04
04
04
04
04
04
04
04
04
04
04
04
04
04
04
04
04
04
04
04
04
04
04
04
04
04
04
FC
ENDCHAR
STARTCHAR 005E
ENCODING 94
SWIDTH 540 0
DWIDTH 24 0
BBX 17 19 4 6
BITMAP
008000
018000
014000
014000
022000
022000
041000
041000
041000
080800
080800
100400
100400
200400
200200
200200
400100
400100
800080
ENDCHAR
STARTCHAR 005F
ENCODING 95
SWIDTH 495 0
DWIDTH 22 0
BBX 22 1 0 -1
BITMAP
FFFFFC
ENDCHAR
STARTCHAR 0060
ENCODING 96
SWIDTH 585 0
DWIDTH 26 0
BBX 7 5 8 27
BITMAP
C0
60
10
08
06
ENDCHAR
STARTCHAR 0061
ENCODING 97
SWIDTH 562 0
DWIDTH 25 0
BBX 18 23 3 0
BITMAP
07F800
180600
600100
400080
000080
000080
000040
000040
000040
000040
000040
1FFFC0
200040
400040
800040
800040
800040
8000C0
8000C0
400140
400240
300C40
0FF040
ENDCHAR
STARTCHAR 0062
ENCODING 98
SWIDTH 652 0
DWIDTH 29 0
BBX 22 33 5 0
BITMAP
800000
800000
800000
800000
800000
800000
800000
800000
800000
800000
80FE00
870180
880060
900030
A00010
A00008
C00008
C00004
800004
800004
800004
800004
800004
800004
800004
C00004
C00008
A00008
A00010
900030
880060
860180
81FE00
ENDCHAR
STARTCHAR 0063
ENCODING 99
SWIDTH 540 0
DWIDTH 24 0
BBX 20 23 2 0
BITMAP
00FE00
0301C0
0C0020
100010
300000
200000
400000
400000
400000
800000
800000
800000
800000
800000
400000
400000
400000
200000
300000
100010
0C0020
0300C0
00FF00
ENDCHAR
STARTCHAR 0064
ENCODING 100
SWIDTH 652 0
DWIDTH 29 0
BBX 23 33 2 0
BITMAP
000002
000002
000002
000002
000002
000002
000002
000002
000002
000002
00FE02
020182
0C0062
100012
30000A
20000A
400006
400006
400006
800002
800002
800002
800002
800002
400006
400006
400006
20000A
30000A
100012
0C0062
030082
00FF02
ENDCHAR
STARTCHAR 0065
ENCODING 101
SWIDTH 585 0
DWIDTH 26 0
BBX 22 23 2 0
BITMAP
01FE00
060180
080040
100020
200010
200010
400008
400008
400008
800004
800004
FFFFF8
800000
800000
400000
400000
400000
200000
300000
180010
0C0020
0300C0
00FF00
ENDCHAR
STARTCHAR 0066
ENCODING 102
SWIDTH 292 0
DWIDTH 13 0
BBX 14 33 1 0
BITMAP
01F8
0204
0400
0400
0800
0800
0800
0800
0800
0800
FFF8
0800
0800
0800
0800
0800
0800
0800
0800
0800
0800
0800
0800
0800
0800
0800
0800
0800
0800
0800
0800
0800
0800
ENDCHAR
STARTCHAR 0067
ENCODING 103
SWIDTH 675 0
DWIDTH 30 0
BBX 23 32 2 -9
BITMAP
00FF02
0200C2
0C0022
100012
20000A
200006
400006
400002
400002
800002
800002
800002
800002
400002
400002
400006
200006
20000A
100012
080022
0600C2
01FF02
000002
000002
000002
000004
000004
000004
100008
0C0030
0380E0
007F00
ENDCHAR
STARTCHAR 0068
ENCODING 104
SWIDTH 652 0
DWIDTH 29 0
BBX 20 33 5 0
BITMAP
800000
800000
800000
800000
800000
800000
800000
800000
800000
800000
81FC00
860300
9800C0
B00040
A00020
C00020
C00010
800010
800010
800010
800010
800010
800010
800010
800010
800010
800010
800010
800010
800010
800010
800010
800010
ENDCHAR
STARTCHAR 0069
ENCODING 105
SWIDTH 247 0
DWIDTH 11 0
BBX 3 32 4 0
BITMAP
40
E0
40
00
00
00
00
00
00
40
40
40
40
40
40
40
40
40
40
40
40
40
40
40
40
40
40
40
40
40
40
40
ENDCHAR
STARTCHAR 006A
ENCODING 106
SWIDTH 247 0
DWIDTH 11 0
BBX 10 41 -3 -9
BITMAP
0080
00C0
0080
0000
0000
0000
0000
0000
0000
0080
0080
0080
0080
0080
0080
0080
0080
0080
0080
0080
0080
0080
0080
0080
0080
0080
0080
0080
0080
0080
0080
0080
0080
0080
0080
0080
0080
0080
0100
8300
7800
ENDCHAR
STARTCHAR 006B
ENCODING 107
SWIDTH 562 0
DWIDTH 25 0
BBX 19 33 5 0
BITMAP
800000
800000
800000
800000
800000
800000
800000
800000
800000
800000
800040
800080
800300
800600
800C00
801800
802000
804000
808000
818000
82C000
844000
882000
B01000
E00800
800C00
800400
800200
800100
800080
8000C0
800040
800020
ENDCHAR
STARTCHAR 006C
ENCODING 108
SWIDTH 247 0
DWIDTH 11 0
BBX 1 33 5 0
BITMAP
80
80
80
80
80
80
80
80
80
80
80
80
80
80
80
80
80
80
80
80
80
80
80
80
80
80
80
80
80
80
80
80
80
ENDCHAR
STARTCHAR 006D
ENCODING 109
SWIDTH 1057 0
DWIDTH 47 0
BBX 38 23 5 0
BITMAP
81FC007F00
86030180C0
9800820020
A000440010
A000480008
C000300008
C000300008
8000300008
8000200004
8000200004
8000200004
8000200004
8000200004
8000200004
8000200004
8000200004
8000200004
8000200004
8000200004
8000200004
8000200004
8000200004
8000200004
ENDCHAR
STARTCHAR 006E
ENCODING 110
SWIDTH 652 0
DWIDTH 29 0
BBX 20 23 5 0
BITMAP
81FC00
860300
9800C0
B00040
A00020
C00020
C00010
800010
800010
800010
800010
800010
800010
800010
800010
800010
800010
800010
800010
800010
800010
800010
800010
ENDCHAR
STARTCHAR 006F
ENCODING 111
SWIDTH 607 0
DWIDTH 27 0
BBX 23 23 2 0
BITMAP
00FE00
020180
0C0060
100010
300008
200008
400004
400004
400004
800002
800002
800002
800002
800002
400004
400004
400004
200008
300008
100010
0C0060
0300C0
00FF00
ENDCHAR
STARTCHAR 0070
ENCODING 112
SWIDTH 652 0
DWIDTH 29 0
BBX 22 32 5 -9
BITMAP
80FE00
870180
880060
900030
A00010
A00008
C00008
C00004
800004
800004
800004
800004
800004
800004
800004
C00004
C00008
A00008
A00010
900030
880060
860180
81FE00
800000
800000
800000
800000
800000
800000
800000
800000
800000
ENDCHAR
STARTCHAR 0071
ENCODING 113
SWIDTH 652 0
DWIDTH 29 0
BBX 23 32 2 -9
BITMAP
00FE02
030182
0C0062
180012
300012
20000A
400006
400006
400006
800002
800002
800002
800002
800002
400006
400006
400006
20000A
30000A
100012
0C0062
020082
01FF02
000002
000002
000002
000002
000002
000002
000002
000002
000002
ENDCHAR
STARTCHAR 0072
ENCODING 114
SWIDTH 382 0
DWIDTH 17 0
BBX 10 23 5 0
BITMAP
83C0
8C00
9000
A000
A000
C000
C000
8000
8000
8000
8000
8000
8000
8000
8000
8000
8000
8000
8000
8000
8000
8000
8000
ENDCHAR
STARTCHAR 0073
ENCODING 115
SWIDTH 450 0
DWIDTH 20 0
BBX 17 23 2 0
BITMAP
0FF800
300600
600100
400000
800000
800000
800000
400000
400000
200000
1C0000
03E000
001C00
000200
000100
000080
000080
000080
000080
000100
C00100
700600
0FF800
ENDCHAR
STARTCHAR 0074
ENCODING 116
SWIDTH 382 0
DWIDTH 17 0
BBX 15 28 1 0
BITMAP
0800
0800
0800
0800
0800
FFF8
0800
0800
0800
0800
0800
0800
0800
0800
0800
0800
0800
0800
0800
0800
0800
0800
0800
0800
0400
0400
0206
01F8
ENDCHAR
STARTCHAR 0075
ENCODING 117
SWIDTH 652 0
DWIDTH 29 0
BBX 19 23 5 0
BITMAP
800020
800020
800020
800020
800020
800020
800020
800020
800020
800020
800020
800020
800020
800020
800020
800020
800020
800060
400060
4000A0
200120
180620
07F820
ENDCHAR
STARTCHAR 0076
ENCODING 118
SWIDTH 495 0
DWIDTH 22 0
BBX 22 23 0 0
BITMAP
C00004
400004
400008
200008
200010
100010
100020
080020
080040
040040
0400C0
020080
020080
020100
010100
010200
008200
008400
004400
004800
002800
003000
001000
ENDCHAR
STARTCHAR 0077
ENCODING 119
SWIDTH 832 0
DWIDTH 37 0
BBX 36 23 1 0
BITMAP
8000400010
8000600020
8000A00020
4000A00040
4001100040
6001100040
2001080080
2002080080
1002080100
1004040100
1004040100
0804040200
0808020200
0408020200
0410010400
0410010400
0210010800
0220008800
0220008800
0140005000
0140005000
00C0006000
0080002000
ENDCHAR
STARTCHAR 0078
ENCODING 120
SWIDTH 495 0
DWIDTH 22 0
BBX 18 23 2 0
BITMAP
800040
400080
200100
300300
100200
080400
040800
021000
031000
012000
00C000
00C000
012000
012000
021000
040800
080400
080600
100200
200100
400080
C00040
800040
ENDCHAR
STARTCHAR 0079
ENCODING 121
SWIDTH 495 0
DWIDTH 22 0
BBX 23 32 -1 -9
BITMAP
600002
200002
200004
100004
100008
080008
080010
040010
040020
020020
020060
010040
010040
010080
008080
008100
004100
004200
002200
002400
001400
001800
000800
000800
001000
001000
002000
002000
004000
808000
C10000
3E0000
ENDCHAR
STARTCHAR 007A
ENCODING 122
SWIDTH 472 0
DWIDTH 21 0
BBX 18 23 2 0
BITMAP
FFFF80
000080
000100
000200
000600
000400
000800
001000
003000
002000
004000
008000
018000
010000
020000
040000
0C0000
080000
100000
200000
600000
400000
FFFFC0
ENDCHAR
STARTCHAR 007B
ENCODING 123
SWIDTH 292 0
DWIDTH 13 0
BBX 9 42 3 -9
BITMAP
0380
0C00
0800
1000
1000
1000
1000
1000
1000
1000
1000
1000
1000
1000
1000
1000
1000
1000
1000
1000
E000
1000
1000
1000
1000
1000
1000
1000
1000
1000
1000
1000
1000
1000
1000
1000
1000
1000
1000
0800
0400
0380
ENDCHAR
STARTCHAR 007C
ENCODING 124
SWIDTH 270 0
DWIDTH 12 0
BBX 1 42 6 -9
BITMAP
80
80
80
80
80
80
80
80
80
80
80
80
80
80
80
80
80
80
80
80
80
80
80
80
80
80
80
80
80
80
80
80
80
80
80
80
80
80
80
80
80
80
ENDCHAR
STARTCHAR 007D
ENCODING 125
SWIDTH 292 0
DWIDTH 13 0
BBX 9 42 1 -9
BITMAP
F000
0800
0400
0400
0400
0400
0400
0400
0400
0400
0400
0400
0400
0400
0400
0400
0400
0400
0400
0400
0380
0200
0400
0400
0400
0400
0400
0400
0400
0400
0400
0400
0400
0400
0400
0400
0400
0400
0400
0800
1800
C000
ENDCHAR
STARTCHAR 007E
ENCODING 126
SWIDTH 540 0
DWIDTH 24 0
BBX 19 5 3 13
BITMAP
3F0020
408020
804040
802040
801F80
ENDCHAR
STARTCHAR 00A0
ENCODING 160
SWIDTH 247 0
DWIDTH 11 0
BBX 0 0 0 0
BITMAP
ENDCHAR
STARTCHAR 00A1
ENCODING 161
SWIDTH 225 0
DWIDTH 10 0
BBX 2 30 4 -7
BITMAP
C0
C0
00
00
00
00
00
00
40
40
40
40
40
40
40
40
40
40
40
40
40
40
40
40
40
40
40
40
40
40
ENDCHAR
STARTCHAR 00A2
ENCODING 162
SWIDTH 540 0
DWIDTH 24 0
BBX 20 33 2 -5
BITMAP
001000
001000
001000
001000
001000
00FE00
0311C0
0C1020
101010
301000
201000
401000
401000
401000
801000
801000
801000
801000
801000
401000
401000
401000
201000
301000
101010
0C1020
0310C0
00FF00
001000
001000
001000
001000
001000
ENDCHAR
STARTCHAR 00A3
ENCODING 163
SWIDTH 607 0
DWIDTH 27 0
BBX 26 31 1 0
BITMAP
000FFC00
00300300
00C000C0
01800000
01000000
02000000
02000000
02000000
02000000
02000000
02000000
02000000
02000000
02000000
02000000
FFFFF000
02000000
02000000
02000000
02000000
02000000
02000000
02000000
02000000
02000000
02000000
02000000
02000000
02000000
02000000
FFFFFF80
ENDCHAR
STARTCHAR 00A4
ENCODING 164
SWIDTH 697 0
DWIDTH 31 0
BBX 27 28 2 0
BITMAP
80000020
40000060
207FC0C0
11803180
0A000B00
04000600
08000200
10000100
20000080
20000080
20000040
40000040
40000040
40000040
40000040
40000040
40000040
20000040
20000080
10000080
10000100
08000200
0C000600
1B000900
30C07080
603F8040
C0000020
80000000
ENDCHAR
STARTCHAR 00A5
ENCODING 165
SWIDTH 652 0
DWIDTH 29 0
BBX 28 31 1 0
BITMAP
80000010
40000020
60000040
200000C0
10000080
08000100
04000200
04000400
02000400
01000800
00801000
00C02000
00406000
00204000
00108000
00090000
000A0000
1FFFFF80
00040000
00040000
00040000
00040000
00040000
1FFFFF80
00040000
00040000
00040000
00040000
00040000
00040000
00040000
ENDCHAR
STARTCHAR 00A6
ENCODING 166
SWIDTH 270 0
DWIDTH 12 0
BBX 1 42 6 -9
BITMAP
80
80
80
80
80
80
80
80
80
80
80
80
80
80
80
80
00
00
00
00
00
00
00
00
00
00
80
80
80
80
80
80
80
80
80
80
80
80
80
80
80
80
ENDCHAR
STARTCHAR 00A7
ENCODING 167
SWIDTH 450 0
DWIDTH 20 0
BBX 18 36 1 -5
BITMAP
03FE00
0C0180
100040
100000
200000
200000
200000
200000
100000
180000
0C0000
078000
187800
200600
400180
400080
400040
400040
400040
200040
200040
180080
070100
00F600
000C00
000300
000100
000080
000080
000080
000080
000080
C00100
300200
0E1C00
00C000
ENDCHAR
STARTCHAR 00A8
ENCODING 168
SWIDTH 585 0
DWIDTH 26 0
BBX 9 2 9 28
BITMAP
8180
C180
ENDCHAR
STARTCHAR 00A9
ENCODING 169
SWIDTH 810 0
DWIDTH 36 0
BBX 31 31 3 0
BITMAP
003FF000
00C00E00
03000100
040000C0
08000020
10000030
2007E010
20181808
40600C04
40C00404
80800004
81000002
81000002
81000002
82000002
82000002
82000002
81000002
81000002
81000004
80800004
40C00404
40600C08
20183008
2007C010
10000020
08000060
04000080
03000300
00C00C00
003FF000
ENDCHAR
STARTCHAR 00AA
ENCODING 170
SWIDTH 382 0
DWIDTH 17 0
BBX 12 14 2 19
BITMAP
1F80
6060
0020
0010
0010
0010
1FF0
6010
8010
8010
8010
8030
60D0
1F10
ENDCHAR
STARTCHAR 00AB
ENCODING 171
SWIDTH 405 0
DWIDTH 18 0
BBX 14 17 3 3
BITMAP
0204
0408
0810
0820
1040
2040
4080
8100
8200
8100
4080
2040
1040
0820
0810
0408
0204
ENDCHAR
STARTCHAR 00AC
ENCODING 172
SWIDTH 540 0
DWIDTH 24 0
BBX 19 9 3 7
BITMAP
FFFFE0
000020
000020
000020
000020
000020
000020
000020
000020
ENDCHAR
STARTCHAR 00AD
ENCODING 173
SWIDTH 360 0
DWIDTH 16 0
BBX 11 1 3 11
BITMAP
FFE0
ENDCHAR
STARTCHAR 00AE
ENCODING 174
SWIDTH 810 0
DWIDTH 36 0
BBX 31 31 3 0
BITMAP
003FF000
00C00E00
03000100
040000C0
08000020
10000030
203FC010
20401808
40400404
40400404
80400204
80400202
80400202
80400202
80400202
80400402
80400802
803FF002
80402002
80401004
80401004
40400804
40400408
20400408
20000210
10000020
08000060
04000080
03000300
00C00C00
003FF000
ENDCHAR
STARTCHAR 00AF
ENCODING 175
SWIDTH 585 0
DWIDTH 26 0
BBX 12 1 7 29
BITMAP
FFF0
ENDCHAR
STARTCHAR 00B0
ENCODING 176
SWIDTH 405 0
DWIDTH 18 0
BBX 13 13 3 18
BITMAP
1F80
2060
4010
8010
8008
8008
8008
8008
8008
8010
4030
2060
1F80
ENDCHAR
STARTCHAR 00B1
ENCODING 177
SWIDTH 540 0
DWIDTH 24 0
BBX 19 24 3 0
BITMAP
004000
004000
004000
004000
004000
004000
004000
004000
FFFFE0
004000
004000
004000
004000
004000
004000
004000
004000
000000
000000
000000
000000
000000
000000
FFFFE0
ENDCHAR
STARTCHAR 00B2
ENCODING 178
SWIDTH 427 0
DWIDTH 19 0
BBX 14 18 2 15
BITMAP
1FC0
6030
8008
0008
0008
0008
0008
0010
0010
0020
0040
0180
0200
0400
0800
1000
2000
7FFC
ENDCHAR
STARTCHAR 00B3
ENCODING 179
SWIDTH 427 0
DWIDTH 19 0
BBX 14 19 2 14
BITMAP
FFF8
0008
0010
0020
0040
0080
0100
0200
03C0
0030
0008
0004
0004
0004
0004
0004
C008
3070
0B80
ENDCHAR
STARTCHAR 00B4
ENCODING 180
SWIDTH 585 0
DWIDTH 26 0
BBX 7 5 12 27
BITMAP
06
08
10
60
80
ENDCHAR
STARTCHAR 00B5
ENCODING 181
SWIDTH 652 0
DWIDTH 29 0
BBX 20 32 5 -9
BITMAP
800010
800010
800010
800010
800010
800010
800010
800010
800010
800010
800010
800010
800010
800010
800010
800030
800030
C00030
C00050
A00090
B00190
880210
87FC10
800000
800000
800000
800000
800000
800000
800000
800000
800000
ENDCHAR
STARTCHAR 00B6
ENCODING 182
SWIDTH 585 0
DWIDTH 26 0
BBX 20 37 1 -4
BITMAP
07FFF0
1FC010
3FC010
7FC010
7FC010
FFC010
FFC010
FFC010
FFC010
FFC010
7FC010
3FC010
1FC010
0FC010
004010
004010
004010
004010
004010
004010
004010
004010
004010
004010
004010
004010
004010
004010
004010
004010
004010
004010
004010
004010
004010
004010
004010
ENDCHAR
STARTCHAR 00B7
ENCODING 183
SWIDTH 202 0
DWIDTH 9 0
BBX 2 2 4 11
BITMAP
C0
C0
ENDCHAR
STARTCHAR 00B8
ENCODING 184
SWIDTH 585 0
DWIDTH 26 0
BBX 7 9 10 -9
BITMAP
10
20
20
1C
04
02
02
04
FC
ENDCHAR
STARTCHAR 00B9
ENCODING 185
SWIDTH 427 0
DWIDTH 19 0
BBX 12 18 4 15
BITMAP
FE00
0200
0200
0200
0200
0200
0200
0200
0200
0200
0200
0200
0200
0200
0200
0200
0200
FFF0
ENDCHAR
STARTCHAR 00BA
ENCODING 186
SWIDTH 405 0
DWIDTH 18 0
BBX 14 14 2 19
BITMAP
0FC0
3030
4008
4008
8004
8004
8004
8004
8004
8004
4008
6018
1020
0FC0
ENDCHAR
STARTCHAR 00BB
ENCODING 187
SWIDTH 405 0
DWIDTH 18 0
BBX 14 17 2 3
BITMAP
8100
4080
2080
1040
1020
0810
0408
0208
0304
0208
0408
0810
1020
1040
2080
4080
8100
ENDCHAR
STARTCHAR 00BC
ENCODING 188
SWIDTH 1012 0
DWIDTH 45 0
BBX 40 31 4 0
BITMAP
FE00000800
0200000800
0200001000
0200002000
0200002000
0200004000
0200008000
0200008000
0200010000
0200020000
0200020000
0200040000
0200080000
0200100040
0200100080
0200200100
0200400200
0200400200
FDF0800400
0001000800
0001001020
0002001020
0004002020
0004004020
0008008020
001000FFFF
0010000020
0020000020
0040000020
0040000020
0080000020
ENDCHAR
STARTCHAR 00BD
ENCODING 189
SWIDTH 1012 0
DWIDTH 45 0
BBX 39 31 4 0
BITMAP
FE00000800
0200000800
0200001000
0200002000
0200002000
0200004000
0200008000
0200008000
0200010000
0200020000
0200020000
0200040000
0200080200
0200103CE0
020010C018
0200200008
0200400008
0200400004
FDF0800008
0001000008
0001000010
0002000020
0004000040
0004000080
0008000100
0010000200
0010000400
0020000800
0040001000
0040002000
0080007FFE
ENDCHAR
STARTCHAR 00BE
ENCODING 190
SWIDTH 1012 0
DWIDTH 45 0
BBX 42 31 2 0
BITMAP
FFF800020000
001000020000
001000040000
002000080000
004000080000
008000100000
010000200000
020000200000
03C000400000
003000800000
000800800000
000401000000
000402000000
000404001000
000404002000
800808004000
C00810008000
3CF010008000
030020010000
000040020000
000040040800
000080040800
000100080800
000100100800
000200200800
0004003FFFC0
000400000800
000800000800
001000000800
001000000800
002000000800
ENDCHAR
STARTCHAR 00BF
ENCODING 191
SWIDTH 540 0
DWIDTH 24 0
BBX 19 30 4 -7
BITMAP
00C000
00C000
000000
000000
000000
000000
000000
000000
004000
008000
008000
008000
010000
030000
060000
0C0000
100000
200000
400000
400000
800000
800000
800000
800000
800000
800000
400020
2000C0
180300
07FC00
ENDCHAR
STARTCHAR 00C0
ENCODING 192
SWIDTH 675 0
DWIDTH 30 0
BBX 29 39 1 0
BITMAP
00C00000
00200000
00180000
000C0000
00020000
00010000
00000000
00000000
00020000
00060000
00050000
00090000
00088000
00108000
00104000
00204000
00202000
00402000
00401000
00801000
00800800
00800800
01000400
01000400
02000400
02000200
04000200
04000100
08000100
0FFFFF80
10000080
10000040
20000040
20000020
40000020
40000010
40000010
80000010
80000008
ENDCHAR
STARTCHAR 00C1
ENCODING 193
SWIDTH 675 0
DWIDTH 30 0
BBX 29 39 1 0
BITMAP
00003000
00006000
0000C000
00010000
00060000
00000000
00000000
00000000
00020000
00060000
00050000
00090000
00088000
00108000
00104000
00204000
00202000
00402000
00401000
00801000
00800800
00800800
01000400
01000400
02000400
02000200
04000200
04000100
08000100
0FFFFF80
10000080
10000040
20000040
20000020
40000020
40000010
40000010
80000010
80000008
ENDCHAR
STARTCHAR 00C2
ENCODING 194
SWIDTH 675 0
DWIDTH 30 0
BBX 29 39 1 0
BITMAP
00020000
000D0000
00188000
00304000
00402000
00001000
00000000
00000000
00020000
00060000
00050000
00090000
00088000
00108000
00104000
00204000
00202000
00402000
00401000
00801000
00800800
00800800
01000400
01000400
02000400
02000200
04000200
04000100
08000100
0FFFFF80
10000080
10000040
20000040
20000020
40000020
40000010
40000010
80000010
80000008
ENDCHAR
STARTCHAR 00C3
ENCODING 195
SWIDTH 675 0
DWIDTH 30 0
BBX 29 38 1 0
BITMAP
00381000
00461000
00833000
0080C000
00000000
00000000
00000000
00020000
00060000
00050000
00090000
00088000
00108000
00104000
00204000
00202000
00402000
00401000
00801000
00800800
00800800
01000400
01000400
02000400
02000200
04000200
04000100
08000100
0FFFFF80
10000080
10000040
20000040
20000020
40000020
40000010
40000010
80000010
80000008
ENDCHAR
STARTCHAR 00C4
ENCODING 196
SWIDTH 675 0
DWIDTH 30 0
BBX 29 37 1 0
BITMAP
00306000
00206000
00000000
00000000
00000000
00000000
00020000
00060000
00050000
00090000
00088000
00108000
00104000
00204000
00202000
00402000
00401000
00801000
00800800
00800800
01000400
01000400
02000400
02000200
04000200
04000100
08000100
0FFFFF80
10000080
10000040
20000040
20000020
40000020
40000010
40000010
80000010
80000008
ENDCHAR
STARTCHAR 00C5
ENCODING 197
SWIDTH 675 0
DWIDTH 30 0
BBX 29 43 1 0
BITMAP
00070000
00188000
00104000
00204000
00204000
00204000
00104000
000F8000
00000000
00000000
00000000
00000000
00020000
00060000
00050000
00090000
00088000
00108000
00104000
00204000
00202000
00402000
00401000
00801000
00800800
00800800
01000400
01000400
02000400
02000200
04000200
04000100
08000100
0FFFFF80
10000080
10000040
20000040
20000020
40000020
40000010
40000010
80000010
80000008
ENDCHAR
STARTCHAR 00C6
ENCODING 198
SWIDTH 990 0
DWIDTH 44 0
BBX 41 31 1 0
BITMAP
00001FFFFF00
000028000000
000068000000
000048000000
000088000000
000088000000
000108000000
000208000000
000208000000
000408000000
000808000000
000808000000
001008000000
001008000000
002008000000
00400FFFFC00
004008000000
008008000000
010008000000
010008000000
020008000000
07FFF8000000
040008000000
080008000000
080008000000
100008000000
200008000000
200008000000
400008000000
800008000000
80000FFFFF80
ENDCHAR
STARTCHAR 00C7
ENCODING 199
SWIDTH 697 0
DWIDTH 31 0
BBX 26 40 3 -9
BITMAP
003FF800
00C00600
03000180
04000040
08000000
10000000
20000000
20000000
40000000
40000000
80000000
80000000
80000000
80000000
80000000
80000000
80000000
80000000
80000000
80000000
80000000
40000000
40000000
20000000
20000000
10000000
08000000
060000C0
03000180
00E00600
001FF800
00020000
00020000
00020000
00018000
00004000
00004000
00004000
00004000
001F8000
ENDCHAR
STARTCHAR 00C8
ENCODING 200
SWIDTH 652 0
DWIDTH 29 0
BBX 21 39 6 0
BITMAP
0C0000
060000
010000
00C000
006000
000000
000000
000000
FFFFF0
800000
800000
800000
800000
800000
800000
800000
800000
800000
800000
800000
800000
800000
800000
FFFFC0
800000
800000
800000
800000
800000
800000
800000
800000
800000
800000
800000
800000
800000
800000
FFFFF8
ENDCHAR
STARTCHAR 00C9
ENCODING 201
SWIDTH 652 0
DWIDTH 29 0
BBX 21 39 6 0
BITMAP
000300
000600
000800
003000
004000
000000
000000
000000
FFFFF0
800000
800000
800000
800000
800000
800000
800000
800000
800000
800000
800000
800000
800000
800000
FFFFC0
800000
800000
800000
800000
800000
800000
800000
800000
800000
800000
800000
800000
800000
800000
FFFFF8
ENDCHAR
STARTCHAR 00CA
ENCODING 202
SWIDTH 652 0
DWIDTH 29 0
BBX 21 39 6 0
BITMAP
006000
00F000
010800
020400
040200
080100
000000
000000
FFFFF0
800000
800000
800000
800000
800000
800000
800000
800000
800000
800000
800000
800000
800000
800000
FFFFC0
800000
800000
800000
800000
800000
800000
800000
800000
800000
800000
800000
800000
800000
800000
FFFFF8
ENDCHAR
STARTCHAR 00CB
ENCODING 203
SWIDTH 652 0
DWIDTH 29 0
BBX 21 37 6 0
BITMAP
060E00
020400
000000
000000
000000
000000
FFFFF0
800000
800000
800000
800000
800000
800000
800000
800000
800000
800000
800000
800000
800000
800000
FFFFC0
800000
800000
800000
800000
800000
800000
800000
800000
800000
800000
800000
800000
800000
800000
FFFFF8
ENDCHAR
STARTCHAR 00CC
ENCODING 204
SWIDTH 270 0
DWIDTH 12 0
BBX 8 39 0 0
BITMAP
C0
20
18
0C
02
01
00
00
02
02
02
02
02
02
02
02
02
02
02
02
02
02
02
02
02
02
02
02
02
02
02
02
02
02
02
02
02
02
02
ENDCHAR
STARTCHAR 00CD
ENCODING 205
SWIDTH 270 0
DWIDTH 12 0
BBX 7 39 5 0
BITMAP
02
0C
18
20
C0
00
00
00
40
40
40
40
40
40
40
40
40
40
40
40
40
40
40
40
40
40
40
40
40
40
40
40
40
40
40
40
40
40
40
ENDCHAR
STARTCHAR 00CE
ENCODING 206
SWIDTH 270 0
DWIDTH 12 0
BBX 11 39 1 0
BITMAP
0400
1A00
3100
6080
8060
0000
0000
0000
0400
0400
0400
0400
0400
0400
0400
0400
0400
0400
0400
0400
0400
0400
0400
0400
0400
0400
0400
0400
0400
0400
0400
0400
0400
0400
0400
0400
0400
0400
0400
ENDCHAR
STARTCHAR 00CF
ENCODING 207
SWIDTH 270 0
DWIDTH 12 0
BBX 9 37 2 0
BITMAP
C180
8180
0000
0000
0000
0000
0800
0800
0800
0800
0800
0800
0800
0800
0800
0800
0800
0800
0800
0800
0800
0800
0800
0800
0800
0800
0800
0800
0800
0800
0800
0800
0800
0800
0800
0800
0800
ENDCHAR
STARTCHAR 00D0
ENCODING 208
SWIDTH 810 0
DWIDTH 36 0
BBX 33 31 1 0
BITMAP
07FFFC0000
0400030000
040000C000
0400003000
0400001800
0400000400
0400000400
0400000200
0400000100
0400000100
0400000100
0400000080
0400000080
0400000080
0400000080
FFFF000080
0400000080
0400000080
0400000080
0400000080
0400000100
0400000100
0400000100
0400000200
0400000400
0400000C00
0400001800
0400003000
040000C000
0400030000
07FFFC0000
ENDCHAR
STARTCHAR 00D1
ENCODING 209
SWIDTH 810 0
DWIDTH 36 0
BBX 24 38 6 0
BITMAP
01E040
011040
020C80
020700
000000
000000
000000
800001
C00001
A00001
A00001
900001
880001
840001
860001
820001
810001
808001
80C001
804001
802001
801001
800801
800C01
800401
800201
800101
800181
800081
800041
800021
800011
800011
800009
800005
800003
800003
800001
ENDCHAR
STARTCHAR 00D2
ENCODING 210
SWIDTH 832 0
DWIDTH 37 0
BBX 32 39 3 0
BITMAP
00200000
00180000
000C0000
00020000
00018000
00000000
00000000
00000000
003FF800
00C00600
03000180
04000040
08000020
10000010
20000008
20000008
40000004
40000004
80000002
80000002
80000002
80000002
80000002
80000001
80000002
80000002
80000002
80000002
80000002
40000004
40000004
20000008
20000008
10000010
08000020
06000040
03000180
00E00600
001FF800
ENDCHAR
STARTCHAR 00D3
ENCODING 211
SWIDTH 832 0
DWIDTH 37 0
BBX 32 39 3 0
BITMAP
00000C00
00003000
00006000
00008000
00010000
00020000
00000000
00000000
003FF800
00C00600
03000180
04000040
08000020
10000010
20000008
20000008
40000004
40000004
80000002
80000002
80000002
80000002
80000002
80000001
80000002
80000002
80000002
80000002
80000002
40000004
40000004
20000008
20000008
10000010
08000020
06000040
03000180
00E00600
001FF800
ENDCHAR
STARTCHAR 00D4
ENCODING 212
SWIDTH 832 0
DWIDTH 37 0
BBX 32 39 3 0
BITMAP
00010000
00028000
00046000
00183000
00301800
00000000
00000000
00000000
003FF800
00C00600
03000180
04000040
08000020
10000010
20000008
20000008
40000004
40000004
80000002
80000002
80000002
80000002
80000002
80000001
80000002
80000002
80000002
80000002
80000002
40000004
40000004
20000008
20000008
10000010
08000020
06000040
03000180
00E00600
001FF800
ENDCHAR
STARTCHAR 00D5
ENCODING 213
SWIDTH 832 0
DWIDTH 37 0
BBX 32 38 3 0
BITMAP
001E0400
00230800
00208800
00007000
00000000
00000000
00000000
003FF800
00C00600
03000180
04000040
08000020
10000010
20000008
20000008
40000004
40000004
80000002
80000002
80000002
80000002
80000002
80000001
80000002
80000002
80000002
80000002
80000002
40000004
40000004
20000008
20000008
10000010
08000020
06000040
03000180
00E00600
001FF800
ENDCHAR
STARTCHAR 00D6
ENCODING 214
SWIDTH 832 0
DWIDTH 37 0
BBX 32 37 3 0
BITMAP
00183000
00183000
00000000
00000000
00000000
00000000
003FF800
00C00600
03000180
04000040
08000020
10000010
20000008
20000008
40000004
40000004
80000002
80000002
80000002
80000002
80000002
80000001
80000002
80000002
80000002
80000002
80000002
40000004
40000004
20000008
20000008
10000010
08000020
06000040
03000180
00E00600
001FF800
ENDCHAR
STARTCHAR 00D7
ENCODING 215
SWIDTH 540 0
DWIDTH 24 0
BBX 13 13 6 9
BITMAP
8008
4010
2020
1040
0880
0500
0200
0500
0880
1040
2020
4010
8008
ENDCHAR
STARTCHAR 00D8
ENCODING 216
SWIDTH 832 0
DWIDTH 37 0
BBX 32 37 3 -3
BITMAP
00000008
00000018
00000010
003FF820
00C00640
030001C0
040000C0
08000120
10000210
20000208
20000408
40000804
40001004
80001002
80002002
80004002
8000C002
80008002
80010001
80020002
80020002
80040002
80080002
80100002
40100004
40200004
20400008
20800008
10800010
09000020
06000040
03000180
04E00600
081FF800
10000000
10000000
20000000
ENDCHAR
STARTCHAR 00D9
ENCODING 217
SWIDTH 787 0
DWIDTH 35 0
BBX 24 39 6 0
BITMAP
020000
018000
00C000
002000
001800
000000
000000
000000
800001
800001
800001
800001
800001
800001
800001
800001
800001
800001
800001
800001
800001
800001
800001
800001
800001
800001
800001
800001
800001
800002
800002
800002
400002
400004
20000C
300008
080030
0600C0
01FF00
ENDCHAR
STARTCHAR 00DA
ENCODING 218
SWIDTH 787 0
DWIDTH 35 0
BBX 24 39 6 0
BITMAP
0000C0
000100
000600
000C00
001000
002000
000000
000000
800001
800001
800001
800001
800001
800001
800001
800001
800001
800001
800001
800001
800001
800001
800001
800001
800001
800001
800001
800001
800001
800002
800002
800002
400002
400004
20000C
300008
080030
0600C0
01FF00
ENDCHAR
STARTCHAR 00DB
ENCODING 219
SWIDTH 787 0
DWIDTH 35 0
BBX 24 39 6 0
BITMAP
001000
002800
004600
008300
030080
000000
000000
000000
800001
800001
800001
800001
800001
800001
800001
800001
800001
800001
800001
800001
800001
800001
800001
800001
800001
800001
800001
800001
800001
800002
800002
800002
400002
400004
20000C
300008
080030
0600C0
01FF00
ENDCHAR
STARTCHAR 00DC
ENCODING 220
SWIDTH 787 0
DWIDTH 35 0
BBX 24 37 6 0
BITMAP
018300
018300
000000
000000
000000
000000
800001
800001
800001
800001
800001
800001
800001
800001
800001
800001
800001
800001
800001
800001
800001
800001
800001
800001
800001
800001
800001
800002
800002
800002
400002
400004
20000C
300008
080030
0600C0
01FF00
ENDCHAR
STARTCHAR 00DD
ENCODING 221
SWIDTH 607 0
DWIDTH 27 0
BBX 25 39 1 0
BITMAP
00006000
00018000
00030000
00040000
00080000
00100000
00000000
00000000
80000080
80000080
40000100
20000200
20000200
10000400
08000400
08000800
04001000
04001000
02002000
01006000
01004000
00808000
00C08000
00410000
00220000
00220000
00140000
000C0000
00080000
00080000
00080000
00080000
00080000
00080000
00080000
00080000
00080000
00080000
00080000
ENDCHAR
STARTCHAR 00DE
ENCODING 222
SWIDTH 697 0
DWIDTH 31 0
BBX 23 31 6 0
BITMAP
800000
800000
800000
800000
FFF000
800780
800060
800010
800008
800008
800004
800004
800004
800002
800002
800002
800002
800004
800004
800004
800008
800010
800060
800180
FFFE00
800000
800000
800000
800000
800000
800000
ENDCHAR
STARTCHAR 00DF
ENCODING 223
SWIDTH 630 0
DWIDTH 28 0
BBX 22 33 5 0
BITMAP
03FC00
0C0300
100080
200040
400040
400020
400020
800020
800020
800020
800020
800040
800040
800080
800300
801C00
807F00
8000C0
800020
800010
800008
800008
800008
800004
800004
800004
800008
800008
800008
800010
800020
8000C0
81FF00
ENDCHAR
STARTCHAR 00E0
ENCODING 224
SWIDTH 562 0
DWIDTH 25 0
BBX 18 32 3 0
BITMAP
080000
060000
030000
008000
004000
002000
000000
000000
000000
07F800
180600
600100
400080
000080
000080
000040
000040
000040
000040
000040
1FFFC0
200040
400040
800040
800040
800040
8000C0
8000C0
400140
400240
300C40
0FF040
ENDCHAR
STARTCHAR 00E1
ENCODING 225
SWIDTH 562 0
DWIDTH 25 0
BBX 18 32 3 0
BITMAP
000600
000800
003000
006000
008000
000000
000000
000000
000000
07F800
180600
600100
400080
000080
000080
000040
000040
000040
000040
000040
1FFFC0
200040
400040
800040
800040
800040
8000C0
8000C0
400140
400240
300C40
0FF040
ENDCHAR
STARTCHAR 00E2
ENCODING 226
SWIDTH 562 0
DWIDTH 25 0
BBX 18 32 3 0
BITMAP
00C000
012000
021000
040C00
080600
000000
000000
000000
000000
07F800
180600
600100
400080
000080
000080
000040
000040
000040
000040
000040
1FFFC0
200040
400040
800040
800040
800040
8000C0
8000C0
400140
400240
300C40
0FF040
ENDCHAR
STARTCHAR 00E3
ENCODING 227
SWIDTH 562 0
DWIDTH 25 0
BBX 18 31 3 0
BITMAP
0F8200
18C200
102400
001800
000000
000000
000000
000000
07F800
180600
600100
400080
000080
000080
000040
000040
000040
000040
000040
1FFFC0
200040
400040
800040
800040
800040
8000C0
8000C0
400140
400240
300C40
0FF040
ENDCHAR
STARTCHAR 00E4
ENCODING 228
SWIDTH 562 0
DWIDTH 25 0
BBX 18 31 3 0
BITMAP
040800
0E0C00
040000
000000
000000
000000
000000
000000
07F800
180600
600100
400080
000080
000080
000040
000040
000040
000040
000040
1FFFC0
200040
400040
800040
800040
800040
8000C0
8000C0
400140
400240
300C40
0FF040
ENDCHAR
STARTCHAR 00E5
ENCODING 229
SWIDTH 562 0
DWIDTH 25 0
BBX 18 35 3 0
BITMAP
00C000
033000
060800
040800
040800
040800
020800
033000
00C000
000000
000000
000000
07F800
180600
600100
400080
000080
000080
000040
000040
000040
000040
000040
1FFFC0
200040
400040
800040
800040
800040
8000C0
8000C0
400140
400240
300C40
0FF040
ENDCHAR
STARTCHAR 00E6
ENCODING 230
SWIDTH 967 0
DWIDTH 43 0
BBX 38 23 3 0
BITMAP
07F800FE00
1806030180
60010C0040
4000880020
0000900010
0000A00008
0000600008
0000400004
0000400004
0000400004
0000400004
1FFFFFFFF8
2000400000
4000400000
8000400000
8000400000
8000A00000
8000A00000
8000900000
4001080018
4002040030
300C0300C0
0FF000FF00
ENDCHAR
STARTCHAR 00E7
ENCODING 231
SWIDTH 540 0
DWIDTH 24 0
BBX 20 32 2 -9
BITMAP
00FE00
0301C0
0C0020
100010
300000
200000
400000
400000
400000
800000
800000
800000
800000
800000
400000
400000
400000
200000
300000
100010
0C0020
0300C0
00FF00
002000
002000
002000
001800
000400
000400
000400
000400
01F800
ENDCHAR
STARTCHAR 00E8
ENCODING 232
SWIDTH 585 0
DWIDTH 26 0
BBX 22 32 2 0
BITMAP
020000
018000
00C000
002000
001000
000000
000000
000000
000000
01FE00
060180
080040
100020
200010
200010
400008
400008
400008
800004
800004
FFFFF8
800000
800000
400000
400000
400000
200000
300000
180010
0C0020
0300C0
00FF00
ENDCHAR
STARTCHAR 00E9
ENCODING 233
SWIDTH 585 0
DWIDTH 26 0
BBX 22 32 2 0
BITMAP
000180
000200
000C00
001800
002000
000000
000000
000000
000000
01FE00
060180
080040
100020
200010
200010
400008
400008
400008
800004
800004
FFFFF8
800000
800000
400000
400000
400000
200000
300000
180010
0C0020
0300C0
00FF00
ENDCHAR
STARTCHAR 00EA
ENCODING 234
SWIDTH 585 0
DWIDTH 26 0
BBX 22 32 2 0
BITMAP
003000
004800
008400
010200
020180
040000
000000
000000
000000
01FE00
060180
080040
100020
200010
200010
400008
400008
400008
800004
800004
FFFFF8
800000
800000
400000
400000
400000
200000
300000
180010
0C0020
0300C0
00FF00
ENDCHAR
STARTCHAR 00EB
ENCODING 235
SWIDTH 585 0
DWIDTH 26 0
BBX 22 31 2 0
BITMAP
010200
038300
010000
000000
000000
000000
000000
000000
01FE00
060180
080040
100020
200010
200010
400008
400008
400008
800004
800004
FFFFF8
800000
800000
400000
400000
400000
200000
300000
180010
0C0020
0300C0
00FF00
ENDCHAR
STARTCHAR 00EC
ENCODING 236
SWIDTH 247 0
DWIDTH 11 0
BBX 7 32 0 0
BITMAP
C0
60
10
0C
06
00
00
00
00
04
04
04
04
04
04
04
04
04
04
04
04
04
04
04
04
04
04
04
04
04
04
04
ENDCHAR
STARTCHAR 00ED
ENCODING 237
SWIDTH 247 0
DWIDTH 11 0
BBX 7 32 4 0
BITMAP
06
0C
10
60
C0
00
00
00
00
40
40
40
40
40
40
40
40
40
40
40
40
40
40
40
40
40
40
40
40
40
40
40
ENDCHAR
STARTCHAR 00EE
ENCODING 238
SWIDTH 247 0
DWIDTH 11 0
BBX 9 32 1 0
BITMAP
0C00
1400
2200
4100
8080
0000
0000
0000
0000
0800
0800
0800
0800
0800
0800
0800
0800
0800
0800
0800
0800
0800
0800
0800
0800
0800
0800
0800
0800
0800
0800
0800
ENDCHAR
STARTCHAR 00EF
ENCODING 239
SWIDTH 247 0
DWIDTH 11 0
BBX 7 31 2 0
BITMAP
C6
C6
00
00
00
00
00
00
10
10
10
10
10
10
10
10
10
10
10
10
10
10
10
10
10
10
10
10
10
10
10
ENDCHAR
STARTCHAR 00F0
ENCODING 240
SWIDTH 607 0
DWIDTH 27 0
BBX 23 31 2 0
BITMAP
1FFC18
0003E0
0003C0
000C20
003010
00C008
070008
080004
000004
000004
000002
000002
01FE02
060182
180062
300022
200012
40000A
40000A
80000A
800006
800004
800004
800004
400008
400008
200010
300020
180040
060180
01FE00
ENDCHAR
STARTCHAR 00F1
ENCODING 241
SWIDTH 652 0
DWIDTH 29 0
BBX 20 31 5 0
BITMAP
078100
084100
083600
000800
000000
000000
000000
000000
81FC00
860300
9800C0
B00040
A00020
C00020
C00010
800010
800010
800010
800010
800010
800010
800010
800010
800010
800010
800010
800010
800010
800010
800010
800010
ENDCHAR
STARTCHAR 00F2
ENCODING 242
SWIDTH 607 0
DWIDTH 27 0
BBX 23 32 2 0
BITMAP
030000
018000
004000
003000
001800
000000
000000
000000
000000
00FE00
020180
0C0060
100010
300008
200008
400004
400004
400004
800002
800002
800002
800002
800002
400004
400004
400004
200008
300008
100010
0C0060
0300C0
00FF00
ENDCHAR
STARTCHAR 00F3
ENCODING 243
SWIDTH 607 0
DWIDTH 27 0
BBX 23 32 2 0
BITMAP
000180
000300
000400
001800
003000
000000
000000
000000
000000
00FE00
020180
0C0060
100010
300008
200008
400004
400004
400004
800002
800002
800002
800002
800002
400004
400004
400004
200008
300008
100010
0C0060
0300C0
00FF00
ENDCHAR
STARTCHAR 00F4
ENCODING 244
SWIDTH 607 0
DWIDTH 27 0
BBX 23 32 2 0
BITMAP
003800
006C00
00C600
010100
020080
000000
000000
000000
000000
00FE00
020180
0C0060
100010
300008
200008
400004
400004
400004
800002
800002
800002
800002
800002
400004
400004
400004
200008
300008
100010
0C0060
0300C0
00FF00
ENDCHAR
STARTCHAR 00F5
ENCODING 245
SWIDTH 607 0
DWIDTH 27 0
BBX 23 31 2 0
BITMAP
01E040
021080
040D80
000200
000000
000000
000000
000000
00FE00
020180
0C0060
100010
300008
200008
400004
400004
400004
800002
800002
800002
800002
800002
400004
400004
400004
200008
300008
100010
0C0060
0300C0
00FF00
ENDCHAR
STARTCHAR 00F6
ENCODING 246
SWIDTH 607 0
DWIDTH 27 0
BBX 23 31 2 0
BITMAP
018300
018300
000000
000000
000000
000000
000000
000000
00FE00
020180
0C0060
100010
300008
200008
400004
400004
400004
800002
800002
800002
800002
800002
400004
400004
400004
200008
300008
100010
0C0060
0300C0
00FF00
ENDCHAR
STARTCHAR 00F7
ENCODING 247
SWIDTH 540 0
DWIDTH 24 0
BBX 19 19 3 6
BITMAP
004000
00E000
004000
000000
000000
000000
000000
000000
000000
FFFFE0
000000
000000
000000
000000
000000
000000
004000
00E000
004000
ENDCHAR
STARTCHAR 00F8
ENCODING 248
SWIDTH 607 0
DWIDTH 27 0
BBX 23 29 2 -3
BITMAP
000004
000008
000010
00FE30
0201A0
0C0060
1000D0
300088
200108
400204
400204
400404
800802
800802
801002
802002
802002
404004
408004
408004
210008
320008
120010
0C0060
0B00C0
08FF00
100000
200000
200000
ENDCHAR
STARTCHAR 00F9
ENCODING 249
SWIDTH 652 0
DWIDTH 29 0
BBX 19 32 5 0
BITMAP
0C0000
060000
010000
00C000
002000
000000
000000
000000
000000
800020
800020
800020
800020
800020
800020
800020
800020
800020
800020
800020
800020
800020
800020
800020
800020
800020
800060
400060
4000A0
200120
180620
07F820
ENDCHAR
STARTCHAR 00FA
ENCODING 250
SWIDTH 652 0
DWIDTH 29 0
BBX 19 32 5 0
BITMAP
000600
000C00
001000
002000
00C000
000000
000000
000000
000000
800020
800020
800020
800020
800020
800020
800020
800020
800020
800020
800020
800020
800020
800020
800020
800020
800020
800060
400060
4000A0
200120
180620
07F820
ENDCHAR
STARTCHAR 00FB
ENCODING 251
SWIDTH 652 0
DWIDTH 29 0
BBX 19 32 5 0
BITMAP
00E000
01B000
030800
060400
080200
000000
000000
000000
000000
800020
800020
800020
800020
800020
800020
800020
800020
800020
800020
800020
800020
800020
800020
800020
800020
800020
800060
400060
4000A0
200120
180620
07F820
ENDCHAR
STARTCHAR 00FC
ENCODING 252
SWIDTH 652 0
DWIDTH 29 0
BBX 19 31 5 0
BITMAP
060400
060C00
000000
000000
000000
000000
000000
000000
800020
800020
800020
800020
800020
800020
800020
800020
800020
800020
800020
800020
800020
800020
800020
800020
800020
800060
400060
4000A0
200120
180620
07F820
ENDCHAR
STARTCHAR 00FD
ENCODING 253
SWIDTH 495 0
DWIDTH 22 0
BBX 23 41 -1 -9
BITMAP
000180
000300
000400
000800
003000
000000
000000
000000
000000
600002
200002
200004
100004
100008
080008
080010
040010
040020
020020
020060
010040
010040
010080
008080
008100
004100
004200
002200
002400
001400
001800
000800
000800
001000
001000
002000
002000
004000
808000
C10000
3E0000
ENDCHAR
STARTCHAR 00FE
ENCODING 254
SWIDTH 652 0
DWIDTH 29 0
BBX 22 42 5 -9
BITMAP
800000
800000
800000
800000
800000
800000
800000
800000
800000
800000
80FE00
870180
880060
900030
A00010
A00008
C00008
C00004
800004
800004
800004
800004
800004
800004
800004
C00004
C00008
A00008
A00010
900030
880060
860180
81FE00
800000
800000
800000
800000
800000
800000
800000
800000
800000
ENDCHAR
STARTCHAR 00FF
ENCODING 255
SWIDTH 495 0
DWIDTH 22 0
BBX 23 40 -1 -9
BITMAP
018100
018300
000000
000000
000000
000000
000000
000000
600002
200002
200004
100004
100008
080008
080010
040010
040020
020020
020060
010040
010040
010080
008080
008100
004100
004200
002200
002400
001400
001800
000800
000800
001000
001000
002000
002000
004000
808000
C10000
3E0000
ENDCHAR
STARTCHAR 0100
ENCODING 256
SWIDTH 675 0
DWIDTH 30 0
BBX 29 37 1 0
BITMAP
00FFF000
00000000
00000000
00000000
00000000
00000000
00020000
00060000
00050000
00090000
00088000
00108000
00104000
00204000
00202000
00402000
00401000
00801000
00800800
00800800
01000400
01000400
02000400
02000200
04000200
04000100
08000100
0FFFFF80
10000080
10000040
20000040
20000020
40000020
40000010
40000010
80000010
80000008
ENDCHAR
STARTCHAR 0101
ENCODING 257
SWIDTH 562 0
DWIDTH 25 0
BBX 18 30 3 0
BITMAP
1FFE00
000000
000000
000000
000000
000000
000000
07F800
180600
600100
400080
000080
000080
000040
000040
000040
000040
000040
1FFFC0
200040
400040
800040
800040
800040
8000C0
8000C0
400140
400240
300C40
0FF040
ENDCHAR
STARTCHAR 0102
ENCODING 258
SWIDTH 675 0
DWIDTH 30 0
BBX 29 39 1 0
BITMAP
00801000
00801000
00401000
00202000
0019C000
00060000
00000000
00000000
00020000
00060000
00050000
00090000
00088000
00108000
00104000
00204000
00202000
00402000
00401000
00801000
00800800
00800800
01000400
01000400
02000400
02000200
04000200
04000100
08000100
0FFFFF80
10000080
10000040
20000040
20000020
40000020
40000010
40000010
80000010
80000008
ENDCHAR
STARTCHAR 0103
ENCODING 259
SWIDTH 562 0
DWIDTH 25 0
BBX 18 32 3 0
BITMAP
100200
100200
080400
040C00
03F000
000000
000000
000000
000000
07F800
180600
600100
400080
000080
000080
000040
000040
000040
000040
000040
1FFFC0
200040
400040
800040
800040
800040
8000C0
8000C0
400140
400240
300C40
0FF040
ENDCHAR
STARTCHAR 0104
ENCODING 260
SWIDTH 675 0
DWIDTH 30 0
BBX 30 40 1 -9
BITMAP
00020000
00060000
00050000
00090000
00088000
00108000
00104000
00204000
00202000
00402000
00401000
00801000
00800800
00800800
01000400
01000400
02000400
02000200
04000200
04000100
08000100
0FFFFF80
10000080
10000040
20000040
20000020
40000020
40000010
40000010
80000010
80000008
00000030
00000040
00000080
00000100
00000100
00000100
00000100
00000100
000000FC
ENDCHAR
STARTCHAR 0105
ENCODING 261
SWIDTH 562 0
DWIDTH 25 0
BBX 18 32 3 -9
BITMAP
07F800
180600
600100
400080
000080
000080
000040
000040
000040
000040
000040
1FFFC0
200040
400040
800040
800040
800040
8000C0
8000C0
400140
400240
300C40
0FF040
000180
000600
000C00
000800
001000
001000
001000
001800
000FC0
ENDCHAR
STARTCHAR 0106
ENCODING 262
SWIDTH 697 0
DWIDTH 31 0
BBX 26 39 3 0
BITMAP
00001800
00003000
00004000
00018000
00030000
00000000
00000000
00000000
003FF800
00C00600
03000180
04000040
08000000
10000000
20000000
20000000
40000000
40000000
80000000
80000000
80000000
80000000
80000000
80000000
80000000
80000000
80000000
80000000
80000000
40000000
40000000
20000000
20000000
10000000
08000000
060000C0
03000180
00E00600
001FF800
ENDCHAR
STARTCHAR 0107
ENCODING 263
SWIDTH 540 0
DWIDTH 24 0
BBX 20 32 2 0
BITMAP
000100
000600
000C00
001000
002000
000000
000000
000000
000000
00FE00
0301C0
0C0020
100010
300000
200000
400000
400000
400000
800000
800000
800000
800000
800000
400000
400000
400000
200000
300000
100010
0C0020
0300C0
00FF00
ENDCHAR
STARTCHAR 0108
ENCODING 264
SWIDTH 697 0
DWIDTH 31 0
BBX 26 39 3 0
BITMAP
00030000
00078000
000C4000
00102000
00201000
00000800
00000000
00000000
003FF800
00C00600
03000180
04000040
08000000
10000000
20000000
20000000
40000000
40000000
80000000
80000000
80000000
80000000
80000000
80000000
80000000
80000000
80000000
80000000
80000000
40000000
40000000
20000000
20000000
10000000
08000000
060000C0
03000180
00E00600
001FF800
ENDCHAR
STARTCHAR 0109
ENCODING 265
SWIDTH 540 0
DWIDTH 24 0
BBX 20 32 2 0
BITMAP
003000
004800
008400
030200
060100
000080
000000
000000
000000
00FE00
0301C0
0C0020
100010
300000
200000
400000
400000
400000
800000
800000
800000
800000
800000
400000
400000
400000
200000
300000
100010
0C0020
0300C0
00FF00
ENDCHAR
STARTCHAR 010A
ENCODING 266
SWIDTH 697 0
DWIDTH 31 0
BBX 26 37 3 0
BITMAP
00030000
00030000
00000000
00000000
00000000
00000000
003FF800
00C00600
03000180
04000040
08000000
10000000
20000000
20000000
40000000
40000000
80000000
80000000
80000000
80000000
80000000
80000000
80000000
80000000
80000000
80000000
80000000
40000000
40000000
20000000
20000000
10000000
08000000
060000C0
03000180
00E00600
001FF800
ENDCHAR
STARTCHAR 010B
ENCODING 267
SWIDTH 540 0
DWIDTH 24 0
BBX 20 31 2 0
BITMAP
003000
003000
000000
000000
000000
000000
000000
000000
00FE00
0301C0
0C0020
100010
300000
200000
400000
400000
400000
800000
800000
800000
800000
800000
400000
400000
400000
200000
300000
100010
0C0020
0300C0
00FF00
ENDCHAR
STARTCHAR 010C
ENCODING 268
SWIDTH 697 0
DWIDTH 31 0
BBX 26 39 3 0
BITMAP
00400800
00201000
00182000
000CC000
00078000
00000000
00000000
00000000
003FF800
00C00600
03000180
04000040
08000000
10000000
20000000
20000000
40000000
40000000
80000000
80000000
80000000
80000000
80000000
80000000
80000000
80000000
80000000
80000000
80000000
40000000
40000000
20000000
20000000
10000000
08000000
060000C0
03000180
00E00600
001FF800
ENDCHAR
STARTCHAR 010D
ENCODING 269
SWIDTH 540 0
DWIDTH 24 0
BBX 20 32 2 0
BITMAP
040180
030300
018400
00C800
003000
000000
000000
000000
000000
00FE00
0301C0
0C0020
100010
300000
200000
400000
400000
400000
800000
800000
800000
800000
800000
400000
400000
400000
200000
300000
100010
0C0020
0300C0
00FF00
ENDCHAR
STARTCHAR 010E
ENCODING 270
SWIDTH 810 0
DWIDTH 36 0
BBX 28 38 6 0
BITMAP
03018000
01820000
00440000
00280000
00100000
00000000
00000000
FFFF8000
80006000
80001800
80000600
80000300
80000080
80000080
80000040
80000020
80000020
80000020
80000010
80000010
80000010
80000010
80000010
80000010
80000010
80000010
80000010
80000020
80000020
80000020
80000040
80000080
80000180
80000300
80000600
80001800
80006000
FFFF8000
ENDCHAR
STARTCHAR 010F
ENCODING 271
SWIDTH 652 0
DWIDTH 29 0
BBX 28 34 2 0
BITMAP
00000010
00000210
00000210
00000210
00000210
00000210
00000210
00000210
00000200
00000200
00000200
00FE0200
02018200
0C006200
10001200
30000A00
20000A00
40000600
40000600
40000600
80000200
80000200
80000200
80000200
80000200
40000600
40000600
40000600
20000A00
30000A00
10001200
0C006200
03008200
00FF0200
ENDCHAR
STARTCHAR 0110
ENCODING 272
SWIDTH 810 0
DWIDTH 36 0
BBX 33 31 1 0
BITMAP
07FFFC0000
0400030000
040000C000
0400003000
0400001800
0400000400
0400000400
0400000200
0400000100
0400000100
0400000100
0400000080
0400000080
0400000080
0400000080
FFFF000080
0400000080
0400000080
0400000080
0400000080
0400000100
0400000100
0400000100
0400000200
0400000400
0400000C00
0400001800
0400003000
040000C000
0400030000
07FFFC0000
ENDCHAR
STARTCHAR 0111
ENCODING 273
SWIDTH 652 0
DWIDTH 29 0
BBX 27 33 2 0
BITMAP
00000200
00000200
00000200
00000200
00000200
000FFFE0
00000200
00000200
00000200
00000200
00FE0200
02018200
0C006200
10001200
30000A00
20000A00
40000600
40000600
40000600
80000200
80000200
80000200
80000200
80000200
40000600
40000600
40000600
20000A00
30000A00
10001200
0C006200
03008200
00FF0200
ENDCHAR
STARTCHAR 0112
ENCODING 274
SWIDTH 652 0
DWIDTH 29 0
BBX 21 37 6 0
BITMAP
0FFF00
000000
000000
000000
000000
000000
FFFFF0
800000
800000
800000
800000
800000
800000
800000
800000
800000
800000
800000
800000
800000
800000
FFFFC0
800000
800000
800000
800000
800000
800000
800000
800000
800000
800000
800000
800000
800000
800000
FFFFF8
ENDCHAR
STARTCHAR 0113
ENCODING 275
SWIDTH 585 0
DWIDTH 26 0
BBX 22 30 2 0
BITMAP
07FF80
000000
000000
000000
000000
000000
000000
01FE00
060180
080040
100020
200010
200010
400008
400008
400008
800004
800004
FFFFF8
800000
800000
400000
400000
400000
200000
300000
180010
0C0020
0300C0
00FF00
ENDCHAR
STARTCHAR 0114
ENCODING 276
SWIDTH 652 0
DWIDTH 29 0
BBX 21 39 6 0
BITMAP
080100
080100
040200
040600
039C00
006000
000000
000000
FFFFF0
800000
800000
800000
800000
800000
800000
800000
800000
800000
800000
800000
800000
800000
800000
FFFFC0
800000
800000
800000
800000
800000
800000
800000
800000
800000
800000
800000
800000
800000
800000
FFFFF8
ENDCHAR
STARTCHAR 0115
ENCODING 277
SWIDTH 585 0
DWIDTH 26 0
BBX 22 32 2 0
BITMAP
040080
040080
020100
010300
00FC00
000000
000000
000000
000000
01FE00
060180
080040
100020
200010
200010
400008
400008
400008
800004
800004
FFFFF8
800000
800000
400000
400000
400000
200000
300000
180010
0C0020
0300C0
00FF00
ENDCHAR
STARTCHAR 0116
ENCODING 278
SWIDTH 652 0
DWIDTH 29 0
BBX 21 37 6 0
BITMAP
006000
006000
000000
000000
000000
000000
FFFFF0
800000
800000
800000
800000
800000
800000
800000
800000
800000
800000
800000
800000
800000
800000
FFFFC0
800000
800000
800000
800000
800000
800000
800000
800000
800000
800000
800000
800000
800000
800000
FFFFF8
ENDCHAR
STARTCHAR 0117
ENCODING 279
SWIDTH 585 0
DWIDTH 26 0
BBX 22 31 2 0
BITMAP
003000
003000
000000
000000
000000
000000
000000
000000
01FE00
060180
080040
100020
200010
200010
400008
400008
400008
800004
800004
FFFFF8
800000
800000
400000
400000
400000
200000
300000
180010
0C0020
0300C0
00FF00
ENDCHAR
STARTCHAR 0118
ENCODING 280
SWIDTH 652 0
DWIDTH 29 0
BBX 21 40 6 -9
BITMAP
FFFFF0
800000
800000
800000
800000
800000
800000
800000
800000
800000
800000
800000
800000
800000
800000
FFFFC0
800000
800000
800000
800000
800000
800000
800000
800000
800000
800000
800000
800000
800000
800000
FFFFF8
000030
0000C0
000180
000100
000200
000200
000200
000200
0001F8
ENDCHAR
STARTCHAR 0119
ENCODING 281
SWIDTH 585 0
DWIDTH 26 0
BBX 22 32 2 -9
BITMAP
01FE00
060180
080040
100020
200010
200010
400008
400008
400008
800004
800004
FFFFF8
800000
800000
400000
400000
400000
200000
300000
180010
0C0020
0300C0
00FF80
000100
000200
000600
000400
000400
000800
000400
000400
0003F0
ENDCHAR
STARTCHAR 011A
ENCODING 282
SWIDTH 652 0
DWIDTH 29 0
BBX 21 39 6 0
BITMAP
080100
040200
020C00
019800
00F000
000000
000000
000000
FFFFF0
800000
800000
800000
800000
800000
800000
800000
800000
800000
800000
800000
800000
800000
800000
FFFFC0
800000
800000
800000
800000
800000
800000
800000
800000
800000
800000
800000
800000
800000
800000
FFFFF8
ENDCHAR
STARTCHAR 011B
ENCODING 283
SWIDTH 585 0
DWIDTH 26 0
BBX 22 32 2 0
BITMAP
060080
030300
008600
004C00
003000
000000
000000
000000
000000
01FE00
060180
080040
100020
200010
200010
400008
400008
400008
800004
800004
FFFFF8
800000
800000
400000
400000
400000
200000
300000
180010
0C0020
0300C0
00FF00
ENDCHAR
STARTCHAR 011C
ENCODING 284
SWIDTH 765 0
DWIDTH 34 0
BBX 26 38 3 0
BITMAP
00078000
0008C000
00102000
00201000
00400000
00000000
00000000
001FF800
00E00600
03000180
04000040
08000000
10000000
20000000
20000000
40000000
40000000
80000000
80000000
80000000
80000000
80000000
80000000
80000040
80000040
80000040
80000040
80000040
40000040
40000040
20000040
30000040
10000040
08000040
06000040
03000180
00E00600
001FF800
ENDCHAR
STARTCHAR 011D
ENCODING 285
SWIDTH 675 0
DWIDTH 30 0
BBX 23 41 2 -9
BITMAP
001800
002400
004200
008100
0300C0
000000
000000
000000
000000
00FF02
0200C2
0C0022
100012
20000A
200006
400006
400002
400002
800002
800002
800002
800002
400002
400002
400006
200006
20000A
100012
080022
0600C2
01FF02
000002
000002
000002
000004
000004
000004
100008
0C0030
0380E0
007F00
ENDCHAR
STARTCHAR 011E
ENCODING 286
SWIDTH 765 0
DWIDTH 34 0
BBX 26 38 3 0
BITMAP
00400800
00401000
00203000
001CE000
00010000
00000000
00000000
001FF800
00E00600
03000180
04000040
08000000
10000000
20000000
20000000
40000000
40000000
80000000
80000000
80000000
80000000
80000000
80000000
80000040
80000040
80000040
80000040
80000040
40000040
40000040
20000040
30000040
10000040
08000040
06000040
03000180
00E00600
001FF800
ENDCHAR
STARTCHAR 011F
ENCODING 287
SWIDTH 675 0
DWIDTH 30 0
BBX 23 41 2 -9
BITMAP
020040
020040
010080
008100
007E00
000000
000000
000000
000000
00FF02
0200C2
0C0022
100012
20000A
200006
400006
400002
400002
800002
800002
800002
800002
400002
400002
400006
200006
20000A
100012
080022
0600C2
01FF02
000002
000002
000002
000004
000004
000004
100008
0C0030
0380E0
007F00
ENDCHAR
STARTCHAR 0120
ENCODING 288
SWIDTH 765 0
DWIDTH 34 0
BBX 26 37 3 0
BITMAP
00030000
00030000
00000000
00000000
00000000
00000000
001FF800
00E00600
03000180
04000040
08000000
10000000
20000000
20000000
40000000
40000000
80000000
80000000
80000000
80000000
80000000
80000000
80000040
80000040
80000040
80000040
80000040
40000040
40000040
20000040
30000040
10000040
08000040
06000040
03000180
00E00600
001FF800
ENDCHAR
STARTCHAR 0121
ENCODING 289
SWIDTH 675 0
DWIDTH 30 0
BBX 23 40 2 -9
BITMAP
001800
001800
000000
000000
000000
000000
000000
000000
00FF02
0200C2
0C0022
100012
20000A
200006
400006
400002
400002
800002
800002
800002
800002
400002
400002
400006
200006
20000A
100012
080022
0600C2
01FF02
000002
000002
000002
000004
000004
000004
100008
0C0030
0380E0
007F00
ENDCHAR
STARTCHAR 0122
ENCODING 290
SWIDTH 765 0
DWIDTH 34 0
BBX 26 43 3 -12
BITMAP
001FF800
00E00600
03000180
04000040
08000000
10000000
20000000
20000000
40000000
40000000
80000000
80000000
80000000
80000000
80000000
80000000
80000040
80000040
80000040
80000040
80000040
40000040
40000040
20000040
30000040
10000040
08000040
06000040
03000180
00E00600
001FF800
00000000
00000000
00000000
00000000
00000000
00000000
00030000
00030000
00010000
00020000
00020000
00020000
ENDCHAR
STARTCHAR 0123
ENCODING 291
SWIDTH 675 0
DWIDTH 30 0
BBX 23 43 2 -9
BITMAP
000800
000800
000800
001000
001000
001800
001800
000000
000000
000000
000000
00FF02
0200C2
0C0022
100012
20000A
200006
400006
400002
400002
800002
800002
800002
800002
400002
400002
400006
200006
20000A
100012
080022
0600C2
01FF02
000002
000002
000002
000004
000004
000004
100008
0C0030
0380E0
007F00
ENDCHAR
STARTCHAR 0124
ENCODING 292
SWIDTH 810 0
DWIDTH 36 0
BBX 24 39 6 0
BITMAP
001800
003C00
006200
008100
010080
000040
000000
000000
800001
800001
800001
800001
800001
800001
800001
800001
800001
800001
800001
800001
800001
800001
800001
FFFFFF
800001
800001
800001
800001
800001
800001
800001
800001
800001
800001
800001
800001
800001
800001
800001
ENDCHAR
STARTCHAR 0125
ENCODING 293
SWIDTH 652 0
DWIDTH 29 0
BBX 26 40 -1 0
BITMAP
07000000
08800000
10400000
20300000
C0180000
00000000
00000000
02000000
02000000
02000000
02000000
02000000
02000000
02000000
02000000
02000000
02000000
0207F000
02180C00
02600300
02C00100
02800080
03000080
03000040
02000040
02000040
02000040
02000040
02000040
02000040
02000040
02000040
02000040
02000040
02000040
02000040
02000040
02000040
02000040
02000040
ENDCHAR
STARTCHAR 0126
ENCODING 294
SWIDTH 810 0
DWIDTH 36 0
BBX 34 31 1 0
BITMAP
0400000800
0400000800
0400000800
0400000800
0400000800
0400000800
0400000800
FFFFFFFFC0
0400000800
0400000800
0400000800
0400000800
0400000800
0400000800
0400000800
07FFFFF800
0400000800
0400000800
0400000800
0400000800
0400000800
0400000800
0400000800
0400000800
0400000800
0400000800
0400000800
0400000800
0400000800
0400000800
0400000800
ENDCHAR
STARTCHAR 0127
ENCODING 295
SWIDTH 652 0
DWIDTH 29 0
BBX 25 33 0 0
BITMAP
04000000
04000000
04000000
04000000
04000000
FFFF0000
04000000
04000000
04000000
04000000
040FE000
04301800
04C00600
05800200
05000100
06000100
06000080
04000080
04000080
04000080
04000080
04000080
04000080
04000080
04000080
04000080
04000080
04000080
04000080
04000080
04000080
04000080
04000080
ENDCHAR
STARTCHAR 0128
ENCODING 296
SWIDTH 270 0
DWIDTH 12 0
BBX 12 38 0 0
BITMAP
3810
4610
8310
80E0
0000
0000
0000
0200
0200
0200
0200
0200
0200
0200
0200
0200
0200
0200
0200
0200
0200
0200
0200
0200
0200
0200
0200
0200
0200
0200
0200
0200
0200
0200
0200
0200
0200
0200
ENDCHAR
STARTCHAR 0129
ENCODING 297
SWIDTH 247 0
DWIDTH 11 0
BBX 9 31 1 0
BITMAP
F080
8880
8580
0200
0000
0000
0000
0000
0800
0800
0800
0800
0800
0800
0800
0800
0800
0800
0800
0800
0800
0800
0800
0800
0800
0800
0800
0800
0800
0800
0800
ENDCHAR
STARTCHAR 012A
ENCODING 298
SWIDTH 270 0
DWIDTH 12 0
BBX 10 37 1 0
BITMAP
FFC0
0000
0000
0000
0000
0000
0400
0400
0400
0400
0400
0400
0400
0400
0400
0400
0400
0400
0400
0400
0400
0400
0400
0400
0400
0400
0400
0400
0400
0400
0400
0400
0400
0400
0400
0400
0400
ENDCHAR
STARTCHAR 012B
ENCODING 299
SWIDTH 247 0
DWIDTH 11 0
BBX 9 30 1 0
BITMAP
FF80
0000
0000
0000
0000
0000
0000
0800
0800
0800
0800
0800
0800
0800
0800
0800
0800
0800
0800
0800
0800
0800
0800
0800
0800
0800
0800
0800
0800
0800
ENDCHAR
STARTCHAR 012C
ENCODING 300
SWIDTH 270 0
DWIDTH 12 0
BBX 12 39 0 0
BITMAP
8010
8010
4010
2020
19C0
0600
0000
0000
0200
0200
0200
0200
0200
0200
0200
0200
0200
0200
0200
0200
0200
0200
0200
0200
0200
0200
0200
0200
0200
0200
0200
0200
0200
0200
0200
0200
0200
0200
0200
ENDCHAR
STARTCHAR 012D
ENCODING 301
SWIDTH 247 0
DWIDTH 11 0
BBX 9 32 1 0
BITMAP
8080
8080
8080
4100
3E00
0000
0000
0000
0000
0800
0800
0800
0800
0800
0800
0800
0800
0800
0800
0800
0800
0800
0800
0800
0800
0800
0800
0800
0800
0800
0800
0800
ENDCHAR
STARTCHAR 012E
ENCODING 302
SWIDTH 270 0
DWIDTH 12 0
BBX 6 40 3 -9
BITMAP
10
10
10
10
10
10
10
10
10
10
10
10
10
10
10
10
10
10
10
10
10
10
10
10
10
10
10
10
10
10
10
20
20
40
40
80
80
80
40
7C
ENDCHAR
STARTCHAR 012F
ENCODING 303
SWIDTH 247 0
DWIDTH 11 0
BBX 5 41 3 -9
BITMAP
20
70
20
00
00
00
00
00
00
20
20
20
20
20
20
20
20
20
20
20
20
20
20
20
20
20
20
20
20
20
20
20
20
40
80
80
80
80
80
80
F8
ENDCHAR
STARTCHAR 0130
ENCODING 304
SWIDTH 270 0
DWIDTH 12 0
BBX 2 37 5 0
BITMAP
C0
40
00
00
00
00
40
40
40
40
40
40
40
40
40
40
40
40
40
40
40
40
40
40
40
40
40
40
40
40
40
40
40
40
40
40
40
ENDCHAR
STARTCHAR 0131
ENCODING 305
SWIDTH 247 0
DWIDTH 11 0
BBX 1 23 5 0
BITMAP
80
80
80
80
80
80
80
80
80
80
80
80
80
80
80
80
80
80
80
80
80
80
80
ENDCHAR
STARTCHAR 0132
ENCODING 306
SWIDTH 697 0
DWIDTH 31 0
BBX 20 31 6 0
BITMAP
800010
800010
800010
800010
800010
800010
800010
800010
800010
800010
800010
800010
800010
800010
800010
800010
800010
800010
000010
000010
000010
000010
000010
000020
000020
000020
000040
000080
800100
700600
0FF800
ENDCHAR
STARTCHAR 0133
ENCODING 307
SWIDTH 495 0
DWIDTH 22 0
BBX 14 41 4 -9
BITMAP
4000
E00C
4000
0000
0000
0000
0000
0000
0000
4008
4008
4008
4008
4008
4008
4008
4008
4008
4008
4008
4008
4008
4008
4008
4008
4008
4008
4008
4008
4008
4008
4008
0008
0008
0008
0008
0008
0008
0010
0C30
0380
ENDCHAR
STARTCHAR 0134
ENCODING 308
SWIDTH 472 0
DWIDTH 21 0
BBX 16 39 0 0
BITMAP
0040
01A0
0310
0608
0804
0002
0000
0000
1FFF
0001
0001
0001
0001
0001
0001
0001
0001
0001
0001
0001
0001
0001
0001
0001
0001
0001
0001
0001
0001
0001
0001
0001
0002
0002
8002
4002
2004
1818
07F0
ENDCHAR
STARTCHAR 0135
ENCODING 309
SWIDTH 247 0
DWIDTH 11 0
BBX 13 41 -3 -9
BITMAP
00C0
0160
0230
0410
0808
0000
0000
0000
0000
0080
0080
0080
0080
0080
0080
0080
0080
0080
0080
0080
0080
0080
0080
0080
0080
0080
0080
0080
0080
0080
0080
0080
0080
0080
0080
0080
0080
0080
0100
8300
7800
ENDCHAR
STARTCHAR 0136
ENCODING 310
SWIDTH 675 0
DWIDTH 30 0
BBX 24 43 6 -12
BITMAP
800006
80000C
800018
800030
800060
8000C0
800180
800300
800600
800400
800800
801000
802000
804000
808000
814000
822000
841000
880800
900400
A00200
C00100
800180
800080
800040
800020
800010
800008
800004
800002
800003
000000
000000
000000
000000
000000
000000
007000
002000
002000
002000
002000
004000
ENDCHAR
STARTCHAR 0137
ENCODING 311
SWIDTH 562 0
DWIDTH 25 0
BBX 19 45 5 -12
BITMAP
800000
800000
800000
800000
800000
800000
800000
800000
800000
800000
800040
800080
800300
800600
800C00
801800
802000
804000
808000
818000
82C000
844000
882000
B01000
E00800
800C00
800400
800200
800100
800080
8000C0
800040
800020
000000
000000
000000
000000
000000
000000
01C000
00C000
008000
008000
008000
008000
ENDCHAR
STARTCHAR 0138
ENCODING 312
SWIDTH 540 0
DWIDTH 24 0
BBX 19 23 5 0
BITMAP
800040
800080
800300
800600
800C00
801800
802000
804000
808000
818000
82C000
844000
882000
B01000
E00800
800C00
800400
800200
800100
800080
8000C0
800040
800020
ENDCHAR
STARTCHAR 0139
ENCODING 313
SWIDTH 562 0
DWIDTH 25 0
BBX 20 39 5 0
BITMAP
020000
0C0000
180000
200000
C00000
000000
000000
000000
400000
400000
400000
400000
400000
400000
400000
400000
400000
400000
400000
400000
400000
400000
400000
400000
400000
400000
400000
400000
400000
400000
400000
400000
400000
400000
400000
400000
400000
400000
7FFFF0
ENDCHAR
STARTCHAR 013A
ENCODING 314
SWIDTH 247 0
DWIDTH 11 0
BBX 7 42 4 0
BITMAP
06
0C
10
60
C0
00
00
00
00
40
40
40
40
40
40
40
40
40
40
40
40
40
40
40
40
40
40
40
40
40
40
40
40
40
40
40
40
40
40
40
40
40
ENDCHAR
STARTCHAR 013B
ENCODING 315
SWIDTH 562 0
DWIDTH 25 0
BBX 19 43 6 -12
BITMAP
800000
800000
800000
800000
800000
800000
800000
800000
800000
800000
800000
800000
800000
800000
800000
800000
800000
800000
800000
800000
800000
800000
800000
800000
800000
800000
800000
800000
800000
800000
FFFFE0
000000
000000
000000
000000
000000
000000
006000
006000
002000
002000
004000
004000
ENDCHAR
STARTCHAR 013C
ENCODING 316
SWIDTH 247 0
DWIDTH 11 0
BBX 3 44 4 -12
BITMAP
40
40
40
40
40
40
40
40
40
40
40
40
40
40
40
40
40
40
40
40
40
40
40
40
40
40
40
40
40
40
40
40
40
00
00
00
00
00
00
E0
60
40
40
40
ENDCHAR
STARTCHAR 013D
ENCODING 317
SWIDTH 562 0
DWIDTH 25 0
BBX 19 32 6 0
BITMAP
000200
800200
800200
800200
800200
800200
800200
800200
800000
800000
800000
800000
800000
800000
800000
800000
800000
800000
800000
800000
800000
800000
800000
800000
800000
800000
800000
800000
800000
800000
800000
FFFFE0
ENDCHAR
STARTCHAR 013E
ENCODING 318
SWIDTH 247 0
DWIDTH 11 0
BBX 6 34 5 0
BITMAP
04
84
84
84
84
84
84
84
80
80
80
80
80
80
80
80
80
80
80
80
80
80
80
80
80
80
80
80
80
80
80
80
80
80
ENDCHAR
STARTCHAR 013F
ENCODING 319
SWIDTH 562 0
DWIDTH 25 0
BBX 19 31 6 0
BITMAP
800000
800000
800000
800000
800000
800000
800000
800000
800000
800000
800000
800000
800000
800000
800C00
800C00
800000
800000
800000
800000
800000
800000
800000
800000
800000
800000
800000
800000
800000
800000
FFFFE0
ENDCHAR
STARTCHAR 0140
ENCODING 320
SWIDTH 247 0
DWIDTH 11 0
BBX 7 33 5 0
BITMAP
80
80
80
80
80
80
80
80
80
80
80
80
80
80
80
80
80
86
80
80
80
80
80
80
80
80
80
80
80
80
80
80
80
ENDCHAR
STARTCHAR 0141
ENCODING 321
SWIDTH 562 0
DWIDTH 25 0
BBX 23 31 2 0
BITMAP
080000
080000
080000
080000
080000
080000
080000
080000
080000
080000
082000
08C000
090000
0A0000
0C0000
180000
280000
C80000
080000
080000
080000
080000
080000
080000
080000
080000
080000
080000
080000
080000
0FFFFE
ENDCHAR
STARTCHAR 0142
ENCODING 322
SWIDTH 247 0
DWIDTH 11 0
BBX 9 33 1 0
BITMAP
0800
0800
0800
0800
0800
0800
0800
0800
0800
0800
0800
0800
0800
0800
0880
0900
0E00
0800
3800
4800
8800
0800
0800
0800
0800
0800
0800
0800
0800
0800
0800
0800
0800
ENDCHAR
STARTCHAR 0143
ENCODING 323
SWIDTH 810 0
DWIDTH 36 0
BBX 24 39 6 0
BITMAP
0000C0
000180
000200
000C00
001800
000000
000000
000000
800001
C00001
A00001
A00001
900001
880001
840001
860001
820001
810001
808001
80C001
804001
802001
801001
800801
800C01
800401
800201
800101
800181
800081
800041
800021
800011
800011
800009
800005
800003
800003
800001
ENDCHAR
STARTCHAR 0144
ENCODING 324
SWIDTH 652 0
DWIDTH 29 0
BBX 20 32 5 0
BITMAP
000200
000C00
001800
002000
004000
000000
000000
000000
000000
81FC00
860300
9800C0
B00040
A00020
C00020
C00010
800010
800010
800010
800010
800010
800010
800010
800010
800010
800010
800010
800010
800010
800010
800010
800010
ENDCHAR
STARTCHAR 0145
ENCODING 325
SWIDTH 810 0
DWIDTH 36 0
BBX 24 43 6 -12
BITMAP
800001
C00001
A00001
A00001
900001
880001
840001
860001
820001
810001
808001
80C001
804001
802001
801001
800801
800C01
800401
800201
800101
800181
800081
800041
800021
800011
800011
800009
800005
800003
800003
800001
000000
000000
000000
000000
000000
000000
001800
001800
000800
000800
001000
001000
ENDCHAR
STARTCHAR 0146
ENCODING 326
SWIDTH 652 0
DWIDTH 29 0
BBX 20 35 5 -12
BITMAP
81FC00
860300
9800C0
B00040
A00020
C00020
C00010
800010
800010
800010
800010
800010
800010
800010
800010
800010
800010
800010
800010
800010
800010
800010
800010
000000
000000
000000
000000
000000
000000
006000
006000
002000
004000
004000
004000
ENDCHAR
STARTCHAR 0147
ENCODING 327
SWIDTH 810 0
DWIDTH 36 0
BBX 24 39 6 0
BITMAP
020040
010080
00C100
006600
003C00
000000
000000
000000
800001
C00001
A00001
A00001
900001
880001
840001
860001
820001
810001
808001
80C001
804001
802001
801001
800801
800C01
800401
800201
800101
800181
800081
800041
800021
800011
800011
800009
800005
800003
800003
800001
ENDCHAR
STARTCHAR 0148
ENCODING 328
SWIDTH 652 0
DWIDTH 29 0
BBX 20 32 5 0
BITMAP
080300
060600
030800
019000
006000
000000
000000
000000
000000
81FC00
860300
9800C0
B00040
A00020
C00020
C00010
800010
800010
800010
800010
800010
800010
800010
800010
800010
800010
800010
800010
800010
800010
800010
800010
ENDCHAR
STARTCHAR 0149
ENCODING 329
SWIDTH 697 0
DWIDTH 31 0
BBX 24 33 3 0
BITMAP
C00000
C00000
400000
400000
400000
800000
800000
800000
000000
000000
083FC0
08C030
090008
0A0004
0C0002
0C0002
080002
080002
080001
080001
080001
080001
080001
080001
080001
080001
080001
080001
080001
080001
080001
080001
080001
ENDCHAR
STARTCHAR 014A
ENCODING 330
SWIDTH 810 0
DWIDTH 36 0
BBX 24 40 6 -9
BITMAP
800001
C00001
A00001
A00001
900001
880001
840001
860001
820001
810001
808001
80C001
804001
802001
801001
800801
800C01
800401
800201
800101
800181
800081
800041
800021
800011
800011
800009
800005
800003
800003
800001
000001
000001
000001
000001
004001
002002
001004
000C18
0003E0
ENDCHAR
STARTCHAR 014B
ENCODING 331
SWIDTH 652 0
DWIDTH 29 0
BBX 20 32 5 -9
BITMAP
81FC00
860300
9800C0
B00040
A00020
C00020
C00010
800010
800010
800010
800010
800010
800010
800010
800010
800010
800010
800010
800010
800010
800010
800010
800010
000010
000010
000010
000010
000010
000020
000020
0030C0
000700
ENDCHAR
STARTCHAR 014C
ENCODING 332
SWIDTH 832 0
DWIDTH 37 0
BBX 32 37 3 0
BITMAP
003FFC00
00000000
00000000
00000000
00000000
00000000
003FF800
00C00600
03000180
04000040
08000020
10000010
20000008
20000008
40000004
40000004
80000002
80000002
80000002
80000002
80000002
80000001
80000002
80000002
80000002
80000002
80000002
40000004
40000004
20000008
20000008
10000010
08000020
06000040
03000180
00E00600
001FF800
ENDCHAR
STARTCHAR 014D
ENCODING 333
SWIDTH 607 0
DWIDTH 27 0
BBX 23 30 2 0
BITMAP
07FFC0
000000
000000
000000
000000
000000
000000
00FE00
020180
0C0060
100010
300008
200008
400004
400004
400004
800002
800002
800002
800002
800002
400004
400004
400004
200008
300008
100010
0C0060
0300C0
00FF00
ENDCHAR
STARTCHAR 014E
ENCODING 334
SWIDTH 832 0
DWIDTH 37 0
BBX 32 39 3 0
BITMAP
00200000
00200800
00200800
00101000
000E6000
00018000
00000000
00000000
003FF800
00C00600
03000180
04000040
08000020
10000010
20000008
20000008
40000004
40000004
80000002
80000002
80000002
80000002
80000002
80000001
80000002
80000002
80000002
80000002
80000002
40000004
40000004
20000008
20000008
10000010
08000020
06000040
03000180
00E00600
001FF800
ENDCHAR
STARTCHAR 014F
ENCODING 335
SWIDTH 607 0
DWIDTH 27 0
BBX 23 32 2 0
BITMAP
020000
020080
020080
018100
007E00
000000
000000
000000
000000
00FE00
020180
0C0060
100010
300008
200008
400004
400004
400004
800002
800002
800002
800002
800002
400004
400004
400004
200008
300008
100010
0C0060
0300C0
00FF00
ENDCHAR
STARTCHAR 0150
ENCODING 336
SWIDTH 832 0
DWIDTH 37 0
BBX 32 39 3 0
BITMAP
00004100
00008200
00010400
00020800
00041000
00080000
00000000
00000000
003FF800
00C00600
03000180
04000040
08000020
10000010
20000008
20000008
40000004
40000004
80000002
80000002
80000002
80000002
80000002
80000001
80000002
80000002
80000002
80000002
80000002
40000004
40000004
20000008
20000008
10000010
08000020
06000040
03000180
00E00600
001FF800
ENDCHAR
STARTCHAR 0151
ENCODING 337
SWIDTH 607 0
DWIDTH 27 0
BBX 23 32 2 0
BITMAP
000C10
001820
003040
006080
00C100
000000
000000
000000
000000
00FE00
020180
0C0060
100010
300008
200008
400004
400004
400004
800002
800002
800002
800002
800002
400004
400004
400004
200008
300008
100010
0C0060
0300C0
00FF00
ENDCHAR
STARTCHAR 0152
ENCODING 338
SWIDTH 1102 0
DWIDTH 49 0
BBX 43 31 3 0
BITMAP
001FFFFFFFE0
00E001000000
030001000000
040001000000
080001000000
100001000000
200001000000
200001000000
400001000000
400001000000
800001000000
800001000000
800001000000
800001000000
800001000000
800001FFFF80
800001000000
800001000000
800001000000
800001000000
800001000000
400001000000
400001000000
200001000000
200001000000
100001000000
080001000000
060001000000
010001000000
00E001000000
001FFFFFFFE0
ENDCHAR
STARTCHAR 0153
ENCODING 339
SWIDTH 1057 0
DWIDTH 47 0
BBX 43 23 2 0
BITMAP
00FE0007F000
020180180C00
0C0060200200
100010400100
300008800080
200009000040
400005000040
400006000020
400006000020
800002000020
800002000020
800003FFFFC0
800002000000
800002000000
400006000000
400006000000
400005000000
200009000000
300008800000
1000104000C0
0C0060200180
030080180600
00FF0007F800
ENDCHAR
STARTCHAR 0154
ENCODING 340
SWIDTH 697 0
DWIDTH 31 0
BBX 23 39 6 0
BITMAP
000300
000600
000C00
001000
006000
000000
000000
000000
FFFE00
8001C0
800020
800010
800008
800004
800004
800004
800002
800002
800002
800002
800004
800004
800004
800008
800018
800030
8000C0
FFFF00
800300
800100
800080
800040
800040
800020
800010
800018
800008
800004
800002
ENDCHAR
STARTCHAR 0155
ENCODING 341
SWIDTH 382 0
DWIDTH 17 0
BBX 11 32 5 0
BITMAP
0060
0080
0300
0600
0800
0000
0000
0000
0000
83C0
8C00
9000
A000
A000
C000
C000
8000
8000
8000
8000
8000
8000
8000
8000
8000
8000
8000
8000
8000
8000
8000
8000
ENDCHAR
STARTCHAR 0156
ENCODING 342
SWIDTH 697 0
DWIDTH 31 0
BBX 23 43 6 -12
BITMAP
FFFE00
8001C0
800020
800010
800008
800004
800004
800004
800002
800002
800002
800002
800004
800004
800004
800008
800018
800030
8000C0
FFFF00
800300
800100
800080
800040
800040
800020
800010
800018
800008
800004
800002
000000
000000
000000
000000
000000
000000
006000
006000
002000
002000
004000
004000
ENDCHAR
STARTCHAR 0157
ENCODING 343
SWIDTH 382 0
DWIDTH 17 0
BBX 11 34 4 -12
BITMAP
41E0
4600
4800
5000
5000
6000
6000
4000
4000
4000
4000
4000
4000
4000
4000
4000
4000
4000
4000
4000
4000
4000
4000
0000
0000
0000
0000
0000
0000
E000
6000
4000
4000
4000
ENDCHAR
STARTCHAR 0158
ENCODING 344
SWIDTH 697 0
DWIDTH 31 0
BBX 23 39 6 0
BITMAP
080100
060200
030400
018800
007000
000000
000000
000000
FFFE00
8001C0
800020
800010
800008
800004
800004
800004
800002
800002
800002
800002
800004
800004
800004
800008
800018
800030
8000C0
FFFF00
800300
800100
800080
800040
800040
800020
800010
800018
800008
800004
800002
ENDCHAR
STARTCHAR 0159
ENCODING 345
SWIDTH 382 0
DWIDTH 17 0
BBX 12 32 4 0
BITMAP
C010
6060
10C0
0980
0600
0000
0000
0000
0000
41E0
4600
4800
5000
5000
6000
6000
4000
4000
4000
4000
4000
4000
4000
4000
4000
4000
4000
4000
4000
4000
4000
4000
ENDCHAR
STARTCHAR 015A
ENCODING 346
SWIDTH 585 0
DWIDTH 26 0
BBX 21 39 3 0
BITMAP
000180
000300
000400
001800
003000
000000
000000
000000
03FF00
0C00C0
100030
200000
400000
400000
800000
800000
800000
400000
400000
600000
300000
0C0000
038000
007000
000F00
0000C0
000020
000010
000008
000008
000008
000008
000008
000008
800010
C00010
200020
1C00C0
03FF00
ENDCHAR
STARTCHAR 015B
ENCODING 347
SWIDTH 450 0
DWIDTH 20 0
BBX 17 32 2 0
BITMAP
000C00
001000
002000
00C000
010000
000000
000000
000000
000000
0FF800
300600
600100
400000
800000
800000
800000
400000
400000
200000
1C0000
03E000
001C00
000200
000100
000080
000080
000080
000080
000100
C00100
700600
0FF800
ENDCHAR
STARTCHAR 015C
ENCODING 348
SWIDTH 585 0
DWIDTH 26 0
BBX 21 39 3 0
BITMAP
003000
007800
00C400
010200
020100
000080
000000
000000
03FF00
0C00C0
100030
200000
400000
400000
800000
800000
800000
400000
400000
600000
300000
0C0000
038000
007000
000F00
0000C0
000020
000010
000008
000008
000008
000008
000008
000008
800010
C00010
200020
1C00C0
03FF00
ENDCHAR
STARTCHAR 015D
ENCODING 349
SWIDTH 450 0
DWIDTH 20 0
BBX 17 32 2 0
BITMAP
018000
036000
043000
081800
100400
000000
000000
000000
000000
0FF800
300600
600100
400000
800000
800000
800000
400000
400000
200000
1C0000
03E000
001C00
000200
000100
000080
000080
000080
000080
000100
C00100
700600
0FF800
ENDCHAR
STARTCHAR 015E
ENCODING 350
SWIDTH 585 0
DWIDTH 26 0
BBX 21 40 3 -9
BITMAP
03FF00
0C00C0
100030
200000
400000
400000
800000
800000
800000
400000
400000
600000
300000
0C0000
038000
007000
000F00
0000C0
000020
000010
000008
000008
000008
000008
000008
000008
800010
C00010
200020
1C00C0
03FF00
002000
002000
002000
001800
000400
000400
000400
000400
01F800
ENDCHAR
STARTCHAR 015F
ENCODING 351
SWIDTH 450 0
DWIDTH 20 0
BBX 17 32 2 -9
BITMAP
0FF800
300600
600100
400000
800000
800000
800000
400000
400000
200000
1C0000
03E000
001C00
000200
000100
000080
000080
000080
000080
000100
C00100
700600
0FF800
008000
010000
010000
00E000
002000
001000
001000
002000
07C000
ENDCHAR
STARTCHAR 0160
ENCODING 352
SWIDTH 585 0
DWIDTH 26 0
BBX 21 39 3 0
BITMAP
040080
020100
018200
00CC00
007800
000000
000000
000000
03FF00
0C00C0
100030
200000
400000
400000
800000
800000
800000
400000
400000
600000
300000
0C0000
038000
007000
000F00
0000C0
000020
000010
000008
000008
000008
000008
000008
000008
800010
C00010
200020
1C00C0
03FF00
ENDCHAR
STARTCHAR 0161
ENCODING 353
SWIDTH 450 0
DWIDTH 20 0
BBX 17 32 2 0
BITMAP
100400
080800
043000
026000
01C000
000000
000000
000000
000000
0FF800
300600
600100
400000
800000
800000
800000
400000
400000
200000
1C0000
03E000
001C00
000200
000100
000080
000080
000080
000080
000100
C00100
700600
0FF800
ENDCHAR
STARTCHAR 0162
ENCODING 354
SWIDTH 540 0
DWIDTH 24 0
BBX 24 40 0 -9
BITMAP
FFFFFF
000800
000800
000800
000800
000800
000800
000800
000800
000800
000800
000800
000800
000800
000800
000800
000800
000800
000800
000800
000800
000800
000800
000800
000800
000800
000800
000800
000800
000800
000800
001000
001000
001000
000C00
000200
000200
000200
000200
00FC00
ENDCHAR
STARTCHAR 0163
ENCODING 355
SWIDTH 382 0
DWIDTH 17 0
BBX 15 37 1 -9
BITMAP
0800
0800
0800
0800
0800
FFF8
0800
0800
0800
0800
0800
0800
0800
0800
0800
0800
0800
0800
0800
0800
0800
0800
0800
0800
0400
0400
0206
01F8
0040
0040
00C0
0030
0008
0008
0008
0008
03F0
ENDCHAR
STARTCHAR 0164
ENCODING 356
SWIDTH 540 0
DWIDTH 24 0
BBX 24 39 0 0
BITMAP
020040
018080
00C100
006600
001C00
000000
000000
000000
FFFFFF
000800
000800
000800
000800
000800
000800
000800
000800
000800
000800
000800
000800
000800
000800
000800
000800
000800
000800
000800
000800
000800
000800
000800
000800
000800
000800
000800
000800
000800
000800
ENDCHAR
STARTCHAR 0165
ENCODING 357
SWIDTH 382 0
DWIDTH 17 0
BBX 15 34 1 0
BITMAP
0020
0020
0020
0020
0020
0020
0820
0800
0800
0800
0800
FFF8
0800
0800
0800
0800
0800
0800
0800
0800
0800
0800
0800
0800
0800
0800
0800
0800
0800
0800
0400
0400
0206
01F8
ENDCHAR
STARTCHAR 0166
ENCODING 358
SWIDTH 540 0
DWIDTH 24 0
BBX 24 31 0 0
BITMAP
FFFFFF
000800
000800
000800
000800
000800
000800
000800
000800
000800
000800
000800
000800
000800
000800
0FFFF0
000800
000800
000800
000800
000800
000800
000800
000800
000800
000800
000800
000800
000800
000800
000800
ENDCHAR
STARTCHAR 0167
ENCODING 359
SWIDTH 382 0
DWIDTH 17 0
BBX 15 28 1 0
BITMAP
0400
0400
0400
0400
0400
FFF8
0400
0400
0400
0400
0400
0400
0400
0400
7FF8
0400
0400
0400
0400
0400
0400
0400
0400
0400
0400
0400
0206
01F8
ENDCHAR
STARTCHAR 0168
ENCODING 360
SWIDTH 787 0
DWIDTH 35 0
BBX 24 38 6 0
BITMAP
01E040
021080
020880
000700
000000
000000
000000
800001
800001
800001
800001
800001
800001
800001
800001
800001
800001
800001
800001
800001
800001
800001
800001
800001
800001
800001
800001
800001
800002
800002
800002
400002
400004
20000C
300008
080030
0600C0
01FF00
ENDCHAR
STARTCHAR 0169
ENCODING 361
SWIDTH 652 0
DWIDTH 29 0
BBX 19 31 5 0
BITMAP
078100
084200
083600
000800
000000
000000
000000
000000
800020
800020
800020
800020
800020
800020
800020
800020
800020
800020
800020
800020
800020
800020
800020
800020
800020
800060
400060
4000A0
200120
180620
07F820
ENDCHAR
STARTCHAR 016A
ENCODING 362
SWIDTH 787 0
DWIDTH 35 0
BBX 24 37 6 0
BITMAP
03FFC0
000000
000000
000000
000000
000000
800001
800001
800001
800001
800001
800001
800001
800001
800001
800001
800001
800001
800001
800001
800001
800001
800001
800001
800001
800001
800001
800002
800002
800002
400002
400004
20000C
300008
080030
0600C0
01FF00
ENDCHAR
STARTCHAR 016B
ENCODING 363
SWIDTH 652 0
DWIDTH 29 0
BBX 19 30 5 0
BITMAP
0FFF00
000000
000000
000000
000000
000000
000000
800020
800020
800020
800020
800020
800020
800020
800020
800020
800020
800020
800020
800020
800020
800020
800020
800020
800060
400060
4000A0
200120
180620
07F820
ENDCHAR
STARTCHAR 016C
ENCODING 364
SWIDTH 787 0
DWIDTH 35 0
BBX 24 39 6 0
BITMAP
020040
020080
020080
010100
00E600
001800
000000
000000
800001
800001
800001
800001
800001
800001
800001
800001
800001
800001
800001
800001
800001
800001
800001
800001
800001
800001
800001
800001
800001
800002
800002
800002
400002
400004
20000C
300008
080030
0600C0
01FF00
ENDCHAR
STARTCHAR 016D
ENCODING 365
SWIDTH 652 0
DWIDTH 29 0
BBX 19 32 5 0
BITMAP
080000
080200
080200
060400
01F800
000000
000000
000000
000000
800020
800020
800020
800020
800020
800020
800020
800020
800020
800020
800020
800020
800020
800020
800020
800020
800020
800060
400060
4000A0
200120
180620
07F820
ENDCHAR
STARTCHAR 016E
ENCODING 366
SWIDTH 787 0
DWIDTH 35 0
BBX 24 43 6 0
BITMAP
003800
004600
008200
008100
010100
008100
008200
007C00
000000
000000
000000
000000
800001
800001
800001
800001
800001
800001
800001
800001
800001
800001
800001
800001
800001
800001
800001
800001
800001
800001
800001
800001
800001
800002
800002
800002
400002
400004
20000C
300008
080030
0600C0
01FF00
ENDCHAR
STARTCHAR 016F
ENCODING 367
SWIDTH 652 0
DWIDTH 29 0
BBX 19 35 5 0
BITMAP
00E000
011000
020800
040400
040400
020400
020800
01B000
004000
000000
000000
000000
800020
800020
800020
800020
800020
800020
800020
800020
800020
800020
800020
800020
800020
800020
800020
800020
800020
800060
400060
4000A0
200120
180620
07F820
ENDCHAR
STARTCHAR 0170
ENCODING 368
SWIDTH 787 0
DWIDTH 35 0
BBX 24 39 6 0
BITMAP
000418
000820
001040
002080
004100
008000
000000
000000
800001
800001
800001
800001
800001
800001
800001
800001
800001
800001
800001
800001
800001
800001
800001
800001
800001
800001
800001
800001
800001
800002
800002
800002
400002
400004
20000C
300008
080030
0600C0
01FF00
ENDCHAR
STARTCHAR 0171
ENCODING 369
SWIDTH 652 0
DWIDTH 29 0
BBX 19 32 5 0
BITMAP
003040
006080
00C100
018200
030400
000000
000000
000000
000000
800020
800020
800020
800020
800020
800020
800020
800020
800020
800020
800020
800020
800020
800020
800020
800020
800020
800060
400060
4000A0
200120
180620
07F820
ENDCHAR
STARTCHAR 0172
ENCODING 370
SWIDTH 787 0
DWIDTH 35 0
BBX 24 40 6 -9
BITMAP
800001
800001
800001
800001
800001
800001
800001
800001
800001
800001
800001
800001
800001
800001
800001
800001
800001
800001
800001
800001
800001
800002
800002
800002
400002
400004
20000C
300008
080030
0600C0
01FF00
000C00
003000
004000
004000
008000
008000
008000
008000
007E00
ENDCHAR
STARTCHAR 0173
ENCODING 371
SWIDTH 652 0
DWIDTH 29 0
BBX 20 32 5 -9
BITMAP
800020
800020
800020
800020
800020
800020
800020
800020
800020
800020
800020
800020
800020
800020
800020
800020
800020
800060
400060
4000A0
200120
180620
07F820
000040
000180
000200
000400
000400
000400
000400
000400
0003F0
ENDCHAR
STARTCHAR 0174
ENCODING 372
SWIDTH 1080 0
DWIDTH 48 0
BBX 44 39 2 0
BITMAP
000006000000
00000F000000
000010800000
000020400000
000040200000
000080100000
000000000000
000000000000
800006000010
400006000020
400006000020
400009000020
200009000040
200011000040
200010800040
100010800080
100020800080
100020400080
080020400100
080040200100
080040200100
040040200200
040080100200
040080100200
020080100400
020100080400
020100080400
010100080800
010200040800
010200040800
008200041000
008400021000
008400021000
004800022000
004800012000
004800012000
003000014000
00300000C000
00300000C000
ENDCHAR
STARTCHAR 0175
ENCODING 373
SWIDTH 832 0
DWIDTH 37 0
BBX 36 32 1 0
BITMAP
0000E00000
0001B00000
0003080000
0006040000
0008020000
0000000000
0000000000
0000000000
0000000000
8000400010
8000600020
8000A00020
4000A00040
4001100040
6001100040
2001080080
2002080080
1002080100
1004040100
1004040100
0804040200
0808020200
0408020200
0410010400
0410010400
0210010800
0220008800
0220008800
0140005000
0140005000
00C0006000
0080002000
ENDCHAR
STARTCHAR 0176
ENCODING 374
SWIDTH 607 0
DWIDTH 27 0
BBX 25 39 1 0
BITMAP
00080000
00140000
00230000
00C18000
0180C000
00000000
00000000
00000000
80000080
80000080
40000100
20000200
20000200
10000400
08000400
08000800
04001000
04001000
02002000
01006000
01004000
00808000
00C08000
00410000
00220000
00220000
00140000
000C0000
00080000
00080000
00080000
00080000
00080000
00080000
00080000
00080000
00080000
00080000
00080000
ENDCHAR
STARTCHAR 0177
ENCODING 375
SWIDTH 495 0
DWIDTH 22 0
BBX 23 41 -1 -9
BITMAP
001800
006C00
00C200
018100
020080
000000
000000
000000
000000
600002
200002
200004
100004
100008
080008
080010
040010
040020
020020
020060
010040
010040
010080
008080
008100
004100
004200
002200
002400
001400
001800
000800
000800
001000
001000
002000
002000
004000
808000
C10000
3E0000
ENDCHAR
STARTCHAR 0178
ENCODING 376
SWIDTH 607 0
DWIDTH 27 0
BBX 25 37 1 0
BITMAP
00C18000
00C18000
00000000
00000000
00000000
00000000
80000080
80000080
40000100
20000200
20000200
10000400
08000400
08000800
04001000
04001000
02002000
01006000
01004000
00808000
00C08000
00410000
00220000
00220000
00140000
000C0000
00080000
00080000
00080000
00080000
00080000
00080000
00080000
00080000
00080000
00080000
00080000
ENDCHAR
STARTCHAR 0179
ENCODING 377
SWIDTH 630 0
DWIDTH 28 0
BBX 25 39 2 0
BITMAP
00004000
00018000
00030000
00040000
00080000
00100000
00000000
00000000
FFFFFF00
00000300
00000200
00000400
00000800
00001000
00001000
00002000
00004000
00008000
00018000
00010000
00020000
00040000
000C0000
00080000
00100000
00200000
00400000
00400000
00800000
01000000
02000000
06000000
04000000
08000000
10000000
30000000
20000000
40000000
FFFFFF80
ENDCHAR
STARTCHAR 017A
ENCODING 378
SWIDTH 472 0
DWIDTH 21 0
BBX 18 32 2 0
BITMAP
000400
001800
003000
004000
008000
000000
000000
000000
000000
FFFF80
000080
000100
000200
000600
000400
000800
001000
003000
002000
004000
008000
018000
010000
020000
040000
0C0000
080000
100000
200000
600000
400000
FFFFC0
ENDCHAR
STARTCHAR 017B
ENCODING 379
SWIDTH 630 0
DWIDTH 28 0
BBX 25 37 2 0
BITMAP
001C0000
00080000
00000000
00000000
00000000
00000000
FFFFFF00
00000300
00000200
00000400
00000800
00001000
00001000
00002000
00004000
00008000
00018000
00010000
00020000
00040000
000C0000
00080000
00100000
00200000
00400000
00400000
00800000
01000000
02000000
06000000
04000000
08000000
10000000
30000000
20000000
40000000
FFFFFF80
ENDCHAR
STARTCHAR 017C
ENCODING 380
SWIDTH 472 0
DWIDTH 21 0
BBX 18 31 2 0
BITMAP
00C000
00C000
000000
000000
000000
000000
000000
000000
FFFF80
000080
000100
000200
000600
000400
000800
001000
003000
002000
004000
008000
018000
010000
020000
040000
0C0000
080000
100000
200000
600000
400000
FFFFC0
ENDCHAR
STARTCHAR 017D
ENCODING 381
SWIDTH 630 0
DWIDTH 28 0
BBX 25 39 2 0
BITMAP
03006000
01808000
00410000
00220000
00140000
00080000
00000000
00000000
FFFFFF00
00000300
00000200
00000400
00000800
00001000
00001000
00002000
00004000
00008000
00018000
00010000
00020000
00040000
000C0000
00080000
00100000
00200000
00400000
00400000
00800000
01000000
02000000
06000000
04000000
08000000
10000000
30000000
20000000
40000000
FFFFFF80
ENDCHAR
STARTCHAR 017E
ENCODING 382
SWIDTH 472 0
DWIDTH 21 0
BBX 18 32 2 0
BITMAP
100600
0C0C00
061000
032000
00C000
000000
000000
000000
000000
FFFF80
000080
000100
000200
000600
000400
000800
001000
003000
002000
004000
008000
018000
010000
020000
040000
0C0000
080000
100000
200000
600000
400000
FFFFC0
ENDCHAR
STARTCHAR 017F
ENCODING 383
SWIDTH 270 0
DWIDTH 12 0
BBX 14 33 2 0
BITMAP
01F8
060C
0400
0800
0800
0800
0800
0800
0800
0800
F800
0800
0800
0800
0800
0800
0800
0800
0800
0800
0800
0800
0800
0800
0800
0800
0800
0800
0800
0800
0800
0800
0800
ENDCHAR
STARTCHAR 018F
ENCODING 399
SWIDTH 810 0
DWIDTH 36 0
BBX 31 31 3 0
BITMAP
007FF000
01800C00
06000300
08000080
00000040
00000020
00000010
00000008
00000008
00000004
00000004
00000004
00000004
00000002
00000002
FFFFFFFE
80000002
80000004
80000004
80000004
80000004
40000008
40000008
20000010
20000010
10000020
08000040
04000080
03000300
00C00C00
003FF000
ENDCHAR
STARTCHAR 0192
ENCODING 402
SWIDTH 405 0
DWIDTH 18 0
BBX 23 42 -3 -9
BITMAP
0000FC
000302
000200
000400
000400
000800
000800
000800
000800
000800
01FFF8
000800
000800
001000
001000
001000
001000
001000
001000
001000
001000
001000
002000
002000
002000
002000
002000
002000
002000
002000
004000
004000
004000
004000
004000
004000
004000
008000
008000
010000
820000
380000
ENDCHAR
STARTCHAR 01A0
ENCODING 416
SWIDTH 832 0
DWIDTH 37 0
BBX 32 37 3 1
BITMAP
00000004
00000002
00000002
00000002
00000004
00000004
003FFFF8
00C00600
03000180
04000040
08000020
10000010
20000008
20000008
40000004
40000004
80000002
80000002
80000002
80000002
80000002
80000001
80000002
80000002
80000002
80000002
80000002
40000004
40000004
20000008
20000008
10000010
08000020
06000040
03000180
00E00600
001FF800
ENDCHAR
STARTCHAR 01A1
ENCODING 417
SWIDTH 607 0
DWIDTH 27 0
BBX 23 29 2 0
BITMAP
000004
000004
000004
000004
000004
000008
00FFF0
020080
0C0060
100010
300008
200008
400004
400004
400004
800002
800002
800002
800002
800002
400004
400004
400004
200008
300008
100010
0C0060
0300C0
00FF00
ENDCHAR
STARTCHAR 01AF
ENCODING 431
SWIDTH 787 0
DWIDTH 35 0
BBX 28 37 6 1
BITMAP
00000020
00000010
00000010
00000010
00000010
00000020
80000180
80000100
80000100
80000100
80000100
80000100
80000100
80000100
80000100
80000100
80000100
80000100
80000100
80000100
80000100
80000100
80000100
80000100
80000100
80000100
80000100
80000200
80000200
80000200
40000200
40000400
20000C00
30000800
08003000
0600C000
01FF0000
ENDCHAR
STARTCHAR 01B0
ENCODING 432
SWIDTH 652 0
DWIDTH 29 0
BBX 23 29 5 0
BITMAP
000006
000002
000002
000002
000002
000004
800038
800020
800020
800020
800020
800020
800020
800020
800020
800020
800020
800020
800020
800020
800020
800020
800020
800060
400060
4000A0
200120
180620
07F820
ENDCHAR
STARTCHAR 01B7
ENCODING 439
SWIDTH 585 0
DWIDTH 26 0
BBX 22 31 2 0
BITMAP
7FFFF0
000010
000020
000040
000080
000100
000100
000200
000400
000800
001000
001000
002000
004000
007F00
0000C0
000020
000010
000008
000008
000008
000004
000004
000004
000008
000008
000008
C00010
600020
1800C0
07FF00
ENDCHAR
STARTCHAR 01C4
ENCODING 452
SWIDTH 1440 0
DWIDTH 64 0
BBX 57 39 6 0
BITMAP
0000000003006000
0000000001808000
0000000000410000
0000000000220000
0000000000140000
0000000000080000
0000000000000000
0000000000000000
FFFF8000FFFFFF00
8000600000000300
8000180000000200
8000060000000400
8000030000000800
8000008000001000
8000008000001000
8000004000002000
8000002000004000
8000002000008000
8000002000018000
8000001000010000
8000001000020000
8000001000040000
80000010000C0000
8000001000080000
8000001000100000
8000001000200000
8000001000400000
8000001000400000
8000002000800000
8000002001000000
8000002002000000
8000004006000000
8000008004000000
8000018008000000
8000030010000000
8000060030000000
8000180020000000
8000600040000000
FFFF8000FFFFFF80
ENDCHAR
STARTCHAR 01C5
ENCODING 453
SWIDTH 1305 0
DWIDTH 58 0
BBX 50 32 6 0
BITMAP
00000000080200
FFFF8000040400
80006000020800
80001800019000
8000060000E000
80000300000000
80000080000000
80000080000000
80000040000000
800000207FFFC0
800000200000C0
80000020000080
80000010000100
80000010000200
80000010000600
80000010000400
80000010000800
80000010001000
80000010003000
80000010002000
80000010004000
80000020008000
80000020018000
80000020010000
80000040020000
80000080040000
800001800C0000
80000300080000
80000600100000
80001800200000
80006000400000
FFFF80007FFFC0
ENDCHAR
STARTCHAR 01C6
ENCODING 454
SWIDTH 1170 0
DWIDTH 52 0
BBX 48 33 2 0
BITMAP
000002000000
000002004018
000002003020
000002001840
000002000C80
000002000700
000002000000
000002000000
000002000000
000002000000
00FE0203FFFE
020182000002
0C0062000004
100012000008
30000A000018
20000A000010
400006000020
400006000040
400006000080
800002000080
800002000100
800002000200
800002000400
800002000400
400006000800
400006001000
400006002000
20000A002000
30000A004000
100012008000
0C0062010000
030082010000
00FF0203FFFF
ENDCHAR
STARTCHAR 01C7
ENCODING 455
SWIDTH 1035 0
DWIDTH 46 0
BBX 35 31 6 0
BITMAP
800001FFE0
8000000020
8000000020
8000000020
8000000020
8000000020
8000000020
8000000020
8000000020
8000000020
8000000020
8000000020
8000000020
8000000020
8000000020
8000000020
8000000020
8000000020
8000000020
8000000020
8000000020
8000000020
8000000020
8000000020
8000000020
8000000020
8000080020
80000C0040
8000060040
8000010180
FFFFE0FE00
ENDCHAR
STARTCHAR 01C8
ENCODING 456
SWIDTH 832 0
DWIDTH 37 0
BBX 27 41 6 -9
BITMAP
00000040
800000E0
80000040
80000000
80000000
80000000
80000000
80000000
80000000
80000040
80000040
80000040
80000040
80000040
80000040
80000040
80000040
80000040
80000040
80000040
80000040
80000040
80000040
80000040
80000040
80000040
80000040
80000040
80000040
80000040
80000040
FFFFE040
00000040
00000040
00000040
00000040
00000040
00000040
00000080
0000C100
00001E00
ENDCHAR
STARTCHAR 01C9
ENCODING 457
SWIDTH 495 0
DWIDTH 22 0
BBX 13 42 5 -9
BITMAP
8000
8000
8018
8000
8000
8000
8000
8000
8000
8000
8010
8010
8010
8010
8010
8010
8010
8010
8010
8010
8010
8010
8010
8010
8010
8010
8010
8010
8010
8010
8010
8010
8010
0010
0010
0010
0010
0010
0010
0020
1860
0700
ENDCHAR
STARTCHAR 01CA
ENCODING 458
SWIDTH 1282 0
DWIDTH 57 0
BBX 46 31 6 0
BITMAP
800001007FFC
C00001000004
A00001000004
A00001000004
900001000004
880001000004
840001000004
860001000004
820001000004
810001000004
808001000004
80C001000004
804001000004
802001000004
801001000004
800801000004
800C01000004
800401000004
800201000004
800101000004
800181000004
800081000004
800041000004
800021000004
800011000004
800011000004
800009000008
800005010008
800003008010
800003006020
800001001FC0
ENDCHAR
STARTCHAR 01CB
ENCODING 459
SWIDTH 1057 0
DWIDTH 47 0
BBX 37 40 6 -8
BITMAP
8000010018
C000010010
A000010000
A000010000
9000010000
8800010000
8400010000
8600010000
8200010000
8100010010
8080010010
80C0010010
8040010010
8020010010
8010010010
8008010010
800C010010
8004010010
8002010010
8001010010
8001810010
8000810010
8000410010
8000210010
8000110010
8000110010
8000090010
8000050010
8000030010
8000030010
8000010010
0000000010
0000000010
0000000010
0000000010
0000000010
0000000010
0000000010
0000001860
0000000780
ENDCHAR
STARTCHAR 01CC
ENCODING 460
SWIDTH 922 0
DWIDTH 41 0
BBX 32 41 5 -9
BITMAP
00000002
00000007
00000002
00000000
00000000
00000000
00000000
00000000
00000000
81FC0002
86030002
9800C002
B0004002
A0002002
C0002002
C0001002
80001002
80001002
80001002
80001002
80001002
80001002
80001002
80001002
80001002
80001002
80001002
80001002
80001002
80001002
80001002
80001002
00000002
00000002
00000002
00000002
00000002
00000002
00000404
00000608
000000F0
ENDCHAR
STARTCHAR 01CD
ENCODING 461
SWIDTH 675 0
DWIDTH 30 0
BBX 29 39 1 0
BITMAP
00801000
00602000
00304000
00088000
00070000
00000000
00000000
00000000
00020000
00060000
00050000
00090000
00088000
00108000
00104000
00204000
00202000
00402000
00401000
00801000
00800800
00800800
01000400
01000400
02000400
02000200
04000200
04000100
08000100
0FFFFF80
10000080
10000040
20000040
20000020
40000020
40000010
40000010
80000010
80000008
ENDCHAR
STARTCHAR 01CE
ENCODING 462
SWIDTH 562 0
DWIDTH 25 0
BBX 18 32 3 0
BITMAP
180200
0C0C00
021800
013000
00C000
000000
000000
000000
000000
07F800
180600
600100
400080
000080
000080
000040
000040
000040
000040
000040
1FFFC0
200040
400040
800040
800040
800040
8000C0
8000C0
400140
400240
300C40
0FF040
ENDCHAR
STARTCHAR 01D3
ENCODING 467
SWIDTH 787 0
DWIDTH 35 0
BBX 24 39 6 0
BITMAP
020040
010180
008300
004400
002800
000000
000000
000000
800001
800001
800001
800001
800001
800001
800001
800001
800001
800001
800001
800001
800001
800001
800001
800001
800001
800001
800001
800001
800001
800002
800002
800002
400002
400004
20000C
300008
080030
0600C0
01FF00
ENDCHAR
STARTCHAR 01D4
ENCODING 468
SWIDTH 652 0
DWIDTH 29 0
BBX 19 32 5 0
BITMAP
080200
040400
030800
019000
00E000
000000
000000
000000
000000
800020
800020
800020
800020
800020
800020
800020
800020
800020
800020
800020
800020
800020
800020
800020
800020
800020
800060
400060
4000A0
200120
180620
07F820
ENDCHAR
STARTCHAR 01E4
ENCODING 484
SWIDTH 787 0
DWIDTH 35 0
BBX 32 31 3 0
BITMAP
001FF800
00E00600
03000180
04000040
08000000
10000000
20000000
20000000
40000000
40000000
80000000
80000000
80000000
80000000
80000000
80000000
80000040
80000040
80000040
80000040
8000FFFF
40000040
40000040
20000040
30000040
10000040
08000040
06000040
03000180
00E00600
001FF800
ENDCHAR
STARTCHAR 01E5
ENCODING 485
SWIDTH 675 0
DWIDTH 30 0
BBX 26 32 2 -9
BITMAP
00FF0200
0200C200
0C002200
10001200
20000A00
20000600
40000600
40000200
40000200
80000200
80000200
80000200
80000200
40000200
40000200
40000600
20000600
20000A00
10001200
08002200
0600C200
01FF0200
00000200
00000200
00000200
001FFFC0
00000400
00000400
10000800
0C003000
0380E000
007F0000
ENDCHAR
STARTCHAR 01E6
ENCODING 486
SWIDTH 765 0
DWIDTH 34 0
BBX 26 38 3 0
BITMAP
00601000
00106000
000CC000
00078000
00000000
00000000
00000000
001FF800
00E00600
03000180
04000040
08000000
10000000
20000000
20000000
40000000
40000000
80000000
80000000
80000000
80000000
80000000
80000000
80000040
80000040
80000040
80000040
80000040
40000040
40000040
20000040
30000040
10000040
08000040
06000040
03000180
00E00600
001FF800
ENDCHAR
STARTCHAR 01E7
ENCODING 487
SWIDTH 675 0
DWIDTH 30 0
BBX 23 41 2 -9
BITMAP
0300C0
018180
00C300
002400
001800
000000
000000
000000
000000
00FF02
0200C2
0C0022
100012
20000A
200006
400006
400002
400002
800002
800002
800002
800002
400002
400002
400006
200006
20000A
100012
080022
0600C2
01FF02
000002
000002
000002
000004
000004
000004
100008
0C0030
0380E0
007F00
ENDCHAR
STARTCHAR 01E8
ENCODING 488
SWIDTH 675 0
DWIDTH 30 0
BBX 24 39 6 0
BITMAP
0C0180
060200
010400
008800
005000
002000
000000
000000
800006
80000C
800018
800030
800060
8000C0
800180
800300
800600
800400
800800
801000
802000
804000
808000
814000
822000
841000
880800
900400
A00200
C00100
800180
800080
800040
800020
800010
800008
800004
800002
800003
ENDCHAR
STARTCHAR 01E9
ENCODING 489
SWIDTH 562 0
DWIDTH 25 0
BBX 24 42 0 0
BITMAP
802000
404000
208000
1B0000
0E0000
000000
000000
000000
000000
040000
040000
040000
040000
040000
040000
040000
040000
040000
040000
040002
040004
040018
040030
040060
0400C0
040100
040200
040400
040C00
041600
042200
044100
058080
070040
040060
040020
040010
040008
040004
040006
040002
040001
ENDCHAR
STARTCHAR 01EA
ENCODING 490
SWIDTH 832 0
DWIDTH 37 0
BBX 32 40 3 -9
BITMAP
003FF800
00C00600
03000180
04000040
08000020
10000010
20000008
20000008
40000004
40000004
80000002
80000002
80000002
80000002
80000002
80000001
80000001
80000002
80000002
80000002
80000002
40000004
40000004
20000008
20000008
10000010
08000020
06000040
03000180
00E00600
001FF800
00018000
00020000
00040000
00080000
00100000
00100000
00100000
00080000
000FC000
ENDCHAR
STARTCHAR 01EB
ENCODING 491
SWIDTH 607 0
DWIDTH 27 0
BBX 23 32 2 -9
BITMAP
00FE00
020180
0C0060
100010
300008
200008
400004
400004
400004
800002
800002
800002
800002
800002
400004
400004
400004
200008
300008
100010
0C0060
030080
00FF00
000C00
001000
002000
004000
004000
004000
004000
004000
003F00
ENDCHAR
STARTCHAR 01EE
ENCODING 494
SWIDTH 585 0
DWIDTH 26 0
BBX 22 39 2 0
BITMAP
040080
020300
010600
008C00
007000
000000
000000
000000
7FFFF0
000010
000020
000040
000080
000100
000100
000200
000400
000800
001000
001000
002000
004000
007F00
0000C0
000020
000010
000008
000008
000008
000004
000004
000004
000008
000008
000008
C00010
600020
1800C0
07FF00
ENDCHAR
STARTCHAR 01EF
ENCODING 495
SWIDTH 472 0
DWIDTH 21 0
BBX 21 41 -1 -9
BITMAP
040100
020200
010400
00D800
007000
000000
000000
000000
000000
7FFFF0
000020
000040
0000C0
000080
000100
000200
000600
000400
000800
001000
003000
002000
004000
00F800
000700
0000C0
000020
000010
000010
000010
000008
000008
000008
000008
000010
000010
800010
400020
300040
0E0300
01FC00
ENDCHAR
STARTCHAR 01FA
ENCODING 506
SWIDTH 675 0
DWIDTH 30 0
BBX 29 45 1 0
BITMAP
00001800
00003000
00076000
0018C000
00104000
00204000
00204000
00204000
00104000
000F8000
00000000
00000000
00000000
00000000
00020000
00060000
00050000
00090000
00088000
00108000
00104000
00204000
00202000
00402000
00401000
00801000
00800800
00800800
01000400
01000400
02000400
02000200
04000200
04000100
08000100
0FFFFF80
10000080
10000040
20000040
20000020
40000020
40000010
40000010
80000010
80000008
ENDCHAR
STARTCHAR 01FB
ENCODING 507
SWIDTH 562 0
DWIDTH 25 0
BBX 18 37 3 0
BITMAP
000300
000600
00CC00
033800
060800
040800
040800
040800
020800
033000
00C000
000000
000000
000000
07F800
180600
600100
400080
000080
000080
000040
000040
000040
000040
000040
1FFFC0
200040
400040
800040
800040
800040
8000C0
8000C0
400140
400240
300C40
0FF040
ENDCHAR
STARTCHAR 01FC
ENCODING 508
SWIDTH 990 0
DWIDTH 44 0
BBX 41 39 1 0
BITMAP
000000C00000
000001800000
000003000000
000004000000
000018000000
000000000000
000000000000
000000000000
00001FFFFF00
000028000000
000068000000
000048000000
000088000000
000088000000
000108000000
000208000000
000208000000
000408000000
000808000000
000808000000
001008000000
001008000000
002008000000
00400FFFFC00
004008000000
008008000000
010008000000
010008000000
020008000000
07FFF8000000
040008000000
080008000000
080008000000
100008000000
200008000000
200008000000
400008000000
800008000000
80000FFFFF80
ENDCHAR
STARTCHAR 01FD
ENCODING 509
SWIDTH 967 0
DWIDTH 43 0
BBX 38 32 3 0
BITMAP
0000060000
0000080000
0000300000
0000600000
0000800000
0000000000
0000000000
0000000000
0000000000
07F800FE00
1806030180
60010C0040
4000880020
0000900010
0000A00008
0000600008
0000400004
0000400004
0000400004
0000400004
1FFFFFFFF8
2000400000
4000400000
8000400000
8000400000
8000A00000
8000A00000
8000900000
4001080018
4002040030
300C0300C0
0FF000FF00
ENDCHAR
STARTCHAR 01FE
ENCODING 510
SWIDTH 832 0
DWIDTH 37 0
BBX 32 42 3 -3
BITMAP
00000C00
00003000
00006000
00008000
00010000
00020008
00000018
00000010
003FF820
00C00640
030001C0
040000C0
08000120
10000210
20000208
20000408
40000804
40001004
80001002
80002002
80004002
8000C002
80008002
80010001
80020002
80020002
80040002
80080002
80100002
40100004
40200004
20400008
20800008
10800010
09000020
06000040
03000180
04E00600
081FF800
10000000
10000000
20000000
ENDCHAR
STARTCHAR 01FF
ENCODING 511
SWIDTH 607 0
DWIDTH 27 0
BBX 23 35 2 -3
BITMAP
000180
000300
000400
001800
003000
000000
000004
000008
000010
00FE30
0201A0
0C0060
1000D0
300088
200108
400204
400204
400404
800802
800802
801002
802002
802002
404004
408004
408004
210008
320008
120010
0C0060
0B00C0
08FF00
100000
200000
200000
ENDCHAR
STARTCHAR 0200
ENCODING 512
SWIDTH 675 0
DWIDTH 30 0
BBX 29 39 1 0
BITMAP
06080000
03040000
00820000
00410000
00208000
00000000
00000000
00000000
00020000
00060000
00050000
00090000
00088000
00108000
00104000
00204000
00202000
00402000
00401000
00801000
00800800
00800800
01000400
01000400
02000400
02000200
04000200
04000100
08000100
0FFFFF80
10000080
10000040
20000040
20000020
40000020
40000010
40000010
80000010
80000008
ENDCHAR
STARTCHAR 0201
ENCODING 513
SWIDTH 562 0
DWIDTH 25 0
BBX 18 32 3 0
BITMAP
410000
208000
104000
082000
041000
000000
000000
000000
000000
07F800
180600
600100
400080
000080
000080
000040
000040
000040
000040
000040
1FFFC0
200040
400040
800040
800040
800040
8000C0
8000C0
400140
400240
300C40
0FF040
ENDCHAR
STARTCHAR 0202
ENCODING 514
SWIDTH 675 0
DWIDTH 30 0
BBX 29 39 1 0
BITMAP
00060000
0038C000
00602000
00401000
00801000
00000000
00000000
00000000
00020000
00060000
00050000
00090000
00088000
00108000
00104000
00204000
00202000
00402000
00401000
00801000
00800800
00800800
01000400
01000400
02000400
02000200
04000200
04000100
08000100
0FFFFF80
10000080
10000040
20000040
20000020
40000020
40000010
40000010
80000010
80000008
ENDCHAR
STARTCHAR 0203
ENCODING 515
SWIDTH 562 0
DWIDTH 25 0
BBX 18 32 3 0
BITMAP
01F000
060800
080400
100200
100200
000000
000000
000000
000000
07F800
180600
600100
400080
000080
000080
000040
000040
000040
000040
000040
1FFFC0
200040
400040
800040
800040
800040
8000C0
8000C0
400140
400240
300C40
0FF040
ENDCHAR
STARTCHAR 0204
ENCODING 516
SWIDTH 652 0
DWIDTH 29 0
BBX 21 39 6 0
BITMAP
618000
30C000
186000
0C3000
060800
000000
000000
000000
FFFFF0
800000
800000
800000
800000
800000
800000
800000
800000
800000
800000
800000
800000
800000
800000
FFFFC0
800000
800000
800000
800000
800000
800000
800000
800000
800000
800000
800000
800000
800000
800000
FFFFF8
ENDCHAR
STARTCHAR 0205
ENCODING 517
SWIDTH 585 0
DWIDTH 26 0
BBX 22 32 2 0
BITMAP
104000
082000
041000
020800
010400
000000
000000
000000
000000
01FE00
060180
080040
100020
200010
200010
400008
400008
400008
800004
800004
FFFFF8
800000
800000
400000
400000
400000
200000
300000
180010
0C0020
0300C0
00FF00
ENDCHAR
STARTCHAR 0206
ENCODING 518
SWIDTH 652 0
DWIDTH 29 0
BBX 21 39 6 0
BITMAP
00F000
030C00
040200
080200
080100
000000
000000
000000
FFFFF0
800000
800000
800000
800000
800000
800000
800000
800000
800000
800000
800000
800000
800000
800000
FFFFC0
800000
800000
800000
800000
800000
800000
800000
800000
800000
800000
800000
800000
800000
800000
FFFFF8
ENDCHAR
STARTCHAR 0207
ENCODING 519
SWIDTH 585 0
DWIDTH 26 0
BBX 22 32 2 0
BITMAP
00FC00
010200
020100
040080
040080
000000
000000
000000
000000
01FE00
060180
080040
100020
200010
200010
400008
400008
400008
800004
800004
FFFFF8
800000
800000
400000
400000
400000
200000
300000
180010
0C0020
0300C0
00FF00
ENDCHAR
STARTCHAR 0208
ENCODING 520
SWIDTH 270 0
DWIDTH 12 0
BBX 13 39 -3 0
BITMAP
C100
2080
1040
0820
0410
0008
0000
0000
0040
0040
0040
0040
0040
0040
0040
0040
0040
0040
0040
0040
0040
0040
0040
0040
0040
0040
0040
0040
0040
0040
0040
0040
0040
0040
0040
0040
0040
0040
0040
ENDCHAR
STARTCHAR 0209
ENCODING 521
SWIDTH 247 0
DWIDTH 11 0
BBX 12 32 -3 0
BITMAP
8300
6180
30C0
1860
0C30
0000
0000
0000
0000
0080
0080
0080
0080
0080
0080
0080
0080
0080
0080
0080
0080
0080
0080
0080
0080
0080
0080
0080
0080
0080
0080
0080
ENDCHAR
STARTCHAR 020A
ENCODING 522
SWIDTH 270 0
DWIDTH 12 0
BBX 12 39 0 0
BITMAP
0700
38C0
6020
4010
8010
0000
0000
0000
0200
0200
0200
0200
0200
0200
0200
0200
0200
0200
0200
0200
0200
0200
0200
0200
0200
0200
0200
0200
0200
0200
0200
0200
0200
0200
0200
0200
0200
0200
0200
ENDCHAR
STARTCHAR 020B
ENCODING 523
SWIDTH 247 0
DWIDTH 11 0
BBX 9 32 1 0
BITMAP
3E00
4100
8080
8080
8080
0000
0000
0000
0000
0800
0800
0800
0800
0800
0800
0800
0800
0800
0800
0800
0800
0800
0800
0800
0800
0800
0800
0800
0800
0800
0800
0800
ENDCHAR
STARTCHAR 020C
ENCODING 524
SWIDTH 832 0
DWIDTH 37 0
BBX 32 39 3 0
BITMAP
01040000
00820000
00410000
00208000
00104000
00082000
00000000
00000000
003FF800
00C00600
03000180
04000040
08000020
10000010
20000008
20000008
40000004
40000004
80000002
80000002
80000002
80000002
80000002
80000001
80000002
80000002
80000002
80000002
80000002
40000004
40000004
20000008
20000008
10000010
08000020
06000040
03000180
00E00600
001FF800
ENDCHAR
STARTCHAR 020D
ENCODING 525
SWIDTH 607 0
DWIDTH 27 0
BBX 23 32 2 0
BITMAP
106000
0C3000
061800
030C00
018600
000000
000000
000000
000000
00FE00
020180
0C0060
100010
300008
200008
400004
400004
400004
800002
800002
800002
800002
800002
400004
400004
400004
200008
300008
100010
0C0060
0300C0
00FF00
ENDCHAR
STARTCHAR 020E
ENCODING 526
SWIDTH 832 0
DWIDTH 37 0
BBX 32 39 3 0
BITMAP
00038000
000C6000
00101800
00200800
00200800
00000000
00000000
00000000
003FF800
00C00600
03000180
04000040
08000020
10000010
20000008
20000008
40000004
40000004
80000002
80000002
80000002
80000002
80000002
80000001
80000002
80000002
80000002
80000002
80000002
40000004
40000004
20000008
20000008
10000010
08000020
06000040
03000180
00E00600
001FF800
ENDCHAR
STARTCHAR 020F
ENCODING 527
SWIDTH 607 0
DWIDTH 27 0
BBX 23 32 2 0
BITMAP
007C00
018300
020080
020080
020080
000000
000000
000000
000000
00FE00
020180
0C0060
100010
300008
200008
400004
400004
400004
800002
800002
800002
800002
800002
400004
400004
400004
200008
300008
100010
0C0060
0300C0
00FF00
ENDCHAR
STARTCHAR 0210
ENCODING 528
SWIDTH 697 0
DWIDTH 31 0
BBX 23 39 6 0
BITMAP
608000
304000
082000
041000
020800
000000
000000
000000
FFFE00
8001C0
800020
800010
800008
800004
800004
800004
800002
800002
800002
800002
800004
800004
800004
800008
800018
800030
8000C0
FFFF00
800300
800100
800080
800040
800040
800020
800010
800018
800008
800004
800002
ENDCHAR
STARTCHAR 0211
ENCODING 529
SWIDTH 382 0
DWIDTH 17 0
BBX 13 32 2 0
BITMAP
8200
4100
2080
1040
0820
0000
0000
0000
0000
1078
1180
1200
1400
1400
1800
1800
1000
1000
1000
1000
1000
1000
1000
1000
1000
1000
1000
1000
1000
1000
1000
1000
ENDCHAR
STARTCHAR 0212
ENCODING 530
SWIDTH 697 0
DWIDTH 31 0
BBX 23 39 6 0
BITMAP
006000
038C00
060200
040100
080100
000000
000000
000000
FFFE00
8001C0
800020
800010
800008
800004
800004
800004
800002
800002
800002
800002
800004
800004
800004
800008
800018
800030
8000C0
FFFF00
800300
800100
800080
800040
800040
800020
800010
800018
800008
800004
800002
ENDCHAR
STARTCHAR 0213
ENCODING 531
SWIDTH 382 0
DWIDTH 17 0
BBX 12 32 4 0
BITMAP
1F80
2040
4020
8010
8010
0000
0000
0000
0000
41E0
4600
4800
5000
5000
6000
6000
4000
4000
4000
4000
4000
4000
4000
4000
4000
4000
4000
4000
4000
4000
4000
4000
ENDCHAR
STARTCHAR 0214
ENCODING 532
SWIDTH 787 0
DWIDTH 35 0
BBX 24 39 6 0
BITMAP
104000
082000
041000
020800
010400
008200
000000
000000
800001
800001
800001
800001
800001
800001
800001
800001
800001
800001
800001
800001
800001
800001
800001
800001
800001
800001
800001
800001
800001
800002
800002
800002
400002
400004
20000C
300008
080030
0600C0
01FF00
ENDCHAR
STARTCHAR 0215
ENCODING 533
SWIDTH 652 0
DWIDTH 29 0
BBX 19 32 5 0
BITMAP
618000
30C000
186000
0C3000
060800
000000
000000
000000
000000
800020
800020
800020
800020
800020
800020
800020
800020
800020
800020
800020
800020
800020
800020
800020
800020
800020
800060
400060
4000A0
200120
180620
07F820
ENDCHAR
STARTCHAR 0216
ENCODING 534
SWIDTH 787 0
DWIDTH 35 0
BBX 24 39 6 0
BITMAP
001800
00C700
010180
020080
020080
000000
000000
000000
800001
800001
800001
800001
800001
800001
800001
800001
800001
800001
800001
800001
800001
800001
800001
800001
800001
800001
800001
800001
800001
800002
800002
800002
400002
400004
20000C
300008
080030
0600C0
01FF00
ENDCHAR
STARTCHAR 0217
ENCODING 535
SWIDTH 652 0
DWIDTH 29 0
BBX 19 32 5 0
BITMAP
01F000
060C00
0C0200
080200
080200
000000
000000
000000
000000
800020
800020
800020
800020
800020
800020
800020
800020
800020
800020
800020
800020
800020
800020
800020
800020
800020
800060
400060
4000A0
200120
180620
07F820
ENDCHAR
STARTCHAR 0218
ENCODING 536
SWIDTH 585 0
DWIDTH 26 0
BBX 21 43 3 -12
BITMAP
03FF00
0C00C0
100030
200000
400000
400000
800000
800000
800000
400000
400000
600000
300000
0C0000
038000
007000
000F00
0000C0
000020
000010
000008
000008
000008
000008
000008
000008
800010
C00010
200020
1C00C0
03FF00
000000
000000
000000
000000
000000
000000
003000
003000
001000
001000
002000
002000
ENDCHAR
STARTCHAR 0219
ENCODING 537
SWIDTH 450 0
DWIDTH 20 0
BBX 17 35 2 -12
BITMAP
0FF800
300600
600100
400000
800000
800000
800000
400000
400000
200000
1C0000
03E000
001C00
000200
000100
000080
000080
000080
000080
000100
C00100
700600
0FF800
000000
000000
000000
000000
000000
000000
018000
008000
008000
008000
008000
010000
ENDCHAR
STARTCHAR 021A
ENCODING 538
SWIDTH 540 0
DWIDTH 24 0
BBX 24 43 0 -12
BITMAP
FFFFFF
000800
000800
000800
000800
000800
000800
000800
000800
000800
000800
000800
000800
000800
000800
000800
000800
000800
000800
000800
000800
000800
000800
000800
000800
000800
000800
000800
000800
000800
000800
000000
000000
000000
000000
000000
000000
001800
001800
000800
000800
001000
001000
ENDCHAR
STARTCHAR 021B
ENCODING 539
SWIDTH 382 0
DWIDTH 17 0
BBX 15 40 1 -12
BITMAP
0800
0800
0800
0800
0800
FFF8
0800
0800
0800
0800
0800
0800
0800
0800
0800
0800
0800
0800
0800
0800
0800
0800
0800
0800
0400
0400
0206
01F8
0000
0000
0000
0000
0000
0000
0060
0060
0040
0040
0040
0040
ENDCHAR
STARTCHAR 021E
ENCODING 542
SWIDTH 810 0
DWIDTH 36 0
BBX 24 39 6 0
BITMAP
020040
010080
00C100
006600
003C00
000000
000000
000000
800001
800001
800001
800001
800001
800001
800001
800001
800001
800001
800001
800001
800001
800001
800001
FFFFFF
800001
800001
800001
800001
800001
800001
800001
800001
800001
800001
800001
800001
800001
800001
800001
ENDCHAR
STARTCHAR 021F
ENCODING 543
SWIDTH 652 0
DWIDTH 29 0
BBX 25 42 0 0
BITMAP
80200000
40400000
20800000
1B000000
0E000000
00000000
00000000
00000000
00000000
04000000
04000000
04000000
04000000
04000000
04000000
04000000
04000000
04000000
04000000
040FE000
04301800
04C00600
05800200
05000100
06000100
06000080
04000080
04000080
04000080
04000080
04000080
04000080
04000080
04000080
04000080
04000080
04000080
04000080
04000080
04000080
04000080
04000080
ENDCHAR
STARTCHAR 022A
ENCODING 554
SWIDTH 832 0
DWIDTH 37 0
BBX 32 41 3 0
BITMAP
003FFC00
00000000
00000000
00000000
00183000
00183000
00000000
00000000
00000000
00000000
003FF800
00C00600
03000180
04000040
08000020
10000010
20000008
20000008
40000004
40000004
80000002
80000002
80000002
80000002
80000002
80000001
80000002
80000002
80000002
80000002
80000002
40000004
40000004
20000008
20000008
10000010
08000020
06000040
03000180
00E00600
001FF800
ENDCHAR
STARTCHAR 022B
ENCODING 555
SWIDTH 607 0
DWIDTH 27 0
BBX 23 34 2 0
BITMAP
07FFC0
000000
000000
018300
018300
000000
000000
000000
000000
000000
000000
00FE00
020180
0C0060
100010
300008
200008
400004
400004
400004
800002
800002
800002
800002
800002
400004
400004
400004
200008
300008
100010
0C0060
0300C0
00FF00
ENDCHAR
STARTCHAR 022C
ENCODING 556
SWIDTH 832 0
DWIDTH 37 0
BBX 32 41 3 0
BITMAP
003FFC00
00000000
00000000
00080000
00330800
00218800
00006000
00000000
00000000
00000000
003FF800
00C00600
03000180
04000040
08000020
10000010
20000008
20000008
40000004
40000004
80000002
80000002
80000002
80000002
80000002
80000001
80000002
80000002
80000002
80000002
80000002
40000004
40000004
20000008
20000008
10000010
08000020
06000040
03000180
00E00600
001FF800
ENDCHAR
STARTCHAR 022D
ENCODING 557
SWIDTH 607 0
DWIDTH 27 0
BBX 23 34 2 0
BITMAP
07FFC0
000000
000000
01E000
023080
020F80
000000
000000
000000
000000
000000
00FE00
020180
0C0060
100010
300008
200008
400004
400004
400004
800002
800002
800002
800002
800002
400004
400004
400004
200008
300008
100010
0C0060
0300C0
00FF00
ENDCHAR
STARTCHAR 0230
ENCODING 560
SWIDTH 832 0
DWIDTH 37 0
BBX 32 41 3 0
BITMAP
003FFC00
00000000
00000000
00000000
00038000
00010000
00000000
00000000
00000000
00000000
003FF800
00C00600
03000180
04000040
08000020
10000010
20000008
20000008
40000004
40000004
80000002
80000002
80000002
80000002
80000002
80000001
80000002
80000002
80000002
80000002
80000002
40000004
40000004
20000008
20000008
10000010
08000020
06000040
03000180
00E00600
001FF800
ENDCHAR
STARTCHAR 0231
ENCODING 561
SWIDTH 607 0
DWIDTH 27 0
BBX 23 34 2 0
BITMAP
07FFC0
000000
000000
001000
003800
000000
000000
000000
000000
000000
000000
00FE00
020180
0C0060
100010
300008
200008
400004
400004
400004
800002
800002
800002
800002
800002
400004
400004
400004
200008
300008
100010
0C0060
0300C0
00FF00
ENDCHAR
STARTCHAR 0232
ENCODING 562
SWIDTH 607 0
DWIDTH 27 0
BBX 25 37 1 0
BITMAP
03FFE000
00000000
00000000
00000000
00000000
00000000
80000080
80000080
40000100
20000200
20000200
10000400
08000400
08000800
04001000
04001000
02002000
01006000
01004000
00808000
00C08000
00410000
00220000
00220000
00140000
000C0000
00080000
00080000
00080000
00080000
00080000
00080000
00080000
00080000
00080000
00080000
00080000
ENDCHAR
STARTCHAR 0233
ENCODING 563
SWIDTH 495 0
DWIDTH 22 0
BBX 23 39 -1 -9
BITMAP
03FFC0
000000
000000
000000
000000
000000
000000
600002
200002
200004
100004
100008
080008
080010
040010
040020
020020
020060
010040
010040
010080
008080
008100
004100
004200
002200
002400
001400
001800
000800
000800
001000
001000
002000
002000
004000
808000
C10000
3E0000
ENDCHAR
STARTCHAR 0237
ENCODING 567
SWIDTH 247 0
DWIDTH 11 0
BBX 9 32 -3 -9
BITMAP
0080
0080
0080
0080
0080
0080
0080
0080
0080
0080
0080
0080
0080
0080
0080
0080
0080
0080
0080
0080
0080
0080
0080
0080
0080
0080
0080
0080
0080
0100
8300
7800
ENDCHAR
STARTCHAR 0259
ENCODING 601
SWIDTH 585 0
DWIDTH 26 0
BBX 22 23 2 0
BITMAP
03FC00
0C0300
1000C0
200020
000030
000010
000008
000008
000008
000004
000004
000004
FFFFFC
800004
400008
400008
400008
200010
200010
100020
080040
060180
01FE00
ENDCHAR
STARTCHAR 0292
ENCODING 658
SWIDTH 472 0
DWIDTH 21 0
BBX 21 32 -1 -9
BITMAP
7FFFF0
000020
000040
0000C0
000080
000100
000200
000600
000400
000800
001000
003000
002000
004000
00F800
000700
0000C0
000020
000010
000010
000010
000008
000008
000008
000008
000010
000010
800010
400020
300040
0E0300
01FC00
ENDCHAR
STARTCHAR 02B9
ENCODING 697
SWIDTH 180 0
DWIDTH 8 0
BBX 1 11 4 20
BITMAP
80
80
80
80
80
80
80
80
80
80
80
ENDCHAR
STARTCHAR 02BA
ENCODING 698
SWIDTH 315 0
DWIDTH 14 0
BBX 7 11 4 20
BITMAP
82
82
82
82
82
82
82
82
82
82
82
ENDCHAR
STARTCHAR 02BB
ENCODING 699
SWIDTH 247 0
DWIDTH 11 0
BBX 3 8 4 27
BITMAP
20
40
40
40
40
80
E0
40
ENDCHAR
STARTCHAR 02BC
ENCODING 700
SWIDTH 180 0
DWIDTH 8 0
BBX 2 8 3 25
BITMAP
C0
C0
40
40
40
80
80
80
ENDCHAR
STARTCHAR 02BE
ENCODING 702
SWIDTH 585 0
DWIDTH 26 0
BBX 4 8 13 27
BITMAP
80
60
10
10
10
10
10
60
ENDCHAR
STARTCHAR 02BF
ENCODING 703
SWIDTH 585 0
DWIDTH 26 0
BBX 4 8 9 27
BITMAP
10
60
40
80
80
80
40
30
ENDCHAR
STARTCHAR 02C6
ENCODING 710
SWIDTH 585 0
DWIDTH 26 0
BBX 11 5 8 27
BITMAP
0C00
1B00
2180
40C0
8020
ENDCHAR
STARTCHAR 02C7
ENCODING 711
SWIDTH 585 0
DWIDTH 26 0
BBX 11 5 8 27
BITMAP
8020
4040
2180
1300
0E00
ENDCHAR
STARTCHAR 02C8
ENCODING 712
SWIDTH 135 0
DWIDTH 6 0
BBX 1 8 3 23
BITMAP
80
80
80
80
80
80
80
80
ENDCHAR
STARTCHAR 02C9
ENCODING 713
SWIDTH 585 0
DWIDTH 26 0
BBX 12 1 7 29
BITMAP
FFF0
ENDCHAR
STARTCHAR 02CA
ENCODING 714
SWIDTH 585 0
DWIDTH 26 0
BBX 7 5 12 27
BITMAP
06
08
10
60
80
ENDCHAR
STARTCHAR 02CB
ENCODING 715
SWIDTH 585 0
DWIDTH 26 0
BBX 7 5 8 27
BITMAP
C0
60
10
08
06
ENDCHAR
STARTCHAR 02CC
ENCODING 716
SWIDTH 135 0
DWIDTH 6 0
BBX 1 8 3 -9
BITMAP
80
80
80
80
80
80
80
80
ENDCHAR
STARTCHAR 02D8
ENCODING 728
SWIDTH 585 0
DWIDTH 26 0
BBX 12 5 7 27
BITMAP
8010
4010
4010
2060
1F80
ENDCHAR
STARTCHAR 02D9
ENCODING 729
SWIDTH 585 0
DWIDTH 26 0
BBX 2 2 12 28
BITMAP
40
C0
ENDCHAR
STARTCHAR 02DA
ENCODING 730
SWIDTH 585 0
DWIDTH 26 0
BBX 8 8 9 27
BITMAP
18
66
41
81
81
81
41
3E
ENDCHAR
STARTCHAR 02DB
ENCODING 731
SWIDTH 585 0
DWIDTH 26 0
BBX 7 10 7 -9
BITMAP
04
08
30
40
80
80
80
80
80
7E
ENDCHAR
STARTCHAR 02DC
ENCODING 732
SWIDTH 585 0
DWIDTH 26 0
BBX 12 4 7 27
BITMAP
7C10
4210
81A0
0040
ENDCHAR
STARTCHAR 02DD
ENCODING 733
SWIDTH 585 0
DWIDTH 26 0
BBX 12 5 10 27
BITMAP
0C30
1860
30C0
4180
8300
ENDCHAR
STARTCHAR 0300
ENCODING 768
SWIDTH 0 0
DWIDTH 0 0
BBX 7 5 8 27
BITMAP
C0
60
10
08
06
ENDCHAR
STARTCHAR 0301
ENCODING 769
SWIDTH 0 0
DWIDTH 0 0
BBX 7 5 12 27
BITMAP
06
08
10
60
80
ENDCHAR
STARTCHAR 0302
ENCODING 770
SWIDTH 0 0
DWIDTH 0 0
BBX 11 5 8 27
BITMAP
0C00
1B00
2180
40C0
8020
ENDCHAR
STARTCHAR 0303
ENCODING 771
SWIDTH 0 0
DWIDTH 0 0
BBX 12 4 7 27
BITMAP
7C10
4210
81A0
0040
ENDCHAR
STARTCHAR 0304
ENCODING 772
SWIDTH 0 0
DWIDTH 0 0
BBX 12 1 7 29
BITMAP
FFF0
ENDCHAR
STARTCHAR 0306
ENCODING 774
SWIDTH 0 0
DWIDTH 0 0
BBX 12 5 7 27
BITMAP
8010
4010
4010
2060
1F80
ENDCHAR
STARTCHAR 0307
ENCODING 775
SWIDTH 0 0
DWIDTH 0 0
BBX 2 2 12 28
BITMAP
40
C0
ENDCHAR
STARTCHAR 0308
ENCODING 776
SWIDTH 0 0
DWIDTH 0 0
BBX 9 2 9 28
BITMAP
8180
C180
ENDCHAR
STARTCHAR 0309
ENCODING 777
SWIDTH 0 0
DWIDTH 0 0
BBX 6 7 11 27
BITMAP
F0
08
04
04
08
08
30
ENDCHAR
STARTCHAR 030A
ENCODING 778
SWIDTH 0 0
DWIDTH 0 0
BBX 8 8 9 27
BITMAP
18
66
41
81
81
81
41
3E
ENDCHAR
STARTCHAR 030B
ENCODING 779
SWIDTH 0 0
DWIDTH 0 0
BBX 12 5 10 27
BITMAP
0C30
1860
30C0
4180
8300
ENDCHAR
STARTCHAR 030C
ENCODING 780
SWIDTH 0 0
DWIDTH 0 0
BBX 11 5 8 27
BITMAP
8020
4040
2180
1300
0E00
ENDCHAR
STARTCHAR 030F
ENCODING 783
SWIDTH 0 0
DWIDTH 0 0
BBX 12 5 5 27
BITMAP
8200
4100
2080
1040
0830
ENDCHAR
STARTCHAR 0311
ENCODING 785
SWIDTH 0 0
DWIDTH 0 0
BBX 12 5 7 27
BITMAP
0F80
3060
4030
4010
8010
ENDCHAR
STARTCHAR 0312
ENCODING 786
SWIDTH 0 0
DWIDTH 0 0
BBX 2 6 12 28
BITMAP
40
40
40
C0
C0
C0
ENDCHAR
STARTCHAR 031B
ENCODING 795
SWIDTH 0 0
DWIDTH 0 0
BBX 4 7 13 22
BITMAP
10
10
10
10
10
30
C0
ENDCHAR
STARTCHAR 0323
ENCODING 803
SWIDTH 0 0
DWIDTH 0 0
BBX 2 2 12 -8
BITMAP
C0
40
ENDCHAR
STARTCHAR 0324
ENCODING 804
SWIDTH 0 0
DWIDTH 0 0
BBX 9 2 9 -8
BITMAP
C180
C100
ENDCHAR
STARTCHAR 0326
ENCODING 806
SWIDTH 0 0
DWIDTH 0 0
BBX 2 6 12 -12
BITMAP
C0
40
40
40
40
80
ENDCHAR
STARTCHAR 0327
ENCODING 807
SWIDTH 0 0
DWIDTH 0 0
BBX 7 9 10 -9
BITMAP
10
20
20
1C
04
02
02
04
FC
ENDCHAR
STARTCHAR 0328
ENCODING 808
SWIDTH 0 0
DWIDTH 0 0
BBX 7 10 7 -9
BITMAP
04
08
30
40
80
80
80
80
80
7E
ENDCHAR
STARTCHAR 032E
ENCODING 814
SWIDTH 0 0
DWIDTH 0 0
BBX 12 5 7 -9
BITMAP
8010
4010
4020
3040
0F80
ENDCHAR
STARTCHAR 0331
ENCODING 817
SWIDTH 0 0
DWIDTH 0 0
BBX 12 1 7 -7
BITMAP
FFF0
ENDCHAR
STARTCHAR 0335
ENCODING 821
SWIDTH 0 0
DWIDTH 0 0
BBX 17 1 5 19
BITMAP
FFFF80
ENDCHAR
STARTCHAR 0336
ENCODING 822
SWIDTH 0 0
DWIDTH 0 0
BBX 34 1 1 19
BITMAP
FFFFFFFFC0
ENDCHAR
STARTCHAR 0337
ENCODING 823
SWIDTH 0 0
DWIDTH 0 0
BBX 8 6 3 13
BITMAP
01
06
0C
10
60
80
ENDCHAR
STARTCHAR 0338
ENCODING 824
SWIDTH 0 0
DWIDTH 0 0
BBX 20 29 3 -3
BITMAP
000010
000010
000020
000040
000040
000080
000100
000100
000200
000400
000400
000800
001000
001000
002000
004000
004000
008000
010000
010000
020000
040000
0C0000
080000
100000
300000
200000
400000
800000
ENDCHAR
STARTCHAR 0394
ENCODING 916
SWIDTH 675 0
DWIDTH 30 0
BBX 29 31 1 0
BITMAP
00020000
00060000
00050000
00090000
00088000
00108000
00104000
00204000
00202000
00402000
00401000
00801000
00800800
00800800
01000400
01000400
02000400
02000200
04000200
04000100
08000100
08000080
10000080
10000040
20000040
20000020
40000020
40000010
40000010
80000010
FFFFFFF8
ENDCHAR
STARTCHAR 03A9
ENCODING 937
SWIDTH 900 0
DWIDTH 40 0
BBX 40 31 0 0
BITMAP
0001FF8000
0006007000
0018000800
0020000600
0040000100
0080000080
0100000080
0200000040
0200000020
0400000020
0400000020
0400000010
0800000010
0800000010
0800000010
0800000010
0800000010
0800000010
0800000010
0400000010
0400000020
0400000020
0200000020
0200000040
01000000C0
0080000080
00C0000100
0060000200
0030000C00
0008001800
FFFE003FFF
ENDCHAR
STARTCHAR 03BC
ENCODING 956
SWIDTH 652 0
DWIDTH 29 0
BBX 20 32 5 -9
BITMAP
800010
800010
800010
800010
800010
800010
800010
800010
800010
800010
800010
800010
800010
800010
800010
800030
800030
C00030
C00050
A00090
B00190
880210
87FC10
800000
800000
800000
800000
800000
800000
800000
800000
800000
ENDCHAR
STARTCHAR 03C0
ENCODING 960
SWIDTH 697 0
DWIDTH 31 0
BBX 32 23 0 0
BITMAP
0FFFFFFF
30100100
40100100
40100100
80200100
80200100
80200100
80200100
80200100
40200100
40200100
00200100
00200100
00400100
00400100
00400100
00400100
00400100
00400100
00400100
00400100
00800100
00800100
ENDCHAR
STARTCHAR 0400
ENCODING 1024
SWIDTH 630 0
DWIDTH 28 0
BBX 21 39 6 0
BITMAP
0C0000
020000
018000
00C000
002000
001000
000000
000000
FFFFF0
800000
800000
800000
800000
800000
800000
800000
800000
800000
800000
800000
800000
800000
800000
FFFFC0
800000
800000
800000
800000
800000
800000
800000
800000
800000
800000
800000
800000
800000
800000
FFFFF8
ENDCHAR
STARTCHAR 0401
ENCODING 1025
SWIDTH 630 0
DWIDTH 28 0
BBX 21 37 6 0
BITMAP
070600
020600
000000
000000
000000
000000
FFFFF0
800000
800000
800000
800000
800000
800000
800000
800000
800000
800000
800000
800000
800000
800000
FFFFC0
800000
800000
800000
800000
800000
800000
800000
800000
800000
800000
800000
800000
800000
800000
FFFFF8
ENDCHAR
STARTCHAR 0402
ENCODING 1026
SWIDTH 810 0
DWIDTH 36 0
BBX 34 31 0 0
BITMAP
FFFFFF8000
0008000000
0008000000
0008000000
0008000000
0008000000
0008000000
0008000000
0008000000
0008000000
0008000000
0008000000
0008000000
00087FF800
000B800400
000C000300
0008000100
0008000080
0008000080
0008000040
0008000040
0008000040
0008000040
0008000040
0008000080
0008000080
0008000080
0008000100
0008000200
0008000C00
00080FF000
ENDCHAR
STARTCHAR 0403
ENCODING 1027
SWIDTH 540 0
DWIDTH 24 0
BBX 19 39 6 0
BITMAP
000600
000C00
001000
006000
00C000
000000
000000
000000
FFFFE0
800000
800000
800000
800000
800000
800000
800000
800000
800000
800000
800000
800000
800000
800000
800000
800000
800000
800000
800000
800000
800000
800000
800000
800000
800000
800000
800000
800000
800000
800000
ENDCHAR
STARTCHAR 0404
ENCODING 1028
SWIDTH 697 0
DWIDTH 31 0
BBX 26 31 3 0
BITMAP
003FF800
00C00600
03000180
06000040
0C000000
18000000
10000000
20000000
20000000
40000000
40000000
40000000
80000000
80000000
80000000
FFFFE000
80000000
80000000
80000000
40000000
40000000
40000000
20000000
20000000
10000000
18000000
0C000000
06000040
01000180
00E00600
001FF800
ENDCHAR
STARTCHAR 0405
ENCODING 1029
SWIDTH 607 0
DWIDTH 27 0
BBX 21 31 3 0
BITMAP
03FF00
0C00C0
100030
200000
400000
400000
400000
400000
400000
400000
400000
200000
300000
0C0000
038000
007800
000700
0000C0
000020
000010
000008
000008
000008
000008
000008
000008
800008
C00010
200020
1C00C0
03FF00
ENDCHAR
STARTCHAR 0406
ENCODING 1030
SWIDTH 292 0
DWIDTH 13 0
BBX 1 31 6 0
BITMAP
80
80
80
80
80
80
80
80
80
80
80
80
80
80
80
80
80
80
80
80
80
80
80
80
80
80
80
80
80
80
80
ENDCHAR
STARTCHAR 0407
ENCODING 1031
SWIDTH 270 0
DWIDTH 12 0
BBX 9 37 2 0
BITMAP
C180
C180
0000
0000
0000
0000
0800
0800
0800
0800
0800
0800
0800
0800
0800
0800
0800
0800
0800
0800
0800
0800
0800
0800
0800
0800
0800
0800
0800
0800
0800
0800
0800
0800
0800
0800
0800
ENDCHAR
STARTCHAR 0408
ENCODING 1032
SWIDTH 495 0
DWIDTH 22 0
BBX 16 31 1 0
BITMAP
1FFF
0001
0001
0001
0001
0001
0001
0001
0001
0001
0001
0001
0001
0001
0001
0001
0001
0001
0001
0001
0001
0001
0001
0001
0002
0002
8002
4002
2004
1808
07E0
ENDCHAR
STARTCHAR 0409
ENCODING 1033
SWIDTH 1170 0
DWIDTH 52 0
BBX 50 31 0 0
BITMAP
007FFFF0000000
00400010000000
00400010000000
00400010000000
00400010000000
00400010000000
00400010000000
00400010000000
00400010000000
00400010000000
00400010000000
00800010000000
0080001FFFF800
00800010000600
00800010000100
00800010000080
00800010000080
00800010000040
00800010000040
00800010000040
00800010000040
00800010000040
00800010000040
01000010000040
01000010000040
01000010000040
01000010000080
02000010000100
02000010000200
04000010000C00
F800001FFFF000
ENDCHAR
STARTCHAR 040A
ENCODING 1034
SWIDTH 1170 0
DWIDTH 52 0
BBX 45 31 6 0
BITMAP
800001000000
800001000000
800001000000
800001000000
800001000000
800001000000
800001000000
800001000000
800001000000
800001000000
800001000000
800001000000
800001000000
FFFFFFFFF000
800001000F00
8000010000C0
800001000020
800001000010
800001000010
800001000008
800001000008
800001000008
800001000008
800001000008
800001000008
800001000010
800001000010
800001000020
800001000040
800001000180
800001FFFE00
ENDCHAR
STARTCHAR 040B
ENCODING 1035
SWIDTH 810 0
DWIDTH 36 0
BBX 34 31 0 0
BITMAP
FFFFFF8000
0008000000
0008000000
0008000000
0008000000
0008000000
0008000000
0008000000
0008000000
0008000000
0008000000
0008000000
0008000000
00087FF800
000B800400
000C000300
0008000100
0008000080
0008000080
0008000080
0008000040
0008000040
0008000040
0008000040
0008000040
0008000040
0008000040
0008000040
0008000040
0008000040
0008000040
ENDCHAR
STARTCHAR 040C
ENCODING 1036
SWIDTH 675 0
DWIDTH 30 0
BBX 23 39 6 0
BITMAP
000600
000C00
001000
006000
00C000
000000
000000
000000
800004
800008
800010
800020
800060
800040
800080
800100
800200
800400
800C00
800800
801000
802000
804000
FFC000
802000
801000
800800
800C00
800400
800200
800100
800080
800040
800060
800020
800010
800008
800004
800002
ENDCHAR
STARTCHAR 040D
ENCODING 1037
SWIDTH 810 0
DWIDTH 36 0
BBX 25 39 6 0
BITMAP
03000000
00800000
00600000
00300000
00080000
00040000
00000000
00000000
80000180
80000180
80000280
80000480
80000880
80000880
80001080
80002080
80004080
8000C080
80008080
80010080
80020080
80040080
80040080
80080080
80100080
80200080
80600080
80400080
80800080
81000080
82000080
82000080
84000080
88000080
90000080
B0000080
A0000080
C0000080
80000080
ENDCHAR
STARTCHAR 040E
ENCODING 1038
SWIDTH 652 0
DWIDTH 29 0
BBX 26 39 2 0
BITMAP
02002000
02004000
02004000
01008000
00E70000
00180000
00000000
00000000
80000040
80000040
40000080
40000100
20000100
20000200
10000200
10000400
08000400
08000800
04000800
04001000
02001000
02002000
01004000
01004000
00808000
00408000
00410000
00210000
00220000
00120000
00140000
000C0000
00080000
00100000
00100000
00200000
00600000
00C00000
3F000000
ENDCHAR
STARTCHAR 040F
ENCODING 1039
SWIDTH 787 0
DWIDTH 35 0
BBX 24 39 6 -8
BITMAP
800001
800001
800001
800001
800001
800001
800001
800001
800001
800001
800001
800001
800001
800001
800001
800001
800001
800001
800001
800001
800001
800001
800001
800001
800001
800001
800001
800001
800001
800001
FFFFFF
001000
001000
001000
001000
001000
001000
001000
001000
ENDCHAR
STARTCHAR 0410
ENCODING 1040
SWIDTH 697 0
DWIDTH 31 0
BBX 30 31 1 0
BITMAP
00030000
00030000
00048000
00048000
00088000
00084000
00104000
00102000
00302000
00201000
00201000
00400800
00400800
00800400
00800400
01000200
01000200
02000100
02000100
04000100
04000080
0FFFFF80
08000040
18000040
10000020
10000020
20000010
20000010
40000008
40000008
80000004
ENDCHAR
STARTCHAR 0411
ENCODING 1041
SWIDTH 697 0
DWIDTH 31 0
BBX 23 31 6 0
BITMAP
FFFFF8
800000
800000
800000
800000
800000
800000
800000
800000
800000
800000
800000
800000
FFFC00
8003C0
800030
800008
800004
800004
800002
800002
800002
800002
800002
800002
800002
800004
800008
800010
800060
FFFF80
ENDCHAR
STARTCHAR 0412
ENCODING 1042
SWIDTH 742 0
DWIDTH 33 0
BBX 24 31 6 0
BITMAP
FFFF80
800060
800010
800008
800004
800004
800004
800004
800004
800004
800004
800008
800018
800030
8001C0
FFFFC0
800038
800004
800002
800002
800002
800001
800001
800001
800001
800002
800002
800004
80000C
800030
FFFFC0
ENDCHAR
STARTCHAR 0413
ENCODING 1043
SWIDTH 540 0
DWIDTH 24 0
BBX 19 31 6 0
BITMAP
FFFFE0
800000
800000
800000
800000
800000
800000
800000
800000
800000
800000
800000
800000
800000
800000
800000
800000
800000
800000
800000
800000
800000
800000
800000
800000
800000
800000
800000
800000
800000
800000
ENDCHAR
STARTCHAR 0414
ENCODING 1044
SWIDTH 765 0
DWIDTH 34 0
BBX 32 38 0 -7
BITMAP
00FFFFF0
00800010
00800010
00800010
00800010
00800010
00800010
00800010
00800010
00800010
00800010
00800010
00800010
00800010
00800010
00800010
00800010
00800010
01000010
01000010
01000010
01000010
01000010
01000010
02000010
02000010
02000010
04000010
04000010
08000010
FFFFFFFF
80000001
80000001
80000001
80000001
80000001
80000001
80000001
ENDCHAR
STARTCHAR 0415
ENCODING 1045
SWIDTH 630 0
DWIDTH 28 0
BBX 21 31 6 0
BITMAP
FFFFF0
800000
800000
800000
800000
800000
800000
800000
800000
800000
800000
800000
800000
800000
800000
FFFFC0
800000
800000
800000
800000
800000
800000
800000
800000
800000
800000
800000
800000
800000
800000
FFFFF8
ENDCHAR
STARTCHAR 0416
ENCODING 1046
SWIDTH 967 0
DWIDTH 43 0
BBX 40 31 2 0
BITMAP
4000100006
6000100004
2000100008
1000100010
0800100010
0800100020
0400100040
02001000C0
0200100080
0100100100
0080100200
0040100200
0040100400
0020100800
0010100800
001FFFF000
0020100800
0040100400
0040100200
0080100200
0100100100
0200100080
0200100040
0400100040
0800100020
1800100010
1000100018
2000100008
4000100004
C000100002
8000100003
ENDCHAR
STARTCHAR 0417
ENCODING 1047
SWIDTH 607 0
DWIDTH 27 0
BBX 22 31 2 0
BITMAP
07FE00
180180
600040
000020
000010
000010
000008
000008
000008
000010
000010
000010
000020
0000C0
07FE00
000380
000060
000010
000008
000004
000004
000004
000004
000004
000004
000008
800008
400010
300020
0C01C0
03FE00
ENDCHAR
STARTCHAR 0418
ENCODING 1048
SWIDTH 810 0
DWIDTH 36 0
BBX 25 31 6 0
BITMAP
80000180
80000180
80000280
80000480
80000880
80000880
80001080
80002080
80004080
8000C080
80008080
80010080
80020080
80040080
80040080
80080080
80100080
80200080
80600080
80400080
80800080
81000080
82000080
82000080
84000080
88000080
90000080
B0000080
A0000080
C0000080
80000080
ENDCHAR
STARTCHAR 0419
ENCODING 1049
SWIDTH 810 0
DWIDTH 36 0
BBX 25 39 6 0
BITMAP
02002000
02004000
02004000
01008000
00E70000
00180000
00000000
00000000
80000180
80000180
80000280
80000480
80000880
80000880
80001080
80002080
80004080
8000C080
80008080
80010080
80020080
80040080
80040080
80080080
80100080
80200080
80600080
80400080
80800080
81000080
82000080
82000080
84000080
88000080
90000080
B0000080
A0000080
C0000080
80000080
ENDCHAR
STARTCHAR 041A
ENCODING 1050
SWIDTH 675 0
DWIDTH 30 0
BBX 23 31 6 0
BITMAP
800004
800008
800010
800020
800060
800040
800080
800100
800200
800400
800C00
800800
801000
802000
804000
FFC000
802000
801000
800800
800C00
800400
800200
800100
800080
800040
800060
800020
800010
800008
800004
800002
ENDCHAR
STARTCHAR 041B
ENCODING 1051
SWIDTH 765 0
DWIDTH 34 0
BBX 28 31 0 0
BITMAP
007FFFF0
00400010
00400010
00400010
00400010
00400010
00400010
00400010
00400010
00400010
00400010
00800010
00800010
00800010
00800010
00800010
00800010
00800010
00800010
00800010
00800010
00800010
00800010
01000010
01000010
01000010
01000010
02000010
02000010
04000010
F8000010
ENDCHAR
STARTCHAR 041C
ENCODING 1052
SWIDTH 945 0
DWIDTH 42 0
BBX 31 31 6 0
BITMAP
80000002
C0000006
C000000A
A000000A
A0000012
90000012
88000022
88000022
84000042
84000082
82000082
82000102
81000102
80800202
80800202
80400402
80400802
80200802
80301002
80101002
80082002
80082002
80044002
80048002
80028002
80010002
80010002
80000002
80000002
80000002
80000002
ENDCHAR
STARTCHAR 041D
ENCODING 1053
SWIDTH 810 0
DWIDTH 36 0
BBX 25 31 6 0
BITMAP
80000080
80000080
80000080
80000080
80000080
80000080
80000080
80000080
80000080
80000080
80000080
80000080
80000080
80000080
80000080
FFFFFF80
80000080
80000080
80000080
80000080
80000080
80000080
80000080
80000080
80000080
80000080
80000080
80000080
80000080
80000080
80000080
ENDCHAR
STARTCHAR 041E
ENCODING 1054
SWIDTH 855 0
DWIDTH 38 0
BBX 32 31 3 0
BITMAP
001FF800
00E00700
01000080
06000060
0C000030
18000018
10000008
20000004
20000004
40000002
40000002
80000001
80000001
80000001
80000001
80000001
80000001
80000001
80000001
80000002
40000002
40000002
20000004
20000004
10000008
08000010
0C000030
02000040
01800180
00600600
001FF800
ENDCHAR
STARTCHAR 041F
ENCODING 1055
SWIDTH 832 0
DWIDTH 37 0
BBX 25 31 6 0
BITMAP
FFFFFF80
80000080
80000080
80000080
80000080
80000080
80000080
80000080
80000080
80000080
80000080
80000080
80000080
80000080
80000080
80000080
80000080
80000080
80000080
80000080
80000080
80000080
80000080
80000080
80000080
80000080
80000080
80000080
80000080
80000080
80000080
ENDCHAR
STARTCHAR 0420
ENCODING 1056
SWIDTH 697 0
DWIDTH 31 0
BBX 23 31 6 0
BITMAP
FFFE00
8001C0
800020
800018
800008
800004
800004
800002
800002
800002
800002
800002
800002
800004
800004
800008
800008
800030
800040
FFFF80
800000
800000
800000
800000
800000
800000
800000
800000
800000
800000
800000
ENDCHAR
STARTCHAR 0421
ENCODING 1057
SWIDTH 697 0
DWIDTH 31 0
BBX 26 31 3 0
BITMAP
001FF800
00E00700
01800080
06000040
0C000000
18000000
10000000
20000000
20000000
40000000
40000000
80000000
80000000
80000000
80000000
80000000
80000000
80000000
80000000
80000000
40000000
40000000
20000000
20000000
10000000
08000000
0C000000
02000040
01800180
00600600
001FF800
ENDCHAR
STARTCHAR 0422
ENCODING 1058
SWIDTH 540 0
DWIDTH 24 0
BBX 24 31 0 0
BITMAP
FFFFFF
000800
000800
000800
000800
000800
000800
000800
000800
000800
000800
000800
000800
000800
000800
000800
000800
000800
000800
000800
000800
000800
000800
000800
000800
000800
000800
000800
000800
000800
000800
ENDCHAR
STARTCHAR 0423
ENCODING 1059
SWIDTH 652 0
DWIDTH 29 0
BBX 26 31 2 0
BITMAP
80000040
80000040
40000080
40000100
20000100
20000200
10000200
10000400
08000400
08000800
04000800
04001000
02001000
02002000
01004000
01004000
00808000
00408000
00410000
00210000
00220000
00120000
00140000
000C0000
00080000
00100000
00100000
00200000
00600000
00C00000
3F000000
ENDCHAR
STARTCHAR 0424
ENCODING 1060
SWIDTH 877 0
DWIDTH 39 0
BBX 34 32 3 -1
BITMAP
0000800000
0000800000
0000800000
000FFC0000
00F083C000
0300803000
0C00800800
1800800600
3000800300
2000800100
4000800080
4000800080
8000800040
8000800040
8000800040
8000800040
8000800040
8000800040
8000800040
8000800040
8000800040
4000800080
4000800080
2000800100
3000800200
1800800400
0400800800
0300807000
00F0838000
0007F40000
0000800000
0000800000
ENDCHAR
STARTCHAR 0425
ENCODING 1061
SWIDTH 607 0
DWIDTH 27 0
BBX 23 31 2 0
BITMAP
400004
400004
200008
100010
080010
080020
040040
020080
030080
010100
008200
004600
004400
002800
001000
001800
002800
004400
00C200
008200
010100
020080
020040
040040
080020
100010
100018
200008
400004
400002
800002
ENDCHAR
STARTCHAR 0426
ENCODING 1062
SWIDTH 810 0
DWIDTH 36 0
BBX 29 39 6 -8
BITMAP
80000100
80000100
80000100
80000100
80000100
80000100
80000100
80000100
80000100
80000100
80000100
80000100
80000100
80000100
80000100
80000100
80000100
80000100
80000100
80000100
80000100
80000100
80000100
80000100
80000100
80000100
80000100
80000100
80000100
80000100
FFFFFFF8
00000008
00000008
00000008
00000008
00000008
00000008
00000008
00000008
ENDCHAR
STARTCHAR 0427
ENCODING 1063
SWIDTH 720 0
DWIDTH 32 0
BBX 23 31 3 0
BITMAP
800002
800002
800002
800002
800002
800002
800002
800002
800002
800002
800002
800002
800002
800002
400002
600002
300006
18003A
0703C2
00FC02
000002
000002
000002
000002
000002
000002
000002
000002
000002
000002
000002
ENDCHAR
STARTCHAR 0428
ENCODING 1064
SWIDTH 1080 0
DWIDTH 48 0
BBX 36 31 6 0
BITMAP
8000200010
8000200010
8000200010
8000200010
8000200010
8000200010
8000200010
8000200010
8000200010
8000200010
8000200010
8000200010
8000200010
8000200010
8000200010
8000200010
8000200010
8000200010
8000200010
8000200010
8000200010
8000200010
8000200010
8000200010
8000200010
8000200010
8000200010
8000200010
8000200010
8000200010
FFFFFFFFF0
ENDCHAR
STARTCHAR 0429
ENCODING 1065
SWIDTH 1102 0
DWIDTH 49 0
BBX 42 38 6 -7
BITMAP
800020001000
800020001000
800020001000
800020001000
800020001000
800020001000
800020001000
800020001000
800020001000
800020001000
800020001000
800020001000
800020001000
800020001000
800020001000
800020001000
800020001000
800020001000
800020001000
800020001000
800020001000
800020001000
800020001000
800020001000
800020001000
800020001000
800020001000
800020001000
800020001000
800020001000
FFFFFFFFFFC0
000000000040
000000000040
000000000040
000000000040
000000000040
000000000040
000000000040
ENDCHAR
STARTCHAR 042A
ENCODING 1066
SWIDTH 787 0
DWIDTH 35 0
BBX 33 31 0 0
BITMAP
FFE0000000
0020000000
0020000000
0020000000
0020000000
0020000000
0020000000
0020000000
0020000000
0020000000
0020000000
0020000000
003FFFF000
0020000C00
0020000200
0020000100
0020000100
0020000080
0020000080
0020000080
0020000080
0020000080
0020000080
0020000080
0020000080
0020000080
0020000100
0020000200
0020000600
0020001800
001FFFE000
ENDCHAR
STARTCHAR 042B
ENCODING 1067
SWIDTH 945 0
DWIDTH 42 0
BBX 30 31 6 0
BITMAP
80000004
80000004
80000004
80000004
80000004
80000004
80000004
80000004
80000004
80000004
80000004
80000004
FFFF8004
80006004
80001804
80000804
80000404
80000404
80000204
80000204
80000204
80000204
80000204
80000204
80000204
80000404
80000404
80000804
80001004
8000E004
FFFF0004
ENDCHAR
STARTCHAR 042C
ENCODING 1068
SWIDTH 697 0
DWIDTH 31 0
BBX 23 31 6 0
BITMAP
800000
800000
800000
800000
800000
800000
800000
800000
800000
800000
800000
800000
FFFF80
800060
800018
800008
800004
800004
800002
800002
800002
800002
800002
800002
800002
800004
800004
800008
800010
8000E0
FFFF00
ENDCHAR
STARTCHAR 042D
ENCODING 1069
SWIDTH 697 0
DWIDTH 31 0
BBX 26 31 2 0
BITMAP
03FF0000
1C00C000
20003000
C0000800
00000400
00000200
00000300
00000100
00000080
00000080
00000080
00000040
00000040
00000040
00000040
00FFFFC0
00000040
00000040
00000040
00000040
00000080
00000080
00000080
00000100
00000300
00000200
00000400
C0001800
20003000
1C00C000
03FE0000
ENDCHAR
STARTCHAR 042E
ENCODING 1070
SWIDTH 1080 0
DWIDTH 48 0
BBX 39 31 6 0
BITMAP
80001FF800
8000600600
8001800180
80020000C0
8004000060
8008000030
8010000010
8010000008
8020000008
8020000004
8040000004
8040000004
8040000002
8040000002
8040000002
FFC0000002
8040000002
8040000002
8040000002
8040000004
8040000004
8020000004
8020000008
8010000008
8010000010
8008000030
8004000060
80020000C0
8001800100
8000600600
80001FF800
ENDCHAR
STARTCHAR 042F
ENCODING 1071
SWIDTH 720 0
DWIDTH 32 0
BBX 22 31 4 0
BITMAP
01FFFC
0E0004
100004
200004
400004
400004
800004
800004
800004
800004
800004
800004
800004
800004
800004
400004
400004
200004
180004
060004
01FFFC
020004
020004
040004
080004
080004
100004
200004
400004
400004
800004
ENDCHAR
STARTCHAR 0430
ENCODING 1072
SWIDTH 562 0
DWIDTH 25 0
BBX 18 23 3 0
BITMAP
07F800
180600
600100
400080
000080
000080
000040
000040
000040
000040
000040
1FFFC0
200040
400040
800040
800040
800040
8000C0
8000C0
400140
400240
300C40
0FF040
ENDCHAR
STARTCHAR 0431
ENCODING 1073
SWIDTH 630 0
DWIDTH 28 0
BBX 22 34 4 0
BITMAP
000018
0001E0
000E00
00F000
030000
040000
080000
100000
200000
400000
400000
402000
83CF00
8400C0
980020
900010
A00018
C00008
C00008
C00004
800004
800004
800004
800004
800004
800004
400004
400008
600008
200010
100020
080040
060180
01FE00
ENDCHAR
STARTCHAR 0432
ENCODING 1074
SWIDTH 585 0
DWIDTH 26 0
BBX 18 23 5 0
BITMAP
FFF800
800600
800100
800080
800080
800080
800080
800080
800100
800100
800E00
FFFC00
800300
800080
800040
800040
800040
800040
800040
800080
800080
800300
FFFC00
ENDCHAR
STARTCHAR 0433
ENCODING 1075
SWIDTH 427 0
DWIDTH 19 0
BBX 15 23 5 0
BITMAP
FFFE
8000
8000
8000
8000
8000
8000
8000
8000
8000
8000
8000
8000
8000
8000
8000
8000
8000
8000
8000
8000
8000
8000
ENDCHAR
STARTCHAR 0434
ENCODING 1076
SWIDTH 607 0
DWIDTH 27 0
BBX 26 29 0 -6
BITMAP
01FFFC00
01000400
01000400
01000400
01000400
02000400
02000400
02000400
02000400
02000400
02000400
02000400
02000400
02000400
02000400
02000400
04000400
04000400
04000400
04000400
08000400
08000400
FFFFFFC0
80000040
80000040
80000040
80000040
80000040
80000040
ENDCHAR
STARTCHAR 0435
ENCODING 1077
SWIDTH 585 0
DWIDTH 26 0
BBX 21 23 3 0
BITMAP
01FC00
060300
180080
300040
200020
400010
400010
800008
800008
800008
800008
FFFFF0
800000
800000
800000
800000
400000
400000
200000
100030
080060
060180
01FE00
ENDCHAR
STARTCHAR 0436
ENCODING 1078
SWIDTH 765 0
DWIDTH 34 0
BBX 31 23 2 0
BITMAP
80010004
40010004
20010008
30010010
10010020
08010020
04010040
04010080
02010100
01010100
00810200
00FFFE00
01010200
03010100
02010080
04010040
08010040
18010020
10010010
20010008
4001000C
80010004
80010002
ENDCHAR
STARTCHAR 0437
ENCODING 1079
SWIDTH 495 0
DWIDTH 22 0
BBX 18 23 2 0
BITMAP
0FF000
300C00
400300
000100
000080
000080
000080
000100
000100
000200
003C00
03FC00
000300
000180
000080
000080
000040
000080
000080
000180
C00300
300600
0FF800
ENDCHAR
STARTCHAR 0438
ENCODING 1080
SWIDTH 652 0
DWIDTH 29 0
BBX 20 23 5 0
BITMAP
800010
800030
800050
800090
800110
800310
800210
800410
800810
801010
802010
806010
804010
808010
810010
820010
840010
8C0010
880010
900010
A00010
C00010
800010
ENDCHAR
STARTCHAR 0439
ENCODING 1081
SWIDTH 652 0
DWIDTH 29 0
BBX 20 32 5 0
BITMAP
080100
080100
040200
020400
01F800
000000
000000
000000
000000
800010
800030
800050
800090
800110
800310
800210
800410
800810
801010
802010
806010
804010
808010
810010
820010
840010
8C0010
880010
900010
A00010
C00010
800010
ENDCHAR
STARTCHAR 043A
ENCODING 1082
SWIDTH 540 0
DWIDTH 24 0
BBX 18 23 5 0
BITMAP
800080
800100
800100
800200
800400
800800
801000
802000
804000
80C000
808000
FF0000
808000
804000
802000
801000
800800
800C00
800400
800200
800100
800080
800040
ENDCHAR
STARTCHAR 043B
ENCODING 1083
SWIDTH 607 0
DWIDTH 27 0
BBX 22 23 0 0
BITMAP
01FFFC
010004
010004
010004
010004
010004
020004
020004
020004
020004
020004
020004
020004
020004
020004
020004
020004
040004
040004
040004
080004
080004
F00004
ENDCHAR
STARTCHAR 043C
ENCODING 1084
SWIDTH 765 0
DWIDTH 34 0
BBX 24 23 5 0
BITMAP
800001
C00001
C00003
A00005
900005
900009
880009
880011
840021
820021
820041
810041
808081
808101
804101
804201
802401
801401
801801
800801
800001
800001
800001
ENDCHAR
STARTCHAR 043D
ENCODING 1085
SWIDTH 652 0
DWIDTH 29 0
BBX 19 23 5 0
BITMAP
800020
800020
800020
800020
800020
800020
800020
800020
800020
800020
800020
FFFFE0
800020
800020
800020
800020
800020
800020
800020
800020
800020
800020
800020
ENDCHAR
STARTCHAR 043E
ENCODING 1086
SWIDTH 607 0
DWIDTH 27 0
BBX 22 23 3 0
BITMAP
01FE00
060180
080040
100020
200010
400008
400008
800008
800004
800004
800004
800004
800004
800004
800004
800008
400008
400008
200010
100020
080040
060180
01FE00
ENDCHAR
STARTCHAR 043F
ENCODING 1087
SWIDTH 652 0
DWIDTH 29 0
BBX 19 23 5 0
BITMAP
FFFFE0
800020
800020
800020
800020
800020
800020
800020
800020
800020
800020
800020
800020
800020
800020
800020
800020
800020
800020
800020
800020
800020
800020
ENDCHAR
STARTCHAR 0440
ENCODING 1088
SWIDTH 675 0
DWIDTH 30 0
BBX 23 32 5 -9
BITMAP
80FE00
830180
8C0060
900030
A00010
A00008
C00004
C00004
800004
800004
800002
800002
800002
800004
800004
C00004
C00004
A00008
A00010
900010
880060
860080
81FF00
800000
800000
800000
800000
800000
800000
800000
800000
800000
ENDCHAR
STARTCHAR 0441
ENCODING 1089
SWIDTH 540 0
DWIDTH 24 0
BBX 19 23 3 0
BITMAP
01FE00
060180
080040
100020
200000
400000
400000
800000
800000
800000
800000
800000
800000
800000
800000
800000
400000
400000
200000
100020
080040
060180
01FE00
ENDCHAR
STARTCHAR 0442
ENCODING 1090
SWIDTH 427 0
DWIDTH 19 0
BBX 19 23 0 0
BITMAP
FFFFE0
004000
004000
004000
004000
004000
004000
004000
004000
004000
004000
004000
004000
004000
004000
004000
004000
004000
004000
004000
004000
004000
004000
ENDCHAR
STARTCHAR 0443
ENCODING 1091
SWIDTH 517 0
DWIDTH 23 0
BBX 24 32 -1 -9
BITMAP
200003
200002
100002
100004
080004
080008
040008
040010
020010
020020
020020
010060
010040
008040
008080
004080
004100
002100
002200
001200
001400
000C00
000800
000800
001800
001000
001000
002000
006000
804000
618000
1C0000
ENDCHAR
STARTCHAR 0444
ENCODING 1092
SWIDTH 742 0
DWIDTH 33 0
BBX 27 42 3 -9
BITMAP
00040000
00040000
00040000
00040000
00040000
00040000
00040000
00040000
00040000
00040000
00FFE000
03041800
0C040600
10040100
20040080
40040040
40040040
80040020
80040020
80040020
80040020
80040020
80040020
80040020
80040020
80040020
40040040
40040040
20040080
10040100
0C040600
07041C00
00FFE000
00040000
00040000
00040000
00040000
00040000
00040000
00040000
00040000
00040000
ENDCHAR
STARTCHAR 0445
ENCODING 1093
SWIDTH 495 0
DWIDTH 22 0
BBX 18 23 2 0
BITMAP
800040
400080
200100
300200
100200
080400
040800
021000
023000
012000
00C000
00C000
012000
012000
021000
040800
080400
180600
100200
200100
400080
800040
800040
ENDCHAR
STARTCHAR 0446
ENCODING 1094
SWIDTH 652 0
DWIDTH 29 0
BBX 23 29 5 -6
BITMAP
800020
800020
800020
800020
800020
800020
800020
800020
800020
800020
800020
800020
800020
800020
800020
800020
800020
800020
800020
800020
800020
800020
FFFFFE
000002
000002
000002
000002
000002
000002
ENDCHAR
STARTCHAR 0447
ENCODING 1095
SWIDTH 562 0
DWIDTH 25 0
BBX 19 23 2 0
BITMAP
800020
800020
800020
800020
800020
800020
800020
800020
800020
400020
400020
600020
3000E0
0C0F20
01F020
000020
000020
000020
000020
000020
000020
000020
000020
ENDCHAR
STARTCHAR 0448
ENCODING 1096
SWIDTH 900 0
DWIDTH 40 0
BBX 30 23 5 0
BITMAP
80010004
80010004
80010004
80010004
80010004
80010004
80010004
80010004
80010004
80010004
80010004
80010004
80010004
80010004
80010004
80010004
80010004
80010004
80010004
80010004
80010004
80010004
FFFFFFFC
ENDCHAR
STARTCHAR 0449
ENCODING 1097
SWIDTH 900 0
DWIDTH 40 0
BBX 34 28 5 -5
BITMAP
8001000400
8001000400
8001000400
8001000400
8001000400
8001000400
8001000400
8001000400
8001000400
8001000400
8001000400
8001000400
8001000400
8001000400
8001000400
8001000400
8001000400
8001000400
8001000400
8001000400
8001000400
8001000400
FFFFFFFFC0
0000000040
0000000040
0000000040
0000000040
0000000040
ENDCHAR
STARTCHAR 044A
ENCODING 1098
SWIDTH 562 0
DWIDTH 25 0
BBX 24 23 0 0
BITMAP
FF0000
010000
010000
010000
010000
010000
010000
010000
010000
01FFF0
01000C
010002
010002
010001
010001
010001
010001
010001
010001
010002
010004
010008
01FFF0
ENDCHAR
STARTCHAR 044B
ENCODING 1099
SWIDTH 720 0
DWIDTH 32 0
BBX 23 23 5 0
BITMAP
800002
800002
800002
800002
800002
800002
800002
800002
800002
FFF802
800602
800102
800102
800082
800082
800082
800082
800082
800082
800102
800302
800602
FFF002
ENDCHAR
STARTCHAR 044C
ENCODING 1100
SWIDTH 517 0
DWIDTH 23 0
BBX 17 23 5 0
BITMAP
800000
800000
800000
800000
800000
800000
800000
800000
800000
FFF800
800600
800100
800100
800080
800080
800080
800080
800080
800080
800100
800300
800600
FFF000
ENDCHAR
STARTCHAR 044D
ENCODING 1101
SWIDTH 562 0
DWIDTH 25 0
BBX 20 23 2 0
BITMAP
0FF000
300E00
C00100
800080
000040
000020
000020
000010
000010
000010
000010
03FFF0
000010
000010
000010
000010
000020
000020
000040
000080
C00100
300600
0FF800
ENDCHAR
STARTCHAR 044E
ENCODING 1102
SWIDTH 832 0
DWIDTH 37 0
BBX 30 23 5 0
BITMAP
8001FC00
80060380
800800C0
80100020
80200010
80400010
80400008
80800008
80800008
80800004
80800004
FF800004
80800004
80800004
80800008
80800008
80400008
80400010
80200010
80100020
800800C0
80060180
8001FC00
ENDCHAR
STARTCHAR 044F
ENCODING 1103
SWIDTH 585 0
DWIDTH 26 0
BBX 18 23 3 0
BITMAP
03FFC0
1C0040
200040
400040
400040
800040
800040
800040
800040
800040
400040
400040
300040
0C0040
03FFC0
020040
040040
080040
180040
100040
200040
400040
400040
ENDCHAR
STARTCHAR 0450
ENCODING 1104
SWIDTH 607 0
DWIDTH 27 0
BBX 21 32 3 0
BITMAP
060000
030000
008000
004000
003000
000000
000000
000000
000000
01FC00
060300
180080
300040
200020
400010
400010
800008
800008
800008
800008
FFFFF0
800000
800000
800000
800000
400000
400000
200000
100030
080060
060180
01FE00
ENDCHAR
STARTCHAR 0451
ENCODING 1105
SWIDTH 585 0
DWIDTH 26 0
BBX 21 31 3 0
BITMAP
030600
030600
000000
000000
000000
000000
000000
000000
01FC00
060300
180080
300040
200020
400010
400010
800008
800008
800008
800008
FFFFF0
800000
800000
800000
800000
400000
400000
200000
100030
080060
060180
01FE00
ENDCHAR
STARTCHAR 0452
ENCODING 1106
SWIDTH 652 0
DWIDTH 29 0
BBX 25 42 0 -9
BITMAP
04000000
04000000
04000000
04000000
04000000
FFFFC000
04000000
04000000
04000000
04000000
040FF000
04300800
04400600
04800200
05000100
06000100
06000080
04000080
04000080
04000080
04000080
04000080
04000080
04000080
04000080
04000080
04000080
04000080
04000080
04000080
04000080
04000080
04000080
00000080
00000080
00000080
00000080
00000080
00000080
00000100
00018200
00003C00
ENDCHAR
STARTCHAR 0453
ENCODING 1107
SWIDTH 427 0
DWIDTH 19 0
BBX 15 32 5 0
BITMAP
0008
0030
0060
0080
0100
0200
0000
0000
0000
FFFE
8000
8000
8000
8000
8000
8000
8000
8000
8000
8000
8000
8000
8000
8000
8000
8000
8000
8000
8000
8000
8000
8000
ENDCHAR
STARTCHAR 0454
ENCODING 1108
SWIDTH 540 0
DWIDTH 24 0
BBX 20 23 3 0
BITMAP
01FF00
0600C0
080030
100000
200000
400000
400000
800000
800000
800000
800000
FFFC00
800000
800000
800000
800000
400000
400000
200000
100010
080030
0600C0
00FF00
ENDCHAR
STARTCHAR 0455
ENCODING 1109
SWIDTH 495 0
DWIDTH 22 0
BBX 17 23 3 0
BITMAP
0FF800
100600
200100
400000
400000
800000
800000
400000
400000
200000
1C0000
03E000
001C00
000200
000100
000080
000080
000080
000080
000080
C00100
300600
0FF800
ENDCHAR
STARTCHAR 0456
ENCODING 1110
SWIDTH 247 0
DWIDTH 11 0
BBX 3 32 4 0
BITMAP
40
E0
40
00
00
00
00
00
00
40
40
40
40
40
40
40
40
40
40
40
40
40
40
40
40
40
40
40
40
40
40
40
ENDCHAR
STARTCHAR 0457
ENCODING 1111
SWIDTH 247 0
DWIDTH 11 0
BBX 7 31 2 0
BITMAP
C6
C6
00
00
00
00
00
00
10
10
10
10
10
10
10
10
10
10
10
10
10
10
10
10
10
10
10
10
10
10
10
ENDCHAR
STARTCHAR 0458
ENCODING 1112
SWIDTH 247 0
DWIDTH 11 0
BBX 11 41 -4 -9
BITMAP
0040
0060
0040
0000
0000
0000
0000
0000
0000
0040
0040
0040
0040
0040
0040
0040
0040
0040
0040
0040
0040
0040
0040
0040
0040
0040
0040
0040
0040
0040
0040
0040
0040
0040
0040
0040
0040
0040
0080
C100
3C00
ENDCHAR
STARTCHAR 0459
ENCODING 1113
SWIDTH 877 0
DWIDTH 39 0
BBX 38 23 0 0
BITMAP
01FFFC0000
0100040000
0100040000
0100040000
0100040000
0100040000
0200040000
0200040000
0200040000
020007FFC0
0200040030
0200040008
0200040008
0200040004
0200040004
0200040004
0200040004
0400040004
0400040004
0400040008
0800040018
0800040020
F00007FFC0
ENDCHAR
STARTCHAR 045A
ENCODING 1114
SWIDTH 922 0
DWIDTH 41 0
BBX 35 23 5 0
BITMAP
8000200000
8000200000
8000200000
8000200000
8000200000
8000200000
8000200000
8000200000
8000200000
8000200000
FFFFFFFE00
8000200100
8000200080
8000200040
8000200040
8000200020
8000200020
8000200020
8000200040
8000200040
8000200080
8000200300
80003FFC00
ENDCHAR
STARTCHAR 045B
ENCODING 1115
SWIDTH 652 0
DWIDTH 29 0
BBX 26 33 -1 0
BITMAP
02000000
02000000
02000000
02000000
02000000
FFFFE000
02000000
02000000
02000000
02000000
0207F800
02180400
02200300
02400100
02800080
03000080
03000040
02000040
02000040
02000040
02000040
02000040
02000040
02000040
02000040
02000040
02000040
02000040
02000040
02000040
02000040
02000040
02000040
ENDCHAR
STARTCHAR 045C
ENCODING 1116
SWIDTH 540 0
DWIDTH 24 0
BBX 18 32 5 0
BITMAP
001800
003000
004000
018000
030000
000000
000000
000000
000000
800080
800100
800100
800200
800400
800800
801000
802000
804000
80C000
808000
FF0000
808000
804000
802000
801000
800800
800C00
800400
800200
800100
800080
800040
ENDCHAR
STARTCHAR 045D
ENCODING 1117
SWIDTH 652 0
DWIDTH 29 0
BBX 20 32 5 0
BITMAP
0C0000
020000
018000
004000
002000
000000
000000
000000
000000
800010
800030
800050
800090
800110
800310
800210
800410
800810
801010
802010
806010
804010
808010
810010
820010
840010
8C0010
880010
900010
A00010
C00010
800010
ENDCHAR
STARTCHAR 045E
ENCODING 1118
SWIDTH 517 0
DWIDTH 23 0
BBX 24 41 -1 -9
BITMAP
020040
020040
010080
008180
007E00
000000
000000
000000
000000
200003
200002
100002
100004
080004
080008
040008
040010
020010
020020
020020
010060
010040
008040
008080
004080
004100
002100
002200
001200
001400
000C00
000800
000800
001800
001000
001000
002000
006000
804000
618000
1C0000
ENDCHAR
STARTCHAR 045F
ENCODING 1119
SWIDTH 607 0
DWIDTH 27 0
BBX 18 28 5 -6
BITMAP
800040
800040
800040
800040
800040
800040
800040
800040
800040
800040
800040
800040
800040
800040
800040
800040
800040
800040
800040
800040
800040
800040
FFFFC0
008000
008000
008000
008000
008000
ENDCHAR
STARTCHAR 0462
ENCODING 1122
SWIDTH 765 0
DWIDTH 34 0
BBX 31 32 1 1
BITMAP
00800000
00800000
00800000
00800000
00800000
FFFFF000
00800000
00800000
00800000
00800000
00800000
00800000
00800000
00FFFFC0
00800030
00800008
00800004
00800004
00800002
00800002
00800002
00800002
00800002
00800002
00800002
00800002
00800002
00800004
00800008
00800018
00800060
007FFF80
ENDCHAR
STARTCHAR 0463
ENCODING 1123
SWIDTH 562 0
DWIDTH 25 0
BBX 22 33 1 0
BITMAP
040000
040000
040000
040000
040000
040000
040000
040000
040000
040000
FFFE00
040000
040000
040000
040000
040000
040000
040000
040000
07FFC0
040030
040008
04000C
040004
040004
040004
040004
040004
040004
040008
040018
040030
07FFC0
ENDCHAR
STARTCHAR 046A
ENCODING 1130
SWIDTH 832 0
DWIDTH 37 0
BBX 34 31 2 0
BITMAP
3FFFFFFE00
1000000600
0800000C00
0400000800
0200001000
0100002000
0080004000
0040008000
0020010000
0010020000
0008040000
000C080000
0006100000
0003200000
0001400000
001FFE0000
0060818000
0180804000
0300802000
0600801000
0400800800
0800800400
1000800400
1000800200
2000800200
2000800100
2000800100
4000800080
4000800080
8000800040
8000800040
ENDCHAR
STARTCHAR 046B
ENCODING 1131
SWIDTH 630 0
DWIDTH 28 0
BBX 25 23 2 0
BITMAP
3FFFFE00
20000400
10000800
08001000
04002000
02004000
01008000
00810000
00420000
00220000
00240000
00FF0000
0310C000
0C103000
08101000
10100800
20100400
20100400
40100200
40100200
80100100
80100100
80100080
ENDCHAR
STARTCHAR 0472
ENCODING 1138
SWIDTH 855 0
DWIDTH 38 0
BBX 32 31 3 0
BITMAP
001FF800
00E00700
01000080
06000060
0C000030
18000018
10000008
20000004
20000004
40000002
40000002
80000001
80000001
80000001
80000001
FFFFFFFF
80000001
80000001
80000001
80000002
40000002
40000002
20000004
20000004
10000008
08000010
0C000030
02000060
01800180
00600600
001FF800
ENDCHAR
STARTCHAR 0473
ENCODING 1139
SWIDTH 630 0
DWIDTH 28 0
BBX 23 23 3 0
BITMAP
01FE00
060180
080060
100030
200010
400008
400004
800004
800004
800004
800002
FFFFFE
800002
800004
800004
800004
400004
400008
200018
100030
080060
060180
01FE00
ENDCHAR
STARTCHAR 0474
ENCODING 1140
SWIDTH 720 0
DWIDTH 32 0
BBX 31 31 1 1
BITMAP
8000003E
40000040
40000080
20000100
20000100
10000200
10000200
10000400
08000400
08000400
04000800
04000800
04000800
02001000
02001000
01001000
01002000
00802000
00802000
00804000
00404000
00408000
00208000
00208000
00210000
00110000
00110000
000A0000
000A0000
000A0000
00040000
ENDCHAR
STARTCHAR 0475
ENCODING 1141
SWIDTH 517 0
DWIDTH 23 0
BBX 23 23 1 0
BITMAP
80001E
C00030
400020
400040
200040
200040
100080
100080
080100
080100
080100
040200
040200
020400
020400
010400
010800
010800
008800
009000
005000
006000
002000
ENDCHAR
STARTCHAR 048A
ENCODING 1162
SWIDTH 832 0
DWIDTH 37 0
BBX 29 46 6 -7
BITMAP
02002000
02004000
02004000
01008000
00E70000
00180000
00000000
00000000
80000180
80000180
80000280
80000480
80000880
80000880
80001080
80002080
80004080
8000C080
80008080
80010080
80020080
80040080
80040080
80080080
80100080
80200080
80600080
80400080
80800080
81000080
82000080
82000080
84000080
88000080
90000080
B0000080
A0000080
C0000080
800000F8
00000008
00000010
00000010
00000010
00000020
00000020
00000020
ENDCHAR
STARTCHAR 048B
ENCODING 1163
SWIDTH 675 0
DWIDTH 30 0
BBX 24 37 5 -5
BITMAP
080100
080100
040200
020400
01F800
000000
000000
000000
000000
800010
800030
800050
800090
800110
800310
800210
800410
800810
801010
802010
806010
804010
808010
810010
820010
840010
8C0010
880010
900010
A00010
C00010
80001F
000002
000002
000002
000004
000004
ENDCHAR
STARTCHAR 048C
ENCODING 1164
SWIDTH 720 0
DWIDTH 32 0
BBX 28 33 2 0
BITMAP
04000000
04000000
04000000
04000000
04000000
04000000
FFFF8000
04000000
04000000
04000000
04000000
04000000
04000000
04000000
07FFFE00
04000100
040000C0
04000040
04000020
04000020
04000010
04000010
04000010
04000010
04000010
04000010
04000010
04000020
04000020
04000040
04000080
04000700
07FFF800
ENDCHAR
STARTCHAR 048D
ENCODING 1165
SWIDTH 562 0
DWIDTH 25 0
BBX 21 23 2 0
BITMAP
080000
080000
080000
080000
FFFC00
080000
080000
080000
080000
0FFF80
080060
080010
080008
080008
080008
080008
080008
080008
080008
080008
080010
080060
0FFF80
ENDCHAR
STARTCHAR 048E
ENCODING 1166
SWIDTH 720 0
DWIDTH 32 0
BBX 23 31 6 0
BITMAP
FFFE00
8001C0
800020
800018
800008
800004
800004
800002
800002
800002
802002
801002
801802
800804
800404
800208
800308
800130
8000C0
FFFF40
800020
800020
800010
800008
800004
800004
800000
800000
800000
800000
800000
ENDCHAR
STARTCHAR 048F
ENCODING 1167
SWIDTH 675 0
DWIDTH 30 0
BBX 23 32 5 -9
BITMAP
80FE00
830180
8C0060
900030
A00010
A00008
C00004
C00004
800004
800004
800002
800002
800002
800004
800004
C00004
C00204
A00108
A00190
900090
880060
8601A0
81FE10
800010
800008
800000
800000
800000
800000
800000
800000
800000
ENDCHAR
STARTCHAR 0490
ENCODING 1168
SWIDTH 540 0
DWIDTH 24 0
BBX 19 38 6 0
BITMAP
000020
000020
000020
000020
000020
000020
000020
FFFFE0
800000
800000
800000
800000
800000
800000
800000
800000
800000
800000
800000
800000
800000
800000
800000
800000
800000
800000
800000
800000
800000
800000
800000
800000
800000
800000
800000
800000
800000
800000
ENDCHAR
STARTCHAR 0491
ENCODING 1169
SWIDTH 405 0
DWIDTH 18 0
BBX 14 28 5 0
BITMAP
0004
0004
0004
0004
0004
FFFC
8000
8000
8000
8000
8000
8000
8000
8000
8000
8000
8000
8000
8000
8000
8000
8000
8000
8000
8000
8000
8000
8000
ENDCHAR
STARTCHAR 0492
ENCODING 1170
SWIDTH 585 0
DWIDTH 26 0
BBX 23 31 2 0
BITMAP
07FFFE
040000
040000
040000
040000
040000
040000
040000
040000
040000
040000
040000
040000
040000
040000
040000
FFFFF0
040000
040000
040000
040000
040000
040000
040000
040000
040000
040000
040000
040000
040000
040000
ENDCHAR
STARTCHAR 0493
ENCODING 1171
SWIDTH 472 0
DWIDTH 21 0
BBX 19 23 2 0
BITMAP
0FFFE0
080000
080000
080000
080000
080000
080000
080000
080000
080000
080000
080000
FFFE00
080000
080000
080000
080000
080000
080000
080000
080000
080000
080000
ENDCHAR
STARTCHAR 0494
ENCODING 1172
SWIDTH 675 0
DWIDTH 30 0
BBX 22 37 6 -6
BITMAP
FFFFE0
800000
800000
800000
800000
800000
800000
800000
800000
800000
800000
800000
800000
80FC00
870300
9800C0
E00020
800010
800008
800008
800004
800004
800004
800004
800004
800004
800004
800004
800004
800008
800008
000010
000010
000020
0000C0
000300
00FC00
ENDCHAR
STARTCHAR 0495
ENCODING 1173
SWIDTH 562 0
DWIDTH 25 0
BBX 19 32 5 -9
BITMAP
FFFC00
800000
800000
800000
800000
800000
800000
800000
800000
800000
800000
87F800
980600
E00100
800080
800040
800040
800040
800020
800020
800020
800020
800020
000020
000040
000040
000040
000080
000100
000200
000C00
03F000
ENDCHAR
STARTCHAR 0496
ENCODING 1174
SWIDTH 1012 0
DWIDTH 45 0
BBX 43 38 2 -7
BITMAP
400010000600
600010000400
200010000800
100010001000
080010001000
080010002000
040010004000
02001000C000
020010008000
010010010000
008010020000
004010020000
004010040000
002010080000
001010080000
001FFFF00000
002010080000
004010040000
004010020000
008010020000
010010010000
020010008000
020010004000
040010004000
080010002000
180010001000
100010001800
200010000800
400010000400
C00010000200
8000100003E0
000000000020
000000000020
000000000020
000000000020
000000000020
000000000020
000000000020
ENDCHAR
STARTCHAR 0497
ENCODING 1175
SWIDTH 810 0
DWIDTH 36 0
BBX 34 28 2 -5
BITMAP
8001000400
4001000400
2001000800
3001001000
1001002000
0801002000
0401004000
0401008000
0201010000
0101010000
0081020000
00FFFE0000
0101020000
0301010000
0201008000
0401004000
0801004000
1801002000
1001001000
2001000800
4001000C00
8001000400
80010003C0
0000000040
0000000040
0000000040
0000000040
0000000040
ENDCHAR
STARTCHAR 0498
ENCODING 1176
SWIDTH 607 0
DWIDTH 27 0
BBX 22 38 2 -7
BITMAP
07FE00
180180
600040
000020
000010
000010
000008
000008
000008
000010
000010
000010
000020
0000C0
07FE00
000380
000060
000010
000008
000004
000004
000004
000004
000004
000004
000008
800008
400010
300020
0C01C0
03FE00
001000
001000
001000
001000
001000
001000
001000
ENDCHAR
STARTCHAR 0499
ENCODING 1177
SWIDTH 495 0
DWIDTH 22 0
BBX 18 28 2 -5
BITMAP
0FF000
300C00
400300
000100
000080
000080
000080
000100
000100
000200
003C00
03FC00
000300
000180
000080
000080
000040
000080
000080
000180
C00300
300600
0FF800
008000
008000
008000
008000
008000
ENDCHAR
STARTCHAR 049A
ENCODING 1178
SWIDTH 720 0
DWIDTH 32 0
BBX 26 38 6 -7
BITMAP
80000400
80000800
80001000
80002000
80006000
80004000
80008000
80010000
80020000
80040000
800C0000
80080000
80100000
80200000
80400000
FFC00000
80200000
80100000
80080000
800C0000
80040000
80020000
80010000
80008000
80004000
80006000
80002000
80001000
80000800
80000400
800003C0
00000040
00000040
00000040
00000040
00000040
00000040
00000040
ENDCHAR
STARTCHAR 049B
ENCODING 1179
SWIDTH 540 0
DWIDTH 24 0
BBX 21 28 5 -5
BITMAP
800080
800100
800100
800200
800400
800800
801000
802000
804000
80C000
808000
FF0000
808000
804000
802000
801000
800800
800C00
800400
800200
800100
800080
800078
000008
000008
000008
000008
000008
ENDCHAR
STARTCHAR 049C
ENCODING 1180
SWIDTH 697 0
DWIDTH 31 0
BBX 23 31 6 0
BITMAP
800004
800004
800008
800010
800020
800020
800040
820080
820100
820100
820200
820400
820800
821800
821000
FFF000
821000
820800
820400
820200
820300
820100
820080
800040
800020
800030
800010
800008
800004
800002
800002
ENDCHAR
STARTCHAR 049D
ENCODING 1181
SWIDTH 562 0
DWIDTH 25 0
BBX 19 23 5 0
BITMAP
800040
800080
800100
800200
800200
840400
840800
841000
843000
842000
844000
FF8000
844000
842000
841000
840800
840C00
800400
800200
800100
800080
800040
800060
ENDCHAR
STARTCHAR 049E
ENCODING 1182
SWIDTH 697 0
DWIDTH 31 0
BBX 28 31 2 0
BITMAP
04000020
04000040
04000080
04000100
04000200
FFFE0200
04000400
04000800
04001000
04002000
04006000
04004000
04008000
04010000
04020000
07FE0000
04010000
04008000
04004000
04004000
04002000
04001000
04000800
04000400
04000200
04000300
04000100
04000080
04000040
04000020
04000010
ENDCHAR
STARTCHAR 049F
ENCODING 1183
SWIDTH 540 0
DWIDTH 24 0
BBX 22 33 1 0
BITMAP
080000
080000
080000
080000
080000
FFF000
080000
080000
080000
080000
080008
080018
080010
080020
080040
080080
080100
080200
080400
080C00
080800
0FF000
080800
080400
080200
080100
080080
0800C0
080040
080020
080010
080008
080004
ENDCHAR
STARTCHAR 04A0
ENCODING 1184
SWIDTH 765 0
DWIDTH 34 0
BBX 33 31 0 0
BITMAP
FFE0000100
0020000200
0020000600
0020000400
0020000800
0020001000
0020002000
0020006000
0020004000
0020008000
0020010000
0020020000
0020040000
0020040000
0020080000
001FF80000
0020080000
0020040000
0020020000
0020010000
0020008000
0020004000
0020006000
0020002000
0020001000
0020000800
0020000400
0020000200
0020000300
0020000100
0020000080
ENDCHAR
STARTCHAR 04A1
ENCODING 1185
SWIDTH 585 0
DWIDTH 26 0
BBX 25 23 0 0
BITMAP
FF000180
01000100
01000200
01000400
01000800
01001000
01002000
01004000
0100C000
01008000
01010000
01FE0000
01010000
01008000
01004000
01002000
01001000
01000800
01000400
01000400
01000200
01000100
01000080
ENDCHAR
STARTCHAR 04A2
ENCODING 1186
SWIDTH 832 0
DWIDTH 37 0
BBX 30 38 6 -7
BITMAP
80000080
80000080
80000080
80000080
80000080
80000080
80000080
80000080
80000080
80000080
80000080
80000080
80000080
80000080
80000080
FFFFFF80
80000080
80000080
80000080
80000080
80000080
80000080
80000080
80000080
80000080
80000080
80000080
80000080
80000080
80000080
800000FC
00000004
00000004
00000004
00000004
00000004
00000004
00000004
ENDCHAR
STARTCHAR 04A3
ENCODING 1187
SWIDTH 675 0
DWIDTH 30 0
BBX 23 28 5 -5
BITMAP
800020
800020
800020
800020
800020
800020
800020
800020
800020
800020
800020
FFFFE0
800020
800020
800020
800020
800020
800020
800020
800020
800020
800020
80003E
000002
000002
000002
000002
000002
ENDCHAR
STARTCHAR 04A4
ENCODING 1188
SWIDTH 1080 0
DWIDTH 48 0
BBX 42 31 6 0
BITMAP
800000FFFFC0
800000800000
800000800000
800000800000
800000800000
800000800000
800000800000
800000800000
800000800000
800000800000
800000800000
800000800000
800000800000
800000800000
800000800000
FFFFFF800000
800000800000
800000800000
800000800000
800000800000
800000800000
800000800000
800000800000
800000800000
800000800000
800000800000
800000800000
800000800000
800000800000
800000800000
800000800000
ENDCHAR
STARTCHAR 04A5
ENCODING 1189
SWIDTH 855 0
DWIDTH 38 0
BBX 33 23 5 0
BITMAP
80003FFF80
8000200000
8000200000
8000200000
8000200000
8000200000
8000200000
8000200000
8000200000
8000200000
8000200000
FFFFE00000
8000200000
8000200000
8000200000
8000200000
8000200000
8000200000
8000200000
8000200000
8000200000
8000200000
8000200000
ENDCHAR
STARTCHAR 04A6
ENCODING 1190
SWIDTH 1215 0
DWIDTH 54 0
BBX 46 37 6 -6
BITMAP
FFFFFF800000
800000800000
800000800000
800000800000
800000800000
800000800000
800000800000
800000800000
800000800000
800000800000
800000800000
800000800000
800000800000
80000080FC00
8000008F0300
800000B000C0
800000C00020
800000800010
800000800010
800000800008
800000800008
800000800004
800000800004
800000800004
800000800004
800000800004
800000800004
800000800004
800000800008
800000800008
800000800008
000000000010
000000000020
000000000060
0000000000C0
000000000300
00000000FC00
ENDCHAR
STARTCHAR 04A7
ENCODING 1191
SWIDTH 945 0
DWIDTH 42 0
BBX 36 32 5 -9
BITMAP
FFFFE00000
8000200000
8000200000
8000200000
8000200000
8000200000
8000200000
8000200000
8000200000
8000200000
8000200000
800021FC00
80002E0300
8000300080
8000200040
8000200020
8000200020
8000200010
8000200010
8000200010
8000200010
8000200010
8000200010
0000000010
0000000010
0000000020
0000000020
0000000040
00000000C0
0000000180
0000000600
000001F800
ENDCHAR
STARTCHAR 04A8
ENCODING 1192
SWIDTH 945 0
DWIDTH 42 0
BBX 36 31 3 0
BITMAP
00C00FF000
0100300C00
0200400200
0400800100
0801000080
1002000040
2002000040
2004000020
4004000020
4004000020
4004000020
8008000010
8008000010
8008000010
8008000010
8008000020
8004000020
8004000020
8004000020
4004000040
4002000040
40020000C0
2001000080
2001800100
1000800200
0800400600
0400200800
0200181000
0180066000
0070038000
000FFC7FF0
ENDCHAR
STARTCHAR 04A9
ENCODING 1193
SWIDTH 765 0
DWIDTH 34 0
BBX 28 23 3 0
BITMAP
0201FC00
0C060300
10080080
201000C0
20100040
40200020
40200020
80400020
80400020
80400020
80400020
80400020
80400020
80200020
80200040
80200040
40100080
40080080
200C0100
10060200
0C010C00
0300F000
00FF9FF0
ENDCHAR
STARTCHAR 04AA
ENCODING 1194
SWIDTH 697 0
DWIDTH 31 0
BBX 26 38 3 -7
BITMAP
001FF800
00E00700
01800080
06000040
0C000000
18000000
10000000
20000000
20000000
40000000
40000000
80000000
80000000
80000000
80000000
80000000
80000000
80000000
80000000
80000000
40000000
40000000
20000000
20000000
10000000
08000000
0C000000
02000040
01800180
00600600
001FF800
00010000
00010000
00010000
00010000
00010000
00010000
00010000
ENDCHAR
STARTCHAR 04AB
ENCODING 1195
SWIDTH 540 0
DWIDTH 24 0
BBX 19 28 3 -5
BITMAP
01FE00
060180
080040
100020
200000
400000
400000
800000
800000
800000
800000
800000
800000
800000
800000
800000
400000
400000
200000
100020
080040
060180
01FE00
001000
001000
001000
001000
001000
ENDCHAR
STARTCHAR 04AC
ENCODING 1196
SWIDTH 540 0
DWIDTH 24 0
BBX 24 38 0 -7
BITMAP
FFFFFF
000800
000800
000800
000800
000800
000800
000800
000800
000800
000800
000800
000800
000800
000800
000800
000800
000800
000800
000800
000800
000800
000800
000800
000800
000800
000800
000800
000800
000800
000FC0
000040
000040
000040
000040
000040
000040
000040
ENDCHAR
STARTCHAR 04AD
ENCODING 1197
SWIDTH 427 0
DWIDTH 19 0
BBX 19 28 0 -5
BITMAP
FFFFE0
004000
004000
004000
004000
004000
004000
004000
004000
004000
004000
004000
004000
004000
004000
004000
004000
004000
004000
004000
004000
004000
007C00
000400
000400
000400
000400
000400
ENDCHAR
STARTCHAR 04AE
ENCODING 1198
SWIDTH 607 0
DWIDTH 27 0
BBX 25 31 1 0
BITMAP
80000080
40000080
40000100
20000100
10000200
10000400
08000400
08000800
04000800
02001000
02002000
01002000
01004000
0080C000
00408000
00410000
00210000
00120000
00140000
000C0000
00080000
00080000
00080000
00080000
00080000
00080000
00080000
00080000
00080000
00080000
00080000
ENDCHAR
STARTCHAR 04AF
ENCODING 1199
SWIDTH 517 0
DWIDTH 23 0
BBX 22 32 1 -9
BITMAP
800004
800008
400008
400010
200010
200020
100020
100040
080040
080080
040080
040080
040100
020100
020200
010200
010400
008400
008800
004800
005000
003000
002000
002000
002000
002000
002000
002000
002000
002000
002000
002000
ENDCHAR
STARTCHAR 04B0
ENCODING 1200
SWIDTH 607 0
DWIDTH 27 0
BBX 25 31 1 0
BITMAP
80000080
40000080
40000100
20000100
10000200
10000400
08000400
08000800
04000800
02001000
02002000
01002000
01004000
0080C000
00408000
00410000
00210000
00120000
00140000
000C0000
0FFFFC00
00080000
00080000
00080000
00080000
00080000
00080000
00080000
00080000
00080000
00080000
ENDCHAR
STARTCHAR 04B1
ENCODING 1201
SWIDTH 517 0
DWIDTH 23 0
BBX 22 32 1 -9
BITMAP
800004
800008
400008
400010
200010
200020
100020
100040
080040
080080
040080
040080
040100
020100
020200
010200
010400
008400
008800
004800
005000
003000
3FFFE0
002000
002000
002000
002000
002000
002000
002000
002000
002000
ENDCHAR
STARTCHAR 04B2
ENCODING 1202
SWIDTH 652 0
DWIDTH 29 0
BBX 27 38 2 -7
BITMAP
40000400
40000400
20000800
10001000
08001000
08002000
04004000
02008000
03008000
01010000
00820000
00460000
00440000
00280000
00100000
00180000
00280000
00440000
00C20000
00820000
01010000
02008000
02004000
04004000
08002000
10001000
10001800
20000800
40000400
40000200
800003E0
00000020
00000020
00000020
00000020
00000020
00000020
00000020
ENDCHAR
STARTCHAR 04B3
ENCODING 1203
SWIDTH 495 0
DWIDTH 22 0
BBX 22 28 2 -5
BITMAP
800040
400080
200100
300200
100200
080400
040800
021000
023000
012000
00C000
00C000
012000
012000
021000
040800
080400
180600
100200
200100
400080
800040
80007C
000004
000004
000004
000004
000004
ENDCHAR
STARTCHAR 04B4
ENCODING 1204
SWIDTH 945 0
DWIDTH 42 0
BBX 41 39 0 -8
BITMAP
FFFFFF002000
000800002000
000800002000
000800002000
000800002000
000800002000
000800002000
000800002000
000800002000
000800002000
000800002000
000800002000
000800002000
000800002000
000800002000
000800002000
000800002000
000800002000
000800002000
000800002000
000800002000
000800002000
000800002000
000800002000
000800002000
000800002000
000800002000
000800002000
000800002000
000800002000
000FFFFFFF80
000000000080
000000000080
000000000080
000000000080
000000000080
000000000080
000000000080
000000000080
ENDCHAR
STARTCHAR 04B5
ENCODING 1205
SWIDTH 720 0
DWIDTH 32 0
BBX 30 28 0 -5
BITMAP
FFFFE020
00400020
00400020
00400020
00400020
00400020
00400020
00400020
00400020
00400020
00400020
00400020
00400020
00400020
00400020
00400020
00400020
00400020
00400020
00400020
00400020
00400020
007FFFFC
00000004
00000004
00000004
00000004
00000004
ENDCHAR
STARTCHAR 04B6
ENCODING 1206
SWIDTH 720 0
DWIDTH 32 0
BBX 28 38 3 -7
BITMAP
80000200
80000200
80000200
80000200
80000200
80000200
80000200
80000200
80000200
80000200
80000200
80000200
80000200
80000200
40000200
60000200
30000600
18003A00
0703C200
00FC0200
00000200
00000200
00000200
00000200
00000200
00000200
00000200
00000200
00000200
00000200
000003F0
00000010
00000010
00000010
00000010
00000010
00000010
00000010
ENDCHAR
STARTCHAR 04B7
ENCODING 1207
SWIDTH 585 0
DWIDTH 26 0
BBX 22 28 2 -5
BITMAP
800020
800020
800020
800020
800020
800020
800020
800020
800020
400020
400020
600020
3000E0
0C0F20
01F020
000020
000020
000020
000020
000020
000020
000020
00003C
000004
000004
000004
000004
000004
ENDCHAR
STARTCHAR 04B8
ENCODING 1208
SWIDTH 720 0
DWIDTH 32 0
BBX 23 31 3 0
BITMAP
800002
800002
800002
800002
800002
800002
800002
800002
800002
800002
800002
801002
801002
801002
401002
601002
301006
18103A
0713C2
00FC02
001002
001002
001002
001002
001002
001002
001002
000002
000002
000002
000002
ENDCHAR
STARTCHAR 04B9
ENCODING 1209
SWIDTH 562 0
DWIDTH 25 0
BBX 19 23 2 0
BITMAP
800020
800020
800020
800020
800020
800020
800020
800020
804020
404020
404020
604020
3040E0
0C4F20
01F020
004020
004020
004020
004020
004020
000020
000020
000020
ENDCHAR
STARTCHAR 04BA
ENCODING 1210
SWIDTH 720 0
DWIDTH 32 0
BBX 23 31 6 0
BITMAP
800000
800000
800000
800000
800000
800000
800000
800000
800000
800000
800000
807E00
8781C0
B80030
C00008
800004
800004
800004
800002
800002
800002
800002
800002
800002
800002
800002
800002
800002
800002
800002
800002
ENDCHAR
STARTCHAR 04BB
ENCODING 1211
SWIDTH 652 0
DWIDTH 29 0
BBX 20 33 5 0
BITMAP
800000
800000
800000
800000
800000
800000
800000
800000
800000
800000
81FE00
860180
8800C0
900040
A00020
C00020
C00010
800010
800010
800010
800010
800010
800010
800010
800010
800010
800010
800010
800010
800010
800010
800010
800010
ENDCHAR
STARTCHAR 04BC
ENCODING 1212
SWIDTH 945 0
DWIDTH 42 0
BBX 38 31 2 0
BITMAP
00003FE000
0001C01C00
0002000200
000C000180
00180000C0
0030000060
4020000020
8040000010
8040000010
8080000008
8080000008
8080000008
8100000004
C100000004
6100000004
1FFFFFFFFC
0100000000
0100000000
0100000000
0100000000
0080000000
0080000000
0040000000
0040000000
0020000000
0030000000
0018000040
000C0000C0
0003000300
0001C00C00
00003FF000
ENDCHAR
STARTCHAR 04BD
ENCODING 1213
SWIDTH 697 0
DWIDTH 31 0
BBX 28 23 1 0
BITMAP
0003F800
00180600
00200100
00400080
40800040
40800020
81000020
81000010
82000010
42000010
32000010
0FFFFFE0
02000000
02000000
02000000
01000000
01000000
00800000
00800000
00400020
003000C0
000C0300
0003FC00
ENDCHAR
STARTCHAR 04BE
ENCODING 1214
SWIDTH 945 0
DWIDTH 42 0
BBX 38 38 2 -7
BITMAP
00003FE000
0001C01C00
0002000200
000C000180
00180000C0
0030000060
4020000020
8040000010
8040000010
8080000008
8080000008
8080000008
8100000004
C100000004
6100000004
1FFFFFFFFC
0100000000
0100000000
0100000000
0100000000
0080000000
0080000000
0040000000
0040000000
0020000000
0030000000
0018000040
000C0000C0
0003000300
0001C00C00
00003FF000
0000020000
0000020000
0000020000
0000020000
0000020000
0000020000
0000020000
ENDCHAR
STARTCHAR 04BF
ENCODING 1215
SWIDTH 697 0
DWIDTH 31 0
BBX 28 28 1 -5
BITMAP
0003F800
00180600
00200100
00400080
40800040
40800020
81000020
81000010
82000010
42000010
32000010
0FFFFFE0
02000000
02000000
02000000
01000000
01000000
00800000
00800000
00400020
003000C0
000C0300
0003FC00
00004000
00004000
00004000
00004000
00004000
ENDCHAR
STARTCHAR 04C0
ENCODING 1216
SWIDTH 292 0
DWIDTH 13 0
BBX 1 31 6 0
BITMAP
80
80
80
80
80
80
80
80
80
80
80
80
80
80
80
80
80
80
80
80
80
80
80
80
80
80
80
80
80
80
80
ENDCHAR
STARTCHAR 04C1
ENCODING 1217
SWIDTH 967 0
DWIDTH 43 0
BBX 40 39 2 0
BITMAP
0004004000
0004004000
000200C000
0003008000
0000E60000
0000180000
0000000000
0000000000
4000100006
6000100004
2000100008
1000100010
0800100010
0800100020
0400100040
02001000C0
0200100080
0100100100
0080100200
0040100200
0040100400
0020100800
0010100800
001FFFF000
0020100800
0040100400
0040100200
0080100200
0100100100
0200100080
0200100040
0400100040
0800100020
1800100010
1000100018
2000100008
4000100004
C000100002
8000100003
ENDCHAR
STARTCHAR 04C2
ENCODING 1218
SWIDTH 765 0
DWIDTH 34 0
BBX 31 32 2 0
BITMAP
00400800
00200800
00201800
00103000
000FC000
00000000
00000000
00000000
00000000
80010004
40010004
20010008
30010010
10010020
08010020
04010040
04010080
02010100
01010100
00810200
00FFFE00
01010200
03010100
02010080
04010040
08010040
18010020
10010010
20010008
4001000C
80010004
80010002
ENDCHAR
STARTCHAR 04C3
ENCODING 1219
SWIDTH 675 0
DWIDTH 30 0
BBX 22 40 6 -9
BITMAP
800004
800008
800010
800020
800060
800040
800080
800100
800200
800400
800400
800800
801000
802000
804000
FFC000
802000
801800
800C00
800600
800300
800180
800080
800040
800020
800020
800010
800010
800008
800008
800004
000004
000004
000004
000004
000004
000004
000008
000E10
0001C0
ENDCHAR
STARTCHAR 04C4
ENCODING 1220
SWIDTH 540 0
DWIDTH 24 0
BBX 18 32 5 -9
BITMAP
800080
800100
800100
800200
800400
800800
801000
802000
804000
80C000
808000
FF8000
804000
802000
801000
800800
800400
800600
800200
800100
800100
800080
800080
000040
000040
000040
000040
000040
000080
000080
00C300
001C00
ENDCHAR
STARTCHAR 04C6
ENCODING 1222
SWIDTH 607 0
DWIDTH 27 0
BBX 26 28 0 -5
BITMAP
01FFFC00
01000400
01000400
01000400
01000400
01000400
02000400
02000400
02000400
02000400
02000400
02000400
02000400
02000400
02000400
02000400
02000400
04000400
04000400
04000400
08000400
08000400
F00007C0
00000040
00000080
00000080
00000080
00000100
ENDCHAR
STARTCHAR 04C7
ENCODING 1223
SWIDTH 810 0
DWIDTH 36 0
BBX 24 40 6 -9
BITMAP
800001
800001
800001
800001
800001
800001
800001
800001
800001
800001
800001
800001
800001
800001
800001
FFFFFF
800001
800001
800001
800001
800001
800001
800001
800001
800001
800001
800001
800001
800001
800001
800001
000001
000001
000001
000001
000001
000001
000002
000186
000078
ENDCHAR
STARTCHAR 04C8
ENCODING 1224
SWIDTH 652 0
DWIDTH 29 0
BBX 20 32 5 -9
BITMAP
800010
800010
800010
800010
800010
800010
800010
800010
800010
800010
800010
FFFFF0
800010
800010
800010
800010
800010
800010
800010
800010
800010
800010
800010
000010
000010
000010
000010
000010
000020
000020
0030C0
000700
ENDCHAR
STARTCHAR 04C9
ENCODING 1225
SWIDTH 832 0
DWIDTH 37 0
BBX 29 38 6 -7
BITMAP
80000080
80000080
80000080
80000080
80000080
80000080
80000080
80000080
80000080
80000080
80000080
80000080
80000080
80000080
80000080
FFFFFF80
80000080
80000080
80000080
80000080
80000080
80000080
80000080
80000080
80000080
80000080
80000080
80000080
80000080
80000080
800000F8
00000010
00000010
00000010
00000020
00000020
00000020
00000020
ENDCHAR
STARTCHAR 04CA
ENCODING 1226
SWIDTH 675 0
DWIDTH 30 0
BBX 23 28 5 -5
BITMAP
800020
800020
800020
800020
800020
800020
800020
800020
800020
800020
800020
FFFFE0
800020
800020
800020
800020
800020
800020
800020
800020
800020
800020
80003E
000002
000004
000004
000004
000008
ENDCHAR
STARTCHAR 04CB
ENCODING 1227
SWIDTH 720 0
DWIDTH 32 0
BBX 23 38 3 -7
BITMAP
800002
800002
800002
800002
800002
800002
800002
800002
800002
800002
800002
800002
800002
800002
400002
600002
300006
18003A
0703C2
00FC02
000002
000002
000002
000002
000002
000002
000002
000002
000002
000002
00007E
000040
000040
000040
000040
000040
000040
000040
ENDCHAR
STARTCHAR 04CC
ENCODING 1228
SWIDTH 562 0
DWIDTH 25 0
BBX 18 28 2 -5
BITMAP
800000
800040
800040
800040
800040
800040
800040
800040
800040
800040
400040
600040
3000C0
0C0F40
01F040
000040
000040
000040
000040
000040
000040
000040
0003C0
000400
000400
000400
000400
000400
ENDCHAR
STARTCHAR 04CD
ENCODING 1229
SWIDTH 967 0
DWIDTH 43 0
BBX 35 38 6 -7
BITMAP
8000000200
C000000600
C000000A00
A000000A00
A000001200
9000001200
8800002200
8800002200
8400004200
8400008200
8200008200
8200010200
8100010200
8080020200
8080020200
8040040200
8040080200
8020080200
8030100200
8010100200
8008200200
8008200200
8004400200
8004800200
8002800200
8001000200
8001000200
8000000200
8000000200
8000000200
80000003E0
0000000020
0000000040
0000000040
0000000040
0000000080
0000000080
0000000080
ENDCHAR
STARTCHAR 04CE
ENCODING 1230
SWIDTH 787 0
DWIDTH 35 0
BBX 28 28 5 -5
BITMAP
80000100
C0000100
C0000300
A0000500
90000500
90000900
88000900
88001100
84002100
82002100
82004100
81004100
80808100
80810100
80410100
80420100
80240100
80140100
80180100
80080100
80000100
80000100
800001F0
00000010
00000020
00000020
00000020
00000040
ENDCHAR
STARTCHAR 04CF
ENCODING 1231
SWIDTH 247 0
DWIDTH 11 0
BBX 1 33 5 0
BITMAP
80
80
80
80
80
80
80
80
80
80
80
80
80
80
80
80
80
80
80
80
80
80
80
80
80
80
80
80
80
80
80
80
80
ENDCHAR
STARTCHAR 04D0
ENCODING 1232
SWIDTH 697 0
DWIDTH 31 0
BBX 30 39 1 0
BITMAP
00800800
00400800
00400800
00201000
001CE000
00030000
00000000
00000000
00030000
00030000
00048000
00048000
00088000
00084000
00104000
00102000
00302000
00201000
00201000
00400800
00400800
00800400
00800400
01000200
01000200
02000100
02000100
04000100
04000080
0FFFFF80
08000040
18000040
10000020
10000020
20000010
20000010
40000008
40000008
80000004
ENDCHAR
STARTCHAR 04D1
ENCODING 1233
SWIDTH 562 0
DWIDTH 25 0
BBX 18 32 3 0
BITMAP
100200
100200
080400
040C00
03F000
000000
000000
000000
000000
07F800
180600
600100
400080
000080
000080
000040
000040
000040
000040
000040
1FFFC0
200040
400040
800040
800040
800040
8000C0
8000C0
400140
400240
300C40
0FF040
ENDCHAR
STARTCHAR 04D2
ENCODING 1234
SWIDTH 697 0
DWIDTH 31 0
BBX 30 37 1 0
BITMAP
00307000
00102000
00000000
00000000
00000000
00000000
00030000
00030000
00048000
00048000
00088000
00084000
00104000
00102000
00302000
00201000
00201000
00400800
00400800
00800400
00800400
01000200
01000200
02000100
02000100
04000100
04000080
0FFFFF80
08000040
18000040
10000020
10000020
20000010
20000010
40000008
40000008
80000004
ENDCHAR
STARTCHAR 04D3
ENCODING 1235
SWIDTH 562 0
DWIDTH 25 0
BBX 18 31 3 0
BITMAP
040800
0E0C00
040000
000000
000000
000000
000000
000000
07F800
180600
600100
400080
000080
000080
000040
000040
000040
000040
000040
1FFFC0
200040
400040
800040
800040
800040
8000C0
8000C0
400140
400240
300C40
0FF040
ENDCHAR
STARTCHAR 04D4
ENCODING 1236
SWIDTH 967 0
DWIDTH 43 0
BBX 41 31 1 0
BITMAP
00001FFFFF00
000028000000
000028000000
000048000000
000088000000
000088000000
000108000000
000108000000
000208000000
000408000000
000408000000
000808000000
001008000000
001008000000
002008000000
00600FFFFC00
004008000000
008008000000
008008000000
010008000000
020008000000
03FFF8000000
040008000000
080008000000
080008000000
100008000000
300008000000
200008000000
400008000000
400008000000
80000FFFFF80
ENDCHAR
STARTCHAR 04D5
ENCODING 1237
SWIDTH 967 0
DWIDTH 43 0
BBX 38 23 3 0
BITMAP
07F800FE00
1806030180
60010C0040
4000880020
0000900010
0000A00008
0000600008
0000400004
0000400004
0000400004
0000400004
1FFFFFFFF8
2000400000
4000400000
8000400000
8000400000
8000A00000
8000A00000
8000900000
4001080018
4002040030
300C0300C0
0FF000FF00
ENDCHAR
STARTCHAR 04D6
ENCODING 1238
SWIDTH 630 0
DWIDTH 28 0
BBX 21 39 6 0
BITMAP
080080
080100
080100
040200
039C00
006000
000000
000000
FFFFF0
800000
800000
800000
800000
800000
800000
800000
800000
800000
800000
800000
800000
800000
800000
FFFFC0
800000
800000
800000
800000
800000
800000
800000
800000
800000
800000
800000
800000
800000
800000
FFFFF8
ENDCHAR
STARTCHAR 04D7
ENCODING 1239
SWIDTH 607 0
DWIDTH 27 0
BBX 21 32 3 0
BITMAP
000100
040100
040100
020600
01F800
000000
000000
000000
000000
01FC00
060300
180080
300040
200020
400010
400010
800008
800008
800008
800008
FFFFF0
800000
800000
800000
800000
400000
400000
200000
100030
080060
060180
01FE00
ENDCHAR
STARTCHAR 04D8
ENCODING 1240
SWIDTH 810 0
DWIDTH 36 0
BBX 32 31 2 0
BITMAP
001FF800
00E00600
03000180
0C000040
08000020
00000010
00000008
00000004
00000004
00000002
00000002
00000002
00000002
00000002
00000001
FFFFFFFF
80000001
80000002
80000002
40000002
40000002
40000004
20000004
20000008
10000008
08000010
0C000020
02000040
01800180
00600600
001FF000
ENDCHAR
STARTCHAR 04D9
ENCODING 1241
SWIDTH 585 0
DWIDTH 26 0
BBX 22 23 2 0
BITMAP
03FC00
0C0300
1000C0
200020
000020
000010
000008
000008
000008
000008
000004
000004
FFFFFC
800004
800008
400008
400008
200010
200010
100020
080040
060180
01FE00
ENDCHAR
STARTCHAR 04DA
ENCODING 1242
SWIDTH 810 0
DWIDTH 36 0
BBX 32 37 2 0
BITMAP
000C1800
00081800
00000000
00000000
00000000
00000000
001FF800
00E00600
03000180
0C000040
08000020
00000010
00000008
00000004
00000004
00000002
00000002
00000002
00000002
00000002
00000001
FFFFFFFF
80000001
80000002
80000002
40000002
40000002
40000004
20000004
20000008
10000008
08000010
0C000020
02000040
01800180
00600600
001FF000
ENDCHAR
STARTCHAR 04DB
ENCODING 1243
SWIDTH 585 0
DWIDTH 26 0
BBX 22 31 2 0
BITMAP
010200
038300
010000
000000
000000
000000
000000
000000
03FC00
0C0300
1000C0
200020
000020
000010
000008
000008
000008
000008
000004
000004
FFFFFC
800004
800008
400008
400008
200010
200010
100020
080040
060180
01FE00
ENDCHAR
STARTCHAR 04DC
ENCODING 1244
SWIDTH 967 0
DWIDTH 43 0
BBX 40 37 2 0
BITMAP
0001830000
0001810000
0000000000
0000000000
0000000000
0000000000
4000100006
6000100004
2000100008
1000100010
0800100010
0800100020
0400100040
02001000C0
0200100080
0100100100
0080100200
0040100200
0040100400
0020100800
0010100800
001FFFF000
0020100800
0040100400
0040100200
0080100200
0100100100
0200100080
0200100040
0400100040
0800100020
1800100010
1000100018
2000100008
4000100004
C000100002
8000100003
ENDCHAR
STARTCHAR 04DD
ENCODING 1245
SWIDTH 765 0
DWIDTH 34 0
BBX 31 31 2 0
BITMAP
00103000
00183000
00100000
00000000
00000000
00000000
00000000
00000000
80010004
40010004
20010008
30010010
10010020
08010020
04010040
04010080
02010100
01010100
00810200
00FFFE00
01010200
03010100
02010080
04010040
08010040
18010020
10010010
20010008
4001000C
80010004
80010002
ENDCHAR
STARTCHAR 04DE
ENCODING 1246
SWIDTH 607 0
DWIDTH 27 0
BBX 22 37 2 0
BITMAP
018380
018100
000000
000000
000000
000000
07FE00
180180
600040
000020
000010
000010
000008
000008
000008
000010
000010
000010
000020
0000C0
07FE00
000380
000060
000010
000008
000004
000004
000004
000004
000004
000004
000008
800008
400010
300020
0C01C0
03FE00
ENDCHAR
STARTCHAR 04DF
ENCODING 1247
SWIDTH 495 0
DWIDTH 22 0
BBX 18 31 2 0
BITMAP
0C0800
0C1800
000000
000000
000000
000000
000000
000000
0FF000
300C00
400300
000100
000080
000080
000080
000100
000100
000200
003C00
03FC00
000300
000180
000080
000080
000040
000080
000080
000180
C00300
300600
0FF800
ENDCHAR
STARTCHAR 04E0
ENCODING 1248
SWIDTH 585 0
DWIDTH 26 0
BBX 22 31 2 0
BITMAP
7FFFF0
000010
000020
000040
000080
000100
000100
000200
000400
000800
001000
001000
002000
004000
007F00
0000C0
000020
000010
000008
000008
000008
000004
000004
000004
000008
000008
000008
C00010
600020
1800C0
07FF00
ENDCHAR
STARTCHAR 04E1
ENCODING 1249
SWIDTH 472 0
DWIDTH 21 0
BBX 21 32 -1 -9
BITMAP
7FFFF0
000020
000040
0000C0
000080
000100
000200
000600
000400
000800
001000
003000
002000
004000
00F800
000700
0000C0
000020
000010
000010
000010
000008
000008
000008
000008
000010
000010
800010
400020
300040
0E0300
01FC00
ENDCHAR
STARTCHAR 04E2
ENCODING 1250
SWIDTH 810 0
DWIDTH 36 0
BBX 25 37 6 0
BITMAP
03FFC000
00000000
00000000
00000000
00000000
00000000
80000180
80000180
80000280
80000480
80000880
80000880
80001080
80002080
80004080
8000C080
80008080
80010080
80020080
80040080
80040080
80080080
80100080
80200080
80600080
80400080
80800080
81000080
82000080
82000080
84000080
88000080
90000080
B0000080
A0000080
C0000080
80000080
ENDCHAR
STARTCHAR 04E3
ENCODING 1251
SWIDTH 652 0
DWIDTH 29 0
BBX 20 30 5 0
BITMAP
0FFF00
000000
000000
000000
000000
000000
000000
800010
800030
800050
800090
800110
800310
800210
800410
800810
801010
802010
806010
804010
808010
810010
820010
840010
8C0010
880010
900010
A00010
C00010
800010
ENDCHAR
STARTCHAR 04E4
ENCODING 1252
SWIDTH 810 0
DWIDTH 36 0
BBX 25 37 6 0
BITMAP
01C18000
00818000
00000000
00000000
00000000
00000000
80000180
80000180
80000280
80000480
80000880
80000880
80001080
80002080
80004080
8000C080
80008080
80010080
80020080
80040080
80040080
80080080
80100080
80200080
80600080
80400080
80800080
81000080
82000080
82000080
84000080
88000080
90000080
B0000080
A0000080
C0000080
80000080
ENDCHAR
STARTCHAR 04E5
ENCODING 1253
SWIDTH 652 0
DWIDTH 29 0
BBX 20 31 5 0
BITMAP
020400
060E00
000400
000000
000000
000000
000000
000000
800010
800030
800050
800090
800110
800310
800210
800410
800810
801010
802010
806010
804010
808010
810010
820010
840010
8C0010
880010
900010
A00010
C00010
800010
ENDCHAR
STARTCHAR 04E6
ENCODING 1254
SWIDTH 855 0
DWIDTH 38 0
BBX 32 37 3 0
BITMAP
00181800
00081000
00000000
00000000
00000000
00000000
001FF800
00E00700
01000080
06000060
0C000030
18000018
10000008
20000004
20000004
40000002
40000002
80000001
80000001
80000001
80000001
80000001
80000001
80000001
80000001
80000002
40000002
40000002
20000004
20000004
10000008
08000010
0C000030
02000040
01800180
00600600
001FF800
ENDCHAR
STARTCHAR 04E7
ENCODING 1255
SWIDTH 607 0
DWIDTH 27 0
BBX 22 31 3 0
BITMAP
010200
030700
000000
000000
000000
000000
000000
000000
01FE00
060180
080040
100020
200010
400008
400008
800008
800004
800004
800004
800004
800004
800004
800004
800008
400008
400008
200010
100020
080040
060180
01FE00
ENDCHAR
STARTCHAR 04E8
ENCODING 1256
SWIDTH 855 0
DWIDTH 38 0
BBX 32 31 3 0
BITMAP
001FF800
00E00700
01000080
06000060
0C000030
18000018
10000008
20000004
20000004
40000002
40000002
80000001
80000001
80000001
80000001
FFFFFFFF
80000001
80000001
80000001
80000002
40000002
40000002
20000004
20000004
10000008
08000010
0C000030
02000060
01800180
00600600
001FF800
ENDCHAR
STARTCHAR 04E9
ENCODING 1257
SWIDTH 630 0
DWIDTH 28 0
BBX 23 23 3 0
BITMAP
01FE00
060180
080060
100030
200010
400008
400004
800004
800004
800004
800002
FFFFFE
800002
800004
800004
800004
400004
400008
200018
100030
080060
060180
01FE00
ENDCHAR
STARTCHAR 04EA
ENCODING 1258
SWIDTH 855 0
DWIDTH 38 0
BBX 32 37 3 0
BITMAP
00181800
00081000
00000000
00000000
00000000
00000000
001FF800
00E00700
01000080
06000060
0C000030
18000018
10000008
20000004
20000004
40000002
40000002
80000001
80000001
80000001
80000001
FFFFFFFF
80000001
80000001
80000001
80000002
40000002
40000002
20000004
20000004
10000008
08000010
0C000030
02000060
01800180
00600600
001FF800
ENDCHAR
ENDFONT
